<svg width="897" height="98" viewBox="0 0 897 98" fill="none" xmlns="http://www.w3.org/2000/svg">
    <path d="M314.903 1.99663H325.423C331.581 12.5167 337.809 22.9902 343.944 33.6269C350.079 44.2636 356.097 54.7837 362.605 66.2835L398.131 2.48647H410.517V96.211H398.131V33.3703C398.131 33.3981 368.11 81.842 368.11 81.842C365.171 86.7405 360.249 86.8105 357.287 81.842C347.956 66.0969 338.812 50.2351 328.176 34.6066V96.3743H314.903V1.99663Z" fill="#5C5C5C"/>
    <path d="M246.972 97.468C218.538 97.0481 197.567 76.1245 198.29 48.9029C199.014 21.6813 220.007 1.31757 247.602 1.66747C276.13 2.04068 296.983 22.4977 296.704 49.8826C296.424 77.2675 275.057 97.8645 246.972 97.468ZM247.462 14.5668C227.285 14.5668 211.75 29.7055 211.82 49.4161C211.82 69.6865 226.795 84.4053 247.252 84.4053C267.709 84.4053 282.801 69.7798 282.964 49.5794C283.151 29.9154 267.686 14.6368 247.462 14.5668Z" fill="#5C5C5C"/>
    <path d="M130.635 97.6269C102.224 97.5103 81.16 76.7733 81.6499 49.2718C82.1397 21.7702 103.017 1.61645 130.845 1.66311C158.673 1.70976 180.18 22.8199 179.993 50.1115C179.806 77.4031 158.486 97.7435 130.635 97.6269ZM130.635 84.6809C151.068 84.6809 166.091 70.032 166.254 49.6916C166.417 29.3512 151.138 14.7024 130.775 14.7024C110.411 14.7024 95.0391 29.7944 95.0157 49.6916C94.9924 69.5889 110.224 84.6575 130.518 84.6809H130.635Z" fill="#5C5C5C"/>
    <path d="M660.081 39.8159C660.734 41.1828 661.404 42.5452 662.074 43.9077C660.474 33.1845 667.323 27.0283 673.845 20.4576C674.632 21.5198 675.238 22.3078 675.943 23.2663C677.384 12.3197 691.571 2.36853 707.359 0.666226C704.287 6.33033 701.275 12.3547 697.683 18.0863C696.608 19.8268 694.115 20.6921 692.283 21.9538C696.306 27.3305 689.944 38.717 679.247 43.1609L685.319 42.4664C684.348 51.6911 679.31 57.8462 669.551 60.8376L674.657 62.6967C669.447 67.6784 665.175 73.1443 659.738 76.8779C657.753 78.2173 656.056 79.9397 654.745 81.9442C653.435 83.9486 652.539 86.1947 652.108 88.5504C651.11 91.5797 649.873 94.5251 648.409 97.3589C647.542 96.2645 647.107 95.9147 647.159 95.7752C649.971 86.2721 651.105 76.3518 650.51 66.4595C650.582 63.8436 651.137 61.2635 652.147 58.8493C652.496 57.8772 653.994 57.3143 654.903 56.6227L658.129 39.6219L660.081 39.8159Z" fill="#6366F1"/>
    <path d="M894.021 11.1335L888.96 22.6566C879.279 15.6587 868.899 12.5797 857.539 14.2592C853.846 14.7074 850.316 16.0441 847.253 18.1546C839.322 24.3128 840.255 33.8298 849.445 37.9585C855.627 40.7577 862.438 42.0873 868.923 44.2333C874.092 45.7661 879.15 47.6522 884.061 49.8782C892.319 53.9603 897.194 60.8415 896.867 70.242C896.917 74.7609 895.697 79.2029 893.346 83.0627C890.996 86.9225 887.609 90.0451 883.571 92.0752C865.307 101.849 838.599 97.207 825.746 81.7417C827.379 79.0126 828.988 76.1901 830.714 73.4143C831.295 72.766 831.962 72.2009 832.697 71.7348C842.028 83.0014 854.74 85.334 868.456 83.7945C871.716 83.461 874.859 82.3922 877.647 80.6687C885.811 75.3504 885.414 64.8303 876.55 60.8415C869.552 57.6692 861.808 56.1763 854.39 53.8437C845.293 51.0679 835.869 48.362 831.251 39.1249C829.669 35.9234 828.784 32.4228 828.656 28.8542C828.527 25.2857 829.157 21.7304 830.504 18.4234C831.851 15.1163 833.885 12.1327 836.47 9.66979C839.056 7.20684 842.135 5.32057 845.503 4.13563C853.529 1.14491 862.178 0.218385 870.656 1.4411C879.133 2.66382 887.168 5.9966 894.021 11.1335Z" fill="#6366F1"/>
    <path d="M619.379 96.4138C616.652 96.2722 613.919 96.2722 611.192 96.4138C606.923 96.927 604.964 94.9676 603.284 91.2121C593.837 69.8687 584.11 48.6419 574.43 27.3917C573.567 25.479 572.494 23.6596 571.071 20.9537C563.093 38.565 555.442 55.4531 547.745 72.2712C545.692 76.7732 543.523 81.2285 541.517 85.7538C536.362 97.4169 536.385 97.4168 522.506 95.644C528.827 81.8116 535.055 68.1425 541.307 54.4967C548.678 38.425 555.956 22.3066 563.63 6.3982C565.088 4.07592 567.386 2.40506 570.044 1.73297C573.31 0.916559 576.692 1.00987 578.675 5.44184C592.041 35.1127 605.687 64.6669 619.216 94.2678C619.366 94.9726 619.421 95.6944 619.379 96.4138Z" fill="#6366F1"/>
    <path d="M474.197 95.994H460.202V14.3525H429.201V1.98962H505.011V14.0726H474.197V95.994Z" fill="#6366F1"/>
    <path d="M0 1.66302H12.9927V83.6078H63.1672V95.854H0V1.66302Z" fill="#5C5C5C"/>
    <path d="M735.249 15.8453V3.99564H798.043V15.8453H735.249Z" fill="#6366F1"/>
    <path d="M798.253 86.1503V98H735.459V86.1503H798.253Z" fill="#6366F1"/>
    <path d="M735.622 55.873C733.873 43.6501 733.873 43.6501 745.186 43.6501H798.229V55.873H735.622Z" fill="#6366F1"/>
</svg>
