<svg width="106" height="170" viewBox="0 0 106 170" fill="none" xmlns="http://www.w3.org/2000/svg">
    <path d="M23.2028 69.1854C25.9056 74.8706 25.5097 73.9445 26.6777 76.3201C23.8873 57.6224 46.0622 30.5336 47.2029 35.4311C48.3436 40.3286 47.2029 47.3937 50.8599 40.3286C54.5169 33.2635 78.1112 3.88983 105.64 0.921592C102 11.5 93.7314 23.7036 86 33.5L79.3523 38.04C79.3523 38.04 75.2732 67.2694 56.6223 75.018C56.6223 75.018 67.5 71.5003 67.2084 73.8071C66.9169 76.1138 56.7307 100.624 39.7146 105.84L48.6177 109.082C39.5344 117.768 32.084 127.299 22.6051 133.809C19.1437 136.145 16.1838 139.148 13.8991 142.643C11.6145 146.138 10.0512 150.054 9.30108 154.162C7.55965 159.444 5.40247 164.58 2.84978 169.521C1.33803 167.613 0.580644 167.003 0.671777 166.76C5.57411 150.19 7.53694 132.749 6.5 115.5C6.62523 110.939 6.2393 105.21 8 101C8.60876 99.305 12.5894 99.6967 14.1733 98.4908L19.7983 68.8472C19.7983 68.8472 20.5 63.5003 23.2028 69.1854Z" fill="#6366F1"/>
</svg>
