<svg width="106" height="170" viewBox="0 0 106 170" fill="none" xmlns="http://www.w3.org/2000/svg">
    <path d="M23.2028 69.1852C24.3417 71.5686 25.5097 73.9442 26.6777 76.3198C23.8873 57.6222 35.8295 46.8879 47.2029 35.4308C48.5745 37.2829 49.6305 38.6569 50.8599 40.3283C53.3736 21.2411 78.1112 3.88954 105.64 0.921304C100.283 10.7976 95.0318 21.302 88.7686 31.2961C86.8932 34.3309 82.5456 35.8398 79.3523 38.0397C86.3662 47.4149 75.2732 67.2691 56.6223 75.0177L67.2084 73.8068C65.5159 89.8916 56.7307 100.624 39.7146 105.84L48.6177 109.082C39.5344 117.768 32.084 127.299 22.6052 133.809C19.1437 136.144 16.1838 139.148 13.8992 142.643C11.6145 146.138 10.0512 150.054 9.30109 154.162C7.55966 159.444 5.40246 164.58 2.84977 169.521C1.33802 167.613 0.580635 167.003 0.671768 166.759C5.5741 150.189 7.55117 132.892 6.51423 115.643C6.63945 111.081 7.60676 106.583 9.36746 102.373C9.97622 100.678 12.5895 99.6965 14.1733 98.4905L19.7983 68.8469L23.2028 69.1852Z" fill="#6366F1"/>
</svg>
