<svg width="120" height="14" viewBox="0 0 120 14" fill="none" xmlns="http://www.w3.org/2000/svg">
    <g clip-path="url(#clip0_1500_27799)">
        <path d="M42.1275 1.55518H43.5349C44.3587 2.91889 45.1918 4.27657 46.0126 5.6554C46.8333 7.03423 47.6384 8.39795 48.509 9.88866L53.2617 1.61868H54.9187V13.7682H53.2617V5.62214C53.2617 5.62574 49.2455 11.9055 49.2455 11.9055C48.8523 12.5405 48.1939 12.5496 47.7976 11.9055C46.5493 9.86447 45.326 7.80831 43.9032 5.7824V13.7893H42.1275V1.55518Z" fill="#5C5C5C"/>
        <path d="M33.0397 13.9309C29.2358 13.8764 26.4304 11.1641 26.5271 7.6354C26.6239 4.10668 29.4324 1.46694 33.124 1.51229C36.9405 1.56067 39.7302 4.21251 39.6928 7.7624C39.6554 11.3123 36.7969 13.9823 33.0397 13.9309ZM33.1053 3.18443C30.406 3.18443 28.3278 5.14685 28.3371 7.70193C28.3371 10.3296 30.3405 12.2376 33.0772 12.2376C35.8139 12.2376 37.8329 10.3417 37.8547 7.7231C37.8797 5.17406 35.8108 3.1935 33.1053 3.18443Z" fill="#5C5C5C"/>
        <path d="M17.4762 13.9515C13.6754 13.9363 10.8575 11.2482 10.9231 7.68323C10.9886 4.11821 13.7815 1.50569 17.5043 1.51173C21.2271 1.51778 24.1043 4.25428 24.0793 7.79208C24.0543 11.3299 21.2021 13.9667 17.4762 13.9515ZM17.4762 12.2733C20.2098 12.2733 22.2195 10.3744 22.2413 7.73765C22.2631 5.10093 20.2191 3.20201 17.495 3.20201C14.7707 3.20201 12.7143 5.15838 12.7111 7.73765C12.708 10.3169 14.7457 12.2703 17.4606 12.2733H17.4762Z" fill="#5C5C5C"/>
        <path d="M88.4785 5.67869C88.575 5.87433 88.674 6.06932 88.7728 6.26431C88.5366 4.72962 89.5481 3.84857 90.5114 2.90819C90.6277 3.0602 90.7172 3.17298 90.8213 3.31017C91.0342 1.7435 93.1296 0.319313 95.4615 0.0756836C95.0077 0.886318 94.5629 1.74851 94.0324 2.56881C93.8736 2.8179 93.5053 2.94175 93.2348 3.12232C93.8289 3.89181 92.8892 5.52143 91.3094 6.15743L92.2061 6.05803C92.0627 7.37826 91.3185 8.25917 89.8772 8.68728L90.6313 8.95336C89.8619 9.66632 89.2309 10.4486 88.428 10.9829C88.1347 11.1746 87.884 11.4211 87.6904 11.708C87.497 11.9949 87.3645 12.3163 87.301 12.6535C87.1534 13.0871 86.9707 13.5085 86.7545 13.9141C86.6265 13.7575 86.5623 13.7075 86.57 13.6875C86.9853 12.3274 87.1528 10.9076 87.0649 9.49187C87.0756 9.11749 87.1574 8.74823 87.3066 8.40272C87.3581 8.26359 87.5795 8.18302 87.7137 8.08405L88.1901 5.65093L88.4785 5.67869Z" fill="#FE6B6C"/>
        <path d="M119.601 2.73934L118.924 4.23308C117.629 3.32596 116.241 2.92682 114.721 3.14453C114.227 3.20264 113.755 3.3759 113.345 3.6495C112.284 4.44777 112.409 5.68146 113.638 6.21667C114.465 6.57952 115.376 6.75187 116.244 7.03006C116.935 7.22876 117.612 7.47325 118.269 7.76181C119.374 8.29097 120.026 9.18297 119.982 10.4016C119.989 10.9873 119.826 11.5632 119.511 12.0635C119.197 12.5639 118.744 12.9686 118.203 13.2318C115.76 14.4988 112.187 13.897 110.468 11.8923C110.686 11.5385 110.901 11.1726 111.132 10.8128C111.21 10.7288 111.299 10.6555 111.398 10.5951C112.646 12.0556 114.346 12.3579 116.181 12.1584C116.617 12.1151 117.038 11.9766 117.411 11.7532C118.503 11.0638 118.45 9.70004 117.264 9.18297C116.328 8.77175 115.292 8.57823 114.3 8.27585C113.083 7.91603 111.822 7.56526 111.204 6.36786C110.992 5.95286 110.874 5.49907 110.857 5.03649C110.84 4.57389 110.924 4.11302 111.104 3.68433C111.284 3.25563 111.556 2.86888 111.902 2.54961C112.248 2.23034 112.66 1.98582 113.111 1.83222C114.184 1.44453 115.342 1.32442 116.476 1.48292C117.61 1.64143 118.685 2.07345 119.601 2.73934Z" fill="#FE6B6C"/>
        <path d="M82.8601 13.7942C82.4952 13.7758 82.1296 13.7758 81.7648 13.7942C81.1937 13.8607 80.9316 13.6067 80.7069 13.1198C79.4431 10.3531 78.1418 7.6015 76.8468 4.84686C76.7314 4.5989 76.5878 4.36305 76.3974 4.01229C75.3302 6.29524 74.3066 8.48444 73.2769 10.6646C73.0023 11.2482 72.7121 11.8257 72.4437 12.4123C71.7541 13.9242 71.7572 13.9242 69.9005 13.6944C70.7461 11.9013 71.5793 10.1294 72.4156 8.36047C73.4017 6.27709 74.3754 4.18768 75.402 2.12547C75.597 1.82443 75.9045 1.60784 76.2601 1.52072C76.697 1.41489 77.1494 1.42698 77.4147 2.0015C79.2028 5.84772 81.0283 9.67883 82.8382 13.516C82.8583 13.6074 82.8657 13.7008 82.8601 13.7942Z" fill="#FE6B6C"/>
        <path d="M63.4377 13.7399H61.5655V3.15678H57.4182V1.5542H67.56V3.1205H63.4377V13.7399Z" fill="#FE6B6C"/>
        <path d="M0 1.51172H1.73815V12.1342H8.45046V13.7217H0V1.51172Z" fill="#5C5C5C"/>
        <path d="M98.3611 3.35053V1.81445H106.762V3.35053H98.3611Z" fill="#FE6B6C"/>
        <path d="M106.79 12.4639V13.9999H98.3892V12.4639H106.79Z" fill="#FE6B6C"/>
        <path d="M98.411 8.53904C98.177 6.95459 98.177 6.95459 99.6904 6.95459H106.786V8.53904H98.411Z" fill="#FE6D6D"/>
    </g>
    <defs>
        <clipPath id="clip0_1500_27799">
            <rect width="120" height="14" fill="white"/>
        </clipPath>
    </defs>
</svg>
