<svg width="1088" height="1117" viewBox="0 0 1088 1117" fill="none" xmlns="http://www.w3.org/2000/svg">
    <path d="M1016.47 842.423C1044.84 895.671 1109.96 956.411 1079.82 1008.68C1044.7 1069.58 947.335 1045.45 883.031 1073.86C850.576 1088.19 824.467 1110.96 797.105 1133.55C752.825 1170.1 729.186 1240.74 672.216 1247.88C619.135 1254.54 580.265 1198.01 537.313 1166.12C491.216 1131.91 437.334 1104.61 410.693 1053.75C382.55 1000.04 350.922 926.384 385.672 876.675C425.372 819.883 520.175 847.89 579.562 812.186C614.343 791.276 619.582 741.489 651.729 716.72C691.402 686.152 735.206 653.602 785.287 653.676C837.166 653.754 884.303 684.319 924.488 717.126C965.319 750.462 991.691 795.902 1016.47 842.423Z" fill="white" fill-opacity="0.7"/>
    <path d="M644.805 192.71C644.098 262.026 561.41 302.438 535.848 366.901C516.701 415.188 545.663 477.219 515.278 519.362C484.865 561.546 425.436 568.366 376.983 587.247C333.499 604.192 287.47 608.045 244.017 625.068C181.492 649.564 130.94 715.394 64.0462 709.847C0.668665 704.591 -51.3851 650.152 -87.1445 597.605C-121.805 546.673 -126.158 482.111 -132.639 420.826C-138.415 366.206 -120.681 313.252 -123.019 258.374C-125.988 188.675 -179.727 115.602 -148.296 53.2811C-118.141 -6.50885 -34.2299 -12.5607 27.1422 -39.3628C83.8509 -64.1284 142.276 -119.949 200.465 -99.0281C267.083 -75.0765 260.751 42.6825 326.726 68.348C394.481 94.7057 471.549 6.29608 539.258 32.7689C599.518 56.3294 645.465 127.997 644.805 192.71Z" fill="white" fill-opacity="0.7"/>
</svg>
