<svg id="Layer_1" data-name="Layer 1" xmlns="http://www.w3.org/2000/svg" viewBox="0 0 855.95 141.98"><defs><style>.cls-1{fill:#ca4535;}.cls-2{fill:#f38c20;}.cls-3{fill:#ca4635;}.cls-4{fill:#c94433;}.cls-5{fill:#f2bc45;}.cls-6{fill:#fbfbfb;}</style></defs><path class="cls-1" d="M118.85,316.58c-14.64-.23-30-7.22-43.49-18.9-2.2-1.91-2.62-3.27-.48-5.68,4.82-5.43,9.33-11.16,13.93-16.79,1.71-2.09,2.67-3.36,5.64-.61,8.64,8,18.59,13.55,30.94,13,3.08-.13,6-.62,8.66-2.45a9.62,9.62,0,0,0,1.5-14.92c-4.15-4.28-9.69-6.06-15-8.22-8.9-3.61-18-6.74-26.15-12-24.1-15.54-21.23-49.95.71-64.19,18.29-11.86,37.25-9.61,56.22-1.62,5.33,2.24,10,5.55,14.73,8.91,2.22,1.59,2.21,2.77.59,4.83-4.83,6.1-9.47,12.35-14.14,18.58-1.56,2.09-2.9,2-4.95.42-6.29-5-13.16-8.88-21.19-10.27a18.86,18.86,0,0,0-5-.32c-4.64.45-8.72,2.15-10.21,7s.85,9,4.5,12.07,7.9,4.5,12.2,6c7.61,2.73,15.3,5.2,22.6,8.75,15.06,7.31,22,19.57,21.48,36-.5,16.09-9,27.24-23.16,34.17C140.47,314.42,131.63,316.64,118.85,316.58Z" transform="translate(-73.47 -174.6)"/><path class="cls-2" d="M571.1,286.49c0-7.62-.35-15.26.07-22.86,1.16-20.6,15.55-37.28,36.51-42.76,18-4.7,39,3.66,49.79,19.53a47.31,47.31,0,0,1,8.35,27.15c.07,14.23-.07,28.46.09,42.69,0,3.2-.67,4.51-4.15,4.38-6.94-.26-13.9-.25-20.84,0-3.43.12-4.29-1.06-4.25-4.36.16-13.72.23-27.45,0-41.17-.19-12.21-7-19.85-17.53-20.26-9.71-.38-18.25,6.28-18.75,16.08-.73,14.19-.36,28.44-.51,42.67-.08,8,1.09,6.87-7,6.95-6.1.06-12.21-.14-18.3.07-2.92.11-3.76-.84-3.7-3.71.17-8.13.06-16.26.06-24.4Z" transform="translate(-73.47 -174.6)"/><path class="cls-3" d="M705.51,265.39c.66-17.06,9.64-32.32,27.67-40.88,17.58-8.35,34.78-6.19,50.6,5.64a45.3,45.3,0,0,1,8.57,8.54c1.49,1.88,1.17,2.62-.67,3.84-6.07,4-12.1,8.09-18,12.39-2.59,1.89-4.09,2-6.6-.52a18.63,18.63,0,0,0-22.4-3.28c-7.46,4.11-11,11.66-9.75,20.61,1,7.26,7.75,14,15.59,15.42,6.2,1.11,11.86-.38,16.31-4.89,2.15-2.17,3.42-2.2,5.79-.26a150.47,150.47,0,0,0,15.84,11.63c4.42,2.74,3.73,4.86.7,8a49.2,49.2,0,0,1-53.34,11.42C717.55,305.63,705.58,288,705.51,265.39Z" transform="translate(-73.47 -174.6)"/><path class="cls-4" d="M376.24,244.73c0,21.87-.08,43.73.08,65.6,0,3.57-.95,4.64-4.52,4.49-6.94-.27-13.9-.19-20.84,0-2.8.06-3.82-.68-3.81-3.66q.12-66.36,0-132.72c0-2.93.91-3.78,3.77-3.71,6.77.18,13.57.28,20.33,0,3.92-.18,5.14.86,5.1,5C376.13,201.34,376.24,223,376.24,244.73Z" transform="translate(-73.47 -174.6)"/><path class="cls-2" d="M451.71,245.27c0,21.69-.09,43.37.08,65,0,3.55-.9,4.68-4.49,4.52-6.6-.29-13.23-.34-19.82,0-4.07.22-5-1.11-5-5.06.14-40.32.09-80.63.09-121,0-3.72.08-7.45,0-11.18-.07-2.19.75-3,2.94-2.94,7.8.09,15.59.15,23.38,0,3.84-.08,2.83,2.54,2.83,4.5Q451.74,212.24,451.71,245.27Z" transform="translate(-73.47 -174.6)"/><path class="cls-5" d="M863.54,265.84c-.06,14.73-.26,29.47-.1,44.2,0,3.82-1,5-4.84,4.83-6.76-.3-13.55-.2-20.32,0-3,.08-4.16-.62-4.15-3.89q.14-66.3,0-132.59c0-2.94,1-3.77,3.82-3.7,6.94.16,13.9.31,20.83,0,4.13-.21,4.66,1.52,4.63,5-.14,14.57,0,29.13,0,43.7Q863.49,244.59,863.54,265.84Z" transform="translate(-73.47 -174.6)"/><path class="cls-3" d="M863.54,265.84q0-21.24-.1-42.49c16.91-6.08,32.85-4.64,47.37,6.43,11.74,8.94,17.9,21.08,18.39,35.67.5,14.89,0,29.8.2,44.7.07,3.94-1.2,4.91-4.91,4.74-6.43-.28-12.88-.28-19.3,0-3.87.17-5.29-.77-5.2-5,.29-13.54.12-27.09.11-40.64,0-11.93-6.39-19.41-17.3-20.32C873.26,248.14,865.6,254.87,863.54,265.84Z" transform="translate(-73.47 -174.6)"/><path class="cls-5" d="M526.88,268.54c0,14.08-.07,28.15.06,42.23,0,3-.6,4.2-3.89,4.09-7.12-.26-14.25-.18-21.37,0-2.7.05-3.9-.49-3.89-3.58q.15-43,0-86c0-3.19,1.36-3.56,4-3.52,7.13.12,14.26.23,21.37,0,3.35-.13,3.87,1.15,3.84,4.1C526.81,240.05,526.88,254.3,526.88,268.54Z" transform="translate(-73.47 -174.6)"/><path class="cls-1" d="M210.09,275.25c-2.18-19.89,4.61-35.95,21.17-47.3,22.79-15.62,54.15-8.24,68.26,15.72-2.77,0-5.13,1.34-7.66,2.15-7.29,2.32-14.12,6-21.78,7.22-13.65-8.56-26.69-3.57-31.25,12Z" transform="translate(-73.47 -174.6)"/><path class="cls-3" d="M245.37,282.59c7.67,7.71,24,6.64,29.9-6,.93-2,1.61-2.59,3.66-1.91,7.39,2.42,14.8,4.82,22.25,7.06,2.72.81,2.8,1.91,1.8,4.39-13.24,32.77-56.18,40.9-80.43,15.09-2.18-2.32-3.82-5.14-5.71-7.73C226,289,235.89,286.31,245.37,282.59Z" transform="translate(-73.47 -174.6)"/><path class="cls-5" d="M245.37,282.59c-9.48,3.72-19.35,6.4-28.53,10.89-3.63-5.57-6.23-11.51-6.75-18.23L238.83,265c6.33-2.2,12.77-4.11,18.94-6.7,4.1-1.73,8.84-2,12.31-5.25,7.66-1.19,14.49-4.9,21.78-7.22,2.53-.81,4.89-2.19,7.66-2.15l-.15,0,.76,1a40.89,40.89,0,0,1,2.83,4.74c4.39,10.25,4,11-6.47,14.75C279.43,270.22,262.41,276.43,245.37,282.59Z" transform="translate(-73.47 -174.6)"/><path class="cls-1" d="M528.51,193.77a16.23,16.23,0,0,1-16,16.3A16.48,16.48,0,0,1,496,193.68a16.29,16.29,0,0,1,16.68-16.17A15.78,15.78,0,0,1,528.51,193.77Z" transform="translate(-73.47 -174.6)"/><path class="cls-1" d="M300.13,244.62l-.76-1Z" transform="translate(-73.47 -174.6)"/><path class="cls-6" d="M270.08,253c-3.47,3.22-8.21,3.52-12.31,5.25-6.17,2.59-12.61,4.5-18.94,6.7C243.39,249.47,256.43,244.48,270.08,253Z" transform="translate(-73.47 -174.6)"/></svg>