<svg width="500" height="500" viewBox="0 0 500 500" fill="none" xmlns="http://www.w3.org/2000/svg">
    <path d="M500 382.4H0V382.65H500V382.4Z" fill="#EBEBEB"/>
    <path d="M449.9 398.49H416.78V398.74H449.9V398.49Z" fill="#EBEBEB"/>
    <path d="M331.22 401.21H322.53V401.46H331.22V401.21Z" fill="#EBEBEB"/>
    <path d="M415.78 389.21H396.59V389.46H415.78V389.21Z" fill="#EBEBEB"/>
    <path d="M95.65 390.89H52.46V391.14H95.65V390.89Z" fill="#EBEBEB"/>
    <path d="M110.89 390.89H104.56V391.14H110.89V390.89Z" fill="#EBEBEB"/>
    <path d="M225.15 395.11H131.47V395.36H225.15V395.11Z" fill="#EBEBEB"/>
    <path d="M237 337.8H43.91C42.3973 337.797 40.9475 337.195 39.8788 336.124C38.8102 335.053 38.21 333.603 38.21 332.09V60.66C38.2231 59.156 38.8292 57.718 39.8964 56.6582C40.9637 55.5985 42.4059 55.0026 43.91 55H237C238.514 55 239.967 55.6016 241.038 56.6724C242.108 57.7433 242.71 59.1956 242.71 60.71V332.09C242.71 333.604 242.108 335.057 241.038 336.128C239.967 337.198 238.514 337.8 237 337.8ZM43.91 55.2C42.4636 55.2026 41.0774 55.7791 40.0556 56.8027C39.0338 57.8264 38.46 59.2136 38.46 60.66V332.09C38.46 333.536 39.0338 334.924 40.0556 335.947C41.0774 336.971 42.4636 337.547 43.91 337.55H237C238.447 337.547 239.834 336.971 240.858 335.948C241.881 334.924 242.457 333.537 242.46 332.09V60.66C242.457 59.2127 241.881 57.8255 240.858 56.8021C239.834 55.7787 238.447 55.2026 237 55.2H43.91Z" fill="#EBEBEB"/>
    <path d="M453.31 337.8H260.21C258.696 337.797 257.246 337.195 256.175 336.125C255.105 335.054 254.503 333.604 254.5 332.09V60.66C254.516 59.1551 255.124 57.7171 256.193 56.6576C257.262 55.5981 258.705 55.0025 260.21 55H453.31C454.812 55.0052 456.252 55.6022 457.317 56.6617C458.382 57.7212 458.987 59.1578 459 60.66V332.09C459 333.601 458.401 335.05 457.335 336.121C456.268 337.191 454.821 337.795 453.31 337.8ZM260.21 55.2C258.763 55.2026 257.375 55.7787 256.352 56.8021C255.329 57.8255 254.753 59.2127 254.75 60.66V332.09C254.753 333.537 255.329 334.924 256.352 335.948C257.375 336.971 258.763 337.547 260.21 337.55H453.31C454.757 337.547 456.145 336.971 457.168 335.948C458.191 334.924 458.767 333.537 458.77 332.09V60.66C458.767 59.2127 458.191 57.8255 457.168 56.8021C456.145 55.7787 454.757 55.2026 453.31 55.2H260.21Z" fill="#EBEBEB"/>
    <path d="M242.34 173.88H100.36V382.05H242.34V173.88Z" fill="#F0F0F0"/>
    <path d="M237.32 180.43H105.37V218.88H237.32V180.43Z" fill="#E0E0E0"/>
    <path d="M112.87 186.65H105.37V218.87H112.87V186.65Z" fill="#EBEBEB"/>
    <path d="M149.12 186.65H141.62V218.87H149.12V186.65Z" fill="#EBEBEB"/>
    <path d="M190.262 185.841L182.871 187.115L188.344 218.867L195.735 217.593L190.262 185.841Z" fill="#EBEBEB"/>
    <path d="M122.16 190.9H114.66V218.88H122.16V190.9Z" fill="#EBEBEB"/>
    <path d="M139.39 190.9H131.89V218.88H139.39V190.9Z" fill="#EBEBEB"/>
    <path d="M182.88 190.9H175.38V218.88H182.88V190.9Z" fill="#EBEBEB"/>
    <path d="M158.971 189.929L151.65 191.556L157.72 218.87L165.042 217.243L158.971 189.929Z" fill="#EBEBEB"/>
    <path d="M128.64 185.05H124.89V218.87H128.64V185.05Z" fill="#EBEBEB"/>
    <path d="M173.22 185.05H169.47V218.87H173.22V185.05Z" fill="#EBEBEB"/>
    <path d="M105.38 263.42H237.33V224.97H105.38V263.42Z" fill="#E0E0E0"/>
    <path d="M229.82 263.41H237.32V231.19H229.82V263.41Z" fill="#EBEBEB"/>
    <path d="M193.58 263.41H201.08V231.19H193.58V263.41Z" fill="#EBEBEB"/>
    <path d="M146.967 262.13L154.358 263.404L159.831 231.652L152.44 230.378L146.967 262.13Z" fill="#EBEBEB"/>
    <path d="M220.53 263.42H228.03V235.44H220.53V263.42Z" fill="#EBEBEB"/>
    <path d="M203.31 263.42H210.81V235.44H203.31V263.42Z" fill="#EBEBEB"/>
    <path d="M159.82 263.42H167.32V235.44H159.82V263.42Z" fill="#EBEBEB"/>
    <path d="M177.683 261.785L185.004 263.412L191.074 236.099L183.753 234.472L177.683 261.785Z" fill="#EBEBEB"/>
    <path d="M214.05 263.41H217.8V229.59H214.05V263.41Z" fill="#EBEBEB"/>
    <path d="M169.48 263.41H173.23V229.59H169.48V263.41Z" fill="#EBEBEB"/>
    <path d="M112.87 231.19H105.37V263.41H112.87V231.19Z" fill="#EBEBEB"/>
    <path d="M122.16 235.43H114.66V263.41H122.16V235.43Z" fill="#EBEBEB"/>
    <path d="M139.39 235.43H131.89V263.41H139.39V235.43Z" fill="#EBEBEB"/>
    <path d="M128.64 229.59H124.89V263.41H128.64V229.59Z" fill="#EBEBEB"/>
    <path d="M237.32 269.5H105.37V307.95H237.32V269.5Z" fill="#E0E0E0"/>
    <path d="M188.61 275.72H181.11V307.94H188.61V275.72Z" fill="#EBEBEB"/>
    <path d="M229.758 274.908L222.367 276.182L227.84 307.934L235.231 306.66L229.758 274.908Z" fill="#EBEBEB"/>
    <path d="M161.65 279.97H154.15V307.95H161.65V279.97Z" fill="#EBEBEB"/>
    <path d="M178.88 279.97H171.38V307.95H178.88V279.97Z" fill="#EBEBEB"/>
    <path d="M222.37 279.97H214.87V307.95H222.37V279.97Z" fill="#EBEBEB"/>
    <path d="M198.464 279L191.143 280.627L197.213 307.941L204.535 306.314L198.464 279Z" fill="#EBEBEB"/>
    <path d="M168.13 274.12H164.38V307.94H168.13V274.12Z" fill="#EBEBEB"/>
    <path d="M212.71 274.12H208.96V307.94H212.71V274.12Z" fill="#EBEBEB"/>
    <path d="M143.521 274.916L136.13 276.19L141.603 307.942L148.994 306.668L143.521 274.916Z" fill="#EBEBEB"/>
    <path d="M136.13 279.97H128.63V307.95H136.13V279.97Z" fill="#EBEBEB"/>
    <path d="M112.228 279L104.907 280.627L110.977 307.941L118.299 306.314L112.228 279Z" fill="#EBEBEB"/>
    <path d="M126.48 274.12H122.73V307.94H126.48V274.12Z" fill="#EBEBEB"/>
    <path d="M75.8601 382.59H100.36L100.36 173.88H75.8601L75.8601 382.59Z" fill="#E0E0E0"/>
    <path d="M325.44 377.14H304.63L315.57 288C315.832 286.138 316.747 284.429 318.152 283.178C319.557 281.927 321.36 281.216 323.24 281.17H414L400.69 377.1L325.44 377.14Z" fill="#F5F5F5"/>
    <path d="M391.44 377.14H412.25L423.2 288C423.334 287.143 423.277 286.267 423.035 285.435C422.793 284.602 422.371 283.833 421.798 283.181C421.226 282.529 420.517 282.012 419.723 281.664C418.928 281.317 418.067 281.148 417.2 281.17H410.05C408.173 281.227 406.376 281.943 404.974 283.192C403.572 284.44 402.654 286.142 402.38 288L391.44 377.14Z" fill="#F0F0F0"/>
    <path d="M383.78 377L387.55 333.9C387.629 332.965 388.027 332.086 388.677 331.409C389.327 330.732 390.189 330.298 391.12 330.18L392.67 329.98C393.921 329.823 395.08 329.241 395.953 328.33C396.825 327.42 397.357 326.237 397.46 324.98L398.15 317.12C398.218 316.358 398.127 315.59 397.882 314.865C397.637 314.141 397.243 313.475 396.727 312.91C396.21 312.346 395.582 311.895 394.882 311.587C394.182 311.279 393.425 311.12 392.66 311.12H427.44C428.205 311.12 428.962 311.279 429.662 311.587C430.362 311.895 430.99 312.346 431.507 312.91C432.023 313.475 432.417 314.141 432.662 314.865C432.907 315.59 432.998 316.358 432.93 317.12L432.24 324.98C432.137 326.237 431.605 327.42 430.733 328.33C429.86 329.241 428.701 329.823 427.45 329.98L425.9 330.18C424.97 330.3 424.108 330.734 423.459 331.411C422.81 332.087 422.411 332.966 422.33 333.9L418.56 377C418.425 378.515 417.729 379.924 416.607 380.951C415.486 381.978 414.021 382.548 412.5 382.55H377.72C379.241 382.548 380.706 381.978 381.827 380.951C382.949 379.924 383.645 378.515 383.78 377Z" fill="#E6E6E6"/>
    <path d="M288.06 323.15C287.784 319.878 286.29 316.829 283.873 314.607C281.456 312.385 278.293 311.151 275.01 311.15H305.29C308.565 311.163 311.716 312.403 314.122 314.624C316.528 316.845 318.015 319.887 318.29 323.15L321.29 357.31H291.05L288.06 323.15Z" fill="#E6E6E6"/>
    <path d="M261.56 311.19H275C278.283 311.191 281.446 312.425 283.863 314.647C286.28 316.869 287.774 319.918 288.05 323.19L291.05 357.35H363.17L366.17 323.19C366.443 319.926 367.929 316.883 370.336 314.661C372.743 312.44 375.895 311.201 379.17 311.19H392.62C393.385 311.19 394.142 311.349 394.842 311.657C395.542 311.965 396.17 312.416 396.687 312.98C397.203 313.545 397.597 314.211 397.842 314.935C398.087 315.66 398.178 316.428 398.11 317.19L397.42 325.05C397.317 326.307 396.785 327.49 395.913 328.4C395.04 329.311 393.881 329.893 392.63 330.05L391.08 330.25C390.149 330.368 389.287 330.802 388.637 331.479C387.987 332.156 387.59 333.035 387.51 333.97L383.78 377C383.645 378.515 382.949 379.924 381.827 380.951C380.706 381.978 379.241 382.548 377.72 382.55H276.5C274.979 382.548 273.514 381.978 272.393 380.951C271.271 379.924 270.575 378.515 270.44 377L266.67 333.9C266.587 332.966 266.188 332.089 265.539 331.412C264.89 330.736 264.029 330.301 263.1 330.18L261.55 329.98C260.298 329.822 259.139 329.239 258.265 328.329C257.392 327.419 256.857 326.237 256.75 324.98L256.07 317.12C256.012 316.364 256.111 315.603 256.361 314.887C256.61 314.171 257.005 313.513 257.521 312.957C258.036 312.4 258.661 311.956 259.356 311.652C260.051 311.348 260.801 311.19 261.56 311.19Z" fill="#F0F0F0"/>
    <path d="M102.16 163.48C102.16 163.48 101.05 156.17 106.38 151.48C111.71 146.79 111.24 144.01 109.71 143.65C108.18 143.29 106.79 147.97 104.45 149.26C104.45 149.26 104.37 142.58 106.75 140.13C109.13 137.68 110.38 131.33 108.11 131.22C105.84 131.11 105.62 134.98 105.11 137.73C104.6 140.48 102.11 144.34 102.11 144.34C102.11 144.34 101.62 138.34 100.11 135.91C98.5999 133.48 102.67 127.83 101.11 125.38C99.5499 122.93 96.7199 127.6 96.9499 132.87C97.1799 138.14 100.7 143.76 99.8799 149.26C99.8799 149.26 98.3299 145.39 96.9399 145.04C95.5499 144.69 94.1399 142.14 93.2099 141.19C92.2799 140.24 91.0999 143.52 93.2099 146.56C95.3199 149.6 100.7 157.75 99.8799 164.33L102.16 163.48Z" fill="#E6E6E6"/>
    <path d="M105.34 160.15L107.09 171.1C107.216 171.895 107.168 172.708 106.949 173.483C106.73 174.257 106.347 174.975 105.824 175.587C105.301 176.199 104.652 176.691 103.921 177.028C103.19 177.365 102.395 177.54 101.59 177.54H99.73C98.9251 177.54 98.1298 177.365 97.3989 177.028C96.668 176.691 96.0188 176.199 95.4961 175.587C94.9733 174.975 94.5895 174.257 94.3709 173.483C94.1523 172.708 94.1043 171.895 94.23 171.1L96 160.15H105.34Z" fill="#E6E6E6"/>
    <path d="M210.05 175.4H215.48V152.05H210.05V175.4Z" fill="#EBEBEB"/>
    <path d="M183.79 175.4H189.22V152.05H183.79V175.4Z" fill="#EBEBEB"/>
    <path d="M150.014 174.472L155.365 175.394L159.332 152.384L153.981 151.461L150.014 174.472Z" fill="#EBEBEB"/>
    <path d="M203.32 175.39H208.75V155.12H203.32V175.39Z" fill="#EBEBEB"/>
    <path d="M190.84 175.39H196.27V155.12H190.84V175.39Z" fill="#EBEBEB"/>
    <path d="M159.32 175.39H164.75V155.12H159.32V175.39Z" fill="#EBEBEB"/>
    <path d="M172.27 174.214L177.571 175.392L181.969 155.605L176.668 154.427L172.27 174.214Z" fill="#EBEBEB"/>
    <path d="M198.62 175.4H201.34V150.89H198.62V175.4Z" fill="#EBEBEB"/>
    <path d="M166.31 175.4H169.03V150.89H166.31V175.4Z" fill="#EBEBEB"/>
    <path d="M146.95 156.86H120.48V175.13H146.95V156.86Z" fill="#EBEBEB"/>
    <path d="M237.73 164.34H215.56V177.98H237.73V164.34Z" fill="#EBEBEB"/>
    <path d="M232.55 152.35H221.46V165.99H232.55V152.35Z" fill="#EBEBEB"/>
    <path d="M417.81 134.3H391.44V244.18H417.81V134.3Z" fill="#E0E0E0"/>
    <path d="M316.36 244.48H414.98V134.31H316.36V244.48Z" fill="#E0E0E0"/>
    <path d="M313.18 244.48H415.5V134.31H313.18V244.48Z" fill="#F0F0F0"/>
    <path d="M317.56 239.41H411.3V137.81H317.56V239.41Z" fill="white"/>
    <path d="M317.55 239.41H319.29V137.81H317.55V239.41Z" fill="#E0E0E0"/>
    <path d="M319.01 210.88V213.62H411.55V210.88H319.01Z" fill="#E0E0E0"/>
    <path d="M317.55 210.87H412.76V206.27H317.55V210.87Z" fill="#F0F0F0"/>
    <path d="M250 427.56C357.083 427.56 443.89 422.492 443.89 416.24C443.89 409.988 357.083 404.92 250 404.92C142.918 404.92 56.1101 409.988 56.1101 416.24C56.1101 422.492 142.918 427.56 250 427.56Z" fill="#F5F5F5"/>
    <path d="M321.95 152.82H143.04C138.997 152.82 135.72 156.097 135.72 160.14V370.8C135.72 374.843 138.997 378.12 143.04 378.12H321.95C325.993 378.12 329.27 374.843 329.27 370.8V160.14C329.27 156.097 325.993 152.82 321.95 152.82Z" fill="#3561EB"/>
    <path opacity="0.6" d="M321.95 152.82H143.04C138.997 152.82 135.72 156.097 135.72 160.14V370.8C135.72 374.843 138.997 378.12 143.04 378.12H321.95C325.993 378.12 329.27 374.843 329.27 370.8V160.14C329.27 156.097 325.993 152.82 321.95 152.82Z" fill="white"/>
    <path d="M297.92 256.15H167.08V278.55H297.92V256.15Z" fill="white"/>
    <g opacity="0.4">
        <path d="M178.78 269.53V270.12H174.24V263.7H178.64V264.28H174.92V266.57H178.24V267.14H174.92V269.53H178.78Z" fill="#263238"/>
        <path d="M179.69 267.35H182.1V267.91H179.69V267.35Z" fill="#263238"/>
        <path d="M191.51 267.32V270.12H190.86V267.38C190.86 266.38 190.35 265.84 189.48 265.84C189.254 265.83 189.029 265.868 188.82 265.954C188.612 266.04 188.424 266.17 188.27 266.336C188.117 266.501 188.002 266.699 187.933 266.914C187.863 267.129 187.842 267.356 187.87 267.58V270.12H187.21V267.38C187.21 266.38 186.7 265.84 185.82 265.84C185.595 265.83 185.369 265.868 185.16 265.954C184.952 266.04 184.764 266.17 184.61 266.336C184.457 266.501 184.342 266.699 184.273 266.914C184.203 267.129 184.182 267.356 184.21 267.58V270.12H183.55V265.29H184.18V266.17C184.369 265.875 184.632 265.635 184.942 265.474C185.253 265.312 185.6 265.235 185.95 265.25C186.303 265.22 186.657 265.3 186.963 265.479C187.27 265.658 187.513 265.927 187.66 266.25C187.86 265.928 188.142 265.665 188.478 265.489C188.814 265.313 189.191 265.231 189.57 265.25C189.841 265.229 190.114 265.27 190.368 265.369C190.622 265.467 190.85 265.622 191.036 265.82C191.222 266.019 191.361 266.257 191.443 266.516C191.525 266.776 191.548 267.051 191.51 267.32Z" fill="#263238"/>
        <path d="M196.93 267.12V270.12H196.3V269.36C196.121 269.631 195.872 269.848 195.58 269.989C195.288 270.129 194.963 270.189 194.64 270.16C193.55 270.16 192.88 269.59 192.88 268.76C192.88 267.93 193.36 267.39 194.74 267.39H196.27V267.1C196.27 266.27 195.81 265.82 194.91 265.82C194.323 265.813 193.752 266.015 193.3 266.39L193.01 265.91C193.575 265.456 194.285 265.221 195.01 265.25C195.265 265.219 195.524 265.246 195.768 265.328C196.011 265.41 196.233 265.546 196.418 265.725C196.602 265.905 196.743 266.123 196.832 266.364C196.921 266.606 196.954 266.864 196.93 267.12ZM196.27 268.67V267.88H194.76C193.83 267.88 193.52 268.24 193.52 268.74C193.52 269.24 193.97 269.65 194.74 269.65C195.066 269.672 195.391 269.588 195.666 269.412C195.941 269.235 196.153 268.975 196.27 268.67Z" fill="#263238"/>
        <path d="M198.55 263.77C198.551 263.708 198.565 263.647 198.59 263.591C198.614 263.534 198.65 263.483 198.695 263.441C198.739 263.398 198.792 263.364 198.849 263.342C198.907 263.32 198.968 263.309 199.03 263.31C199.09 263.309 199.151 263.319 199.207 263.341C199.263 263.363 199.315 263.396 199.358 263.438C199.402 263.479 199.437 263.529 199.461 263.585C199.486 263.64 199.499 263.7 199.5 263.76C199.501 263.823 199.49 263.885 199.467 263.943C199.444 264.001 199.41 264.054 199.366 264.099C199.322 264.144 199.27 264.179 199.212 264.203C199.155 264.228 199.093 264.24 199.03 264.24C198.967 264.241 198.905 264.23 198.847 264.207C198.789 264.184 198.736 264.15 198.691 264.106C198.647 264.062 198.611 264.01 198.587 263.952C198.563 263.895 198.55 263.833 198.55 263.77ZM198.7 265.29H199.35V270.12H198.7V265.29Z" fill="#263238"/>
        <path d="M201.16 263.31H201.81V270.12H201.16V263.31Z" fill="#263238"/>
    </g>
    <path d="M297.92 286.75H167.08V309.15H297.92V286.75Z" fill="white"/>
    <g opacity="0.4">
        <path d="M179.26 296.53C179.26 297.9 178.26 298.73 176.64 298.73H174.92V300.73H174.24V294.31H176.64C178.27 294.33 179.26 295.16 179.26 296.53ZM178.58 296.53C178.58 295.53 177.91 294.92 176.58 294.92H174.88V298.13H176.58C177.91 298.13 178.58 297.54 178.58 296.53Z" fill="#263238"/>
        <path d="M184.19 297.76V300.76H183.56V300C183.381 300.271 183.132 300.488 182.84 300.629C182.548 300.769 182.223 300.829 181.9 300.8C180.81 300.8 180.14 300.23 180.14 299.39C180.14 298.55 180.62 298 182 298H183.53V297.7C183.53 296.88 183.06 296.43 182.16 296.43C181.576 296.422 181.008 296.624 180.56 297L180.26 296.51C180.83 296.065 181.538 295.835 182.26 295.86C182.519 295.826 182.782 295.852 183.029 295.935C183.276 296.019 183.502 296.157 183.688 296.34C183.874 296.523 184.015 296.746 184.102 296.992C184.189 297.238 184.219 297.501 184.19 297.76ZM183.54 299.3V298.51H182C181.07 298.51 180.77 298.88 180.77 299.38C180.77 299.88 181.21 300.28 181.99 300.28C182.319 300.304 182.648 300.222 182.927 300.046C183.206 299.869 183.421 299.608 183.54 299.3Z" fill="#263238"/>
        <path d="M185.29 300.2L185.58 299.69C186.084 300.042 186.685 300.231 187.3 300.23C188.21 300.23 188.59 299.92 188.59 299.44C188.59 298.18 185.46 299.17 185.46 297.27C185.46 296.48 186.14 295.89 187.37 295.89C187.97 295.885 188.56 296.04 189.08 296.34L188.79 296.86C188.369 296.582 187.874 296.439 187.37 296.45C186.5 296.45 186.11 296.79 186.11 297.25C186.11 298.55 189.24 297.57 189.24 299.42C189.24 300.26 188.51 300.8 187.24 300.8C186.542 300.818 185.857 300.607 185.29 300.2Z" fill="#263238"/>
        <path d="M189.77 300.2L190.07 299.69C190.569 300.046 191.167 300.235 191.78 300.23C192.7 300.23 193.07 299.92 193.07 299.44C193.07 298.18 189.95 299.17 189.95 297.27C189.95 296.48 190.63 295.89 191.85 295.89C192.45 295.882 193.041 296.038 193.56 296.34L193.28 296.86C192.855 296.583 192.357 296.44 191.85 296.45C190.98 296.45 190.6 296.79 190.6 297.25C190.6 298.55 193.73 297.57 193.73 299.42C193.73 300.26 192.99 300.8 191.73 300.8C191.029 300.817 190.342 300.606 189.77 300.2Z" fill="#263238"/>
        <path d="M201.91 295.93L200.09 300.75H199.48L198 296.8L196.48 300.75H195.87L194 295.93H194.62L196.14 300.03L197.69 295.93H198.25L199.79 300.03L201.32 295.93H201.91Z" fill="#263238"/>
        <path d="M202.27 298.34C202.27 297.853 202.414 297.378 202.685 296.973C202.955 296.569 203.339 296.253 203.789 296.067C204.238 295.881 204.733 295.832 205.21 295.927C205.687 296.022 206.125 296.256 206.469 296.601C206.813 296.945 207.048 297.383 207.143 297.86C207.238 298.337 207.189 298.832 207.003 299.281C206.816 299.731 206.501 300.115 206.097 300.385C205.692 300.656 205.216 300.8 204.73 300.8C204.404 300.811 204.079 300.755 203.776 300.635C203.472 300.516 203.196 300.335 202.966 300.104C202.735 299.874 202.554 299.598 202.434 299.294C202.315 298.991 202.259 298.666 202.27 298.34ZM206.52 298.34C206.504 297.987 206.385 297.647 206.178 297.362C205.97 297.076 205.683 296.858 205.353 296.734C205.022 296.611 204.663 296.587 204.319 296.666C203.975 296.745 203.661 296.923 203.418 297.179C203.175 297.434 203.012 297.756 202.95 298.103C202.888 298.451 202.929 298.809 203.069 299.133C203.209 299.457 203.441 299.733 203.736 299.926C204.031 300.119 204.377 300.222 204.73 300.22C204.974 300.225 205.216 300.179 205.442 300.085C205.667 299.991 205.87 299.851 206.039 299.674C206.207 299.497 206.337 299.287 206.42 299.058C206.502 298.828 206.537 298.584 206.52 298.34Z" fill="#263238"/>
        <path d="M210.94 295.89V296.52H210.78C210.551 296.509 210.323 296.549 210.111 296.636C209.899 296.723 209.709 296.856 209.555 297.025C209.4 297.194 209.285 297.395 209.216 297.613C209.148 297.832 209.129 298.063 209.16 298.29V300.75H208.51V295.93H209.13V296.87C209.299 296.544 209.561 296.276 209.884 296.101C210.207 295.927 210.575 295.853 210.94 295.89Z" fill="#263238"/>
        <path d="M216.47 294V300.8H215.85V299.85C215.656 300.166 215.382 300.425 215.055 300.601C214.728 300.776 214.361 300.862 213.99 300.85C213.366 300.81 212.781 300.534 212.353 300.078C211.925 299.622 211.687 299.02 211.687 298.395C211.687 297.77 211.925 297.168 212.353 296.712C212.781 296.256 213.366 295.98 213.99 295.94C214.356 295.932 214.717 296.02 215.039 296.195C215.36 296.371 215.629 296.628 215.82 296.94V294H216.47ZM215.83 298.39C215.814 298.037 215.695 297.697 215.488 297.412C215.28 297.126 214.993 296.908 214.663 296.784C214.332 296.661 213.973 296.637 213.629 296.716C213.285 296.795 212.972 296.973 212.728 297.229C212.485 297.484 212.322 297.806 212.26 298.153C212.198 298.501 212.239 298.859 212.379 299.183C212.519 299.507 212.751 299.783 213.046 299.976C213.341 300.169 213.687 300.272 214.04 300.27C214.289 300.275 214.536 300.228 214.765 300.131C214.994 300.034 215.2 299.89 215.369 299.707C215.538 299.525 215.666 299.309 215.746 299.073C215.825 298.837 215.854 298.588 215.83 298.34V298.39Z" fill="#263238"/>
    </g>
    <path opacity="0.2" d="M297.92 332H167.08V354.4H297.92V332Z" fill="black"/>
    <g opacity="0.5">
        <path d="M198.9 321.71H196.76L196.3 322.71H195.88L197.63 318.88H198.03L199.78 322.71H199.36L198.9 321.71ZM198.75 321.38L197.83 319.32L196.91 321.38H198.75Z" fill="black"/>
        <path d="M200.34 318.67H200.73V322.73H200.34V318.67Z" fill="black"/>
        <path d="M203.27 319.83V320.21H203.17C203.03 320.198 202.89 320.218 202.759 320.268C202.628 320.318 202.51 320.397 202.414 320.498C202.318 320.6 202.246 320.723 202.203 320.856C202.161 320.99 202.15 321.131 202.17 321.27V322.74H201.78V319.86H202.16V320.42C202.26 320.218 202.421 320.053 202.62 319.947C202.819 319.841 203.046 319.8 203.27 319.83Z" fill="black"/>
        <path d="M206.45 321.41H204C204.008 321.55 204.043 321.688 204.104 321.814C204.165 321.94 204.251 322.053 204.356 322.146C204.461 322.239 204.584 322.311 204.716 322.356C204.849 322.401 204.99 322.42 205.13 322.41C205.296 322.416 205.462 322.386 205.615 322.322C205.769 322.258 205.907 322.162 206.02 322.04L206.23 322.29C206.023 322.507 205.757 322.658 205.465 322.724C205.172 322.791 204.867 322.769 204.587 322.662C204.307 322.555 204.065 322.368 203.891 322.124C203.717 321.88 203.619 321.59 203.61 321.29C203.6 321.1 203.63 320.91 203.697 320.732C203.763 320.554 203.866 320.391 203.998 320.254C204.13 320.117 204.289 320.009 204.465 319.936C204.641 319.863 204.83 319.827 205.02 319.83C205.21 319.826 205.399 319.861 205.575 319.933C205.751 320.006 205.91 320.114 206.042 320.252C206.173 320.389 206.275 320.552 206.34 320.731C206.405 320.91 206.432 321.1 206.42 321.29C206.42 321.29 206.45 321.37 206.45 321.41ZM204.04 321.12H206.04C206.04 320.855 205.935 320.601 205.747 320.413C205.559 320.225 205.305 320.12 205.04 320.12C204.775 320.12 204.52 320.225 204.333 320.413C204.145 320.601 204.04 320.855 204.04 321.12Z" fill="black"/>
        <path d="M209.34 321V322.78H209V322.33C208.894 322.495 208.744 322.627 208.568 322.711C208.391 322.796 208.195 322.83 208 322.81C207.35 322.81 207 322.47 207 321.97C207 321.47 207.28 321.15 208.11 321.15H209V320.98C209 320.49 208.72 320.22 208.18 320.22C207.816 320.207 207.46 320.328 207.18 320.56L207.01 320.27C207.341 320.006 207.756 319.867 208.18 319.88C208.335 319.854 208.494 319.864 208.644 319.91C208.794 319.956 208.931 320.037 209.044 320.146C209.157 320.255 209.242 320.39 209.294 320.538C209.345 320.686 209.361 320.845 209.34 321ZM208.96 321.92V321.44H208.05C207.49 321.44 207.31 321.66 207.31 321.96C207.31 322.26 207.58 322.5 208.04 322.5C208.247 322.516 208.454 322.463 208.627 322.349C208.801 322.235 208.932 322.066 209 321.87L208.96 321.92Z" fill="black"/>
        <path d="M213 318.67V322.73H212.63V322.16C212.516 322.351 212.353 322.508 212.158 322.613C211.962 322.719 211.742 322.77 211.52 322.76C211.152 322.73 210.809 322.562 210.559 322.291C210.31 322.019 210.171 321.664 210.171 321.295C210.171 320.926 210.31 320.571 210.559 320.299C210.809 320.028 211.152 319.861 211.52 319.83C211.736 319.824 211.951 319.874 212.143 319.973C212.336 320.073 212.5 320.22 212.62 320.4V318.67H213ZM212.62 321.29C212.61 321.081 212.539 320.879 212.416 320.71C212.292 320.541 212.122 320.411 211.926 320.338C211.73 320.265 211.516 320.25 211.312 320.297C211.108 320.344 210.922 320.45 210.777 320.601C210.633 320.752 210.536 320.943 210.498 321.149C210.461 321.355 210.485 321.568 210.567 321.76C210.649 321.953 210.786 322.117 210.961 322.233C211.136 322.348 211.34 322.41 211.55 322.41C211.699 322.419 211.848 322.396 211.987 322.343C212.127 322.289 212.253 322.207 212.358 322.101C212.463 321.995 212.544 321.868 212.596 321.728C212.648 321.588 212.67 321.439 212.66 321.29H212.62Z" fill="black"/>
        <path d="M216.55 319.85L215.11 323.08C214.87 323.64 214.56 323.82 214.11 323.82C213.852 323.827 213.601 323.734 213.41 323.56L213.59 323.27C213.73 323.411 213.921 323.49 214.12 323.49C214.38 323.49 214.55 323.37 214.72 323L214.84 322.73L213.55 319.85H214L215.09 322.3L216.17 319.85H216.55Z" fill="black"/>
        <path d="M220.71 321V322.78H220.34V322.33C220.234 322.495 220.084 322.627 219.908 322.711C219.731 322.796 219.535 322.83 219.34 322.81C218.69 322.81 218.34 322.47 218.34 321.97C218.34 321.47 218.62 321.15 219.45 321.15H220.36V320.98C220.36 320.49 220.09 320.22 219.55 320.22C219.186 320.207 218.83 320.328 218.55 320.56L218.37 320.27C218.705 320.006 219.123 319.868 219.55 319.88C219.705 319.854 219.863 319.864 220.013 319.91C220.164 319.956 220.301 320.037 220.414 320.146C220.526 320.255 220.612 320.39 220.664 320.538C220.715 320.686 220.731 320.845 220.71 321ZM220.32 321.92V321.44H219.42C218.86 321.44 218.68 321.66 218.68 321.96C218.68 322.26 218.95 322.5 219.41 322.5C219.609 322.508 219.806 322.451 219.97 322.337C220.134 322.224 220.257 322.06 220.32 321.87V321.92Z" fill="black"/>
        <path d="M228 321.06V322.73H227.62V321.1C227.62 320.49 227.31 320.18 226.79 320.18C226.656 320.17 226.521 320.188 226.395 320.235C226.269 320.281 226.155 320.355 226.059 320.45C225.964 320.545 225.891 320.659 225.845 320.785C225.798 320.911 225.779 321.046 225.79 321.18V322.69H225.41V321.1C225.41 320.49 225.1 320.18 224.57 320.18C224.436 320.17 224.301 320.188 224.175 320.235C224.049 320.281 223.935 320.355 223.839 320.45C223.744 320.545 223.671 320.659 223.625 320.785C223.578 320.911 223.559 321.046 223.57 321.18V322.69H223.18V319.81H223.55V320.34C223.66 320.161 223.817 320.015 224.004 319.918C224.19 319.821 224.4 319.777 224.61 319.79C224.82 319.774 225.029 319.824 225.209 319.933C225.388 320.043 225.529 320.206 225.61 320.4C225.726 320.204 225.894 320.044 226.095 319.936C226.296 319.829 226.522 319.778 226.75 319.79C226.923 319.759 227.1 319.771 227.268 319.824C227.435 319.877 227.587 319.971 227.71 320.096C227.833 320.221 227.924 320.374 227.974 320.542C228.025 320.71 228.034 320.888 228 321.06Z" fill="black"/>
        <path d="M231.54 321.41H229.13C229.15 321.693 229.281 321.957 229.495 322.144C229.708 322.331 229.986 322.427 230.27 322.41C230.435 322.416 230.599 322.387 230.751 322.323C230.903 322.259 231.039 322.162 231.15 322.04L231.37 322.29C231.229 322.443 231.057 322.565 230.866 322.646C230.674 322.727 230.468 322.766 230.26 322.76C230.062 322.773 229.863 322.744 229.677 322.675C229.49 322.606 229.321 322.499 229.178 322.361C229.036 322.222 228.924 322.055 228.85 321.871C228.777 321.686 228.742 321.489 228.75 321.29C228.75 320.919 228.897 320.563 229.16 320.3C229.422 320.038 229.778 319.89 230.15 319.89C230.521 319.89 230.877 320.038 231.14 320.3C231.402 320.563 231.55 320.919 231.55 321.29C231.55 321.29 231.54 321.37 231.54 321.41ZM229.13 321.12H231.18C231.18 320.848 231.072 320.588 230.88 320.395C230.687 320.203 230.427 320.095 230.155 320.095C229.883 320.095 229.622 320.203 229.43 320.395C229.238 320.588 229.13 320.848 229.13 321.12Z" fill="black"/>
        <path d="M237.1 321.06V322.73H236.71V321.1C236.71 320.49 236.41 320.18 235.89 320.18C235.755 320.168 235.62 320.185 235.493 320.231C235.366 320.277 235.251 320.35 235.155 320.446C235.06 320.541 234.987 320.656 234.941 320.783C234.895 320.91 234.877 321.046 234.89 321.18V322.69H234.5V321.1C234.5 320.49 234.2 320.18 233.67 320.18C233.535 320.168 233.4 320.185 233.273 320.231C233.146 320.277 233.031 320.35 232.935 320.446C232.84 320.541 232.767 320.656 232.721 320.783C232.675 320.91 232.657 321.046 232.67 321.18V322.69H232.28V319.81H232.65V320.34C232.759 320.16 232.916 320.014 233.103 319.917C233.29 319.82 233.5 319.776 233.71 319.79C233.919 319.774 234.129 319.824 234.308 319.933C234.488 320.043 234.628 320.206 234.71 320.4C234.826 320.204 234.994 320.044 235.195 319.936C235.396 319.829 235.622 319.778 235.85 319.79C236.023 319.759 236.2 319.771 236.367 319.824C236.535 319.877 236.686 319.971 236.809 320.096C236.933 320.221 237.023 320.374 237.074 320.542C237.125 320.71 237.133 320.888 237.1 321.06Z" fill="black"/>
        <path d="M241.08 321.29C241.09 321.482 241.06 321.674 240.992 321.855C240.924 322.035 240.819 322.199 240.685 322.337C240.551 322.475 240.39 322.583 240.212 322.656C240.034 322.729 239.842 322.765 239.65 322.76C239.428 322.77 239.208 322.719 239.012 322.613C238.817 322.508 238.653 322.351 238.54 322.16V322.73H238.16V318.67H238.55V320.4C238.669 320.219 238.833 320.072 239.026 319.972C239.218 319.872 239.433 319.823 239.65 319.83C239.842 319.824 240.033 319.858 240.211 319.93C240.389 320.002 240.55 320.11 240.685 320.247C240.819 320.384 240.924 320.548 240.992 320.727C241.06 320.907 241.09 321.098 241.08 321.29ZM240.69 321.29C240.68 321.081 240.609 320.879 240.486 320.71C240.362 320.541 240.192 320.411 239.996 320.338C239.8 320.265 239.586 320.25 239.382 320.297C239.178 320.344 238.992 320.45 238.847 320.601C238.703 320.752 238.606 320.943 238.568 321.149C238.531 321.355 238.555 321.568 238.637 321.76C238.719 321.953 238.856 322.117 239.031 322.233C239.206 322.348 239.41 322.41 239.62 322.41C239.766 322.413 239.91 322.386 240.045 322.33C240.179 322.274 240.301 322.191 240.401 322.086C240.502 321.98 240.58 321.855 240.629 321.718C240.679 321.581 240.7 321.436 240.69 321.29Z" fill="black"/>
        <path d="M244.39 321.41H242C242.008 321.55 242.043 321.688 242.104 321.814C242.165 321.94 242.251 322.053 242.356 322.146C242.461 322.239 242.584 322.311 242.716 322.356C242.849 322.401 242.99 322.42 243.13 322.41C243.296 322.41 243.46 322.373 243.611 322.302C243.761 322.231 243.894 322.128 244 322L244.22 322.25C244.013 322.467 243.747 322.618 243.455 322.684C243.162 322.751 242.857 322.729 242.577 322.622C242.297 322.515 242.055 322.328 241.881 322.084C241.707 321.84 241.609 321.55 241.6 321.25C241.59 321.06 241.62 320.87 241.687 320.692C241.753 320.514 241.856 320.351 241.988 320.214C242.12 320.077 242.279 319.969 242.455 319.896C242.631 319.823 242.82 319.787 243.01 319.79C243.2 319.785 243.388 319.82 243.564 319.893C243.739 319.966 243.898 320.074 244.029 320.212C244.16 320.349 244.26 320.513 244.324 320.692C244.388 320.87 244.414 321.061 244.4 321.25L244.39 321.41ZM241.98 321.12H243.98C243.98 320.855 243.875 320.601 243.687 320.413C243.499 320.225 243.245 320.12 242.98 320.12C242.715 320.12 242.46 320.225 242.273 320.413C242.085 320.601 241.98 320.855 241.98 321.12Z" fill="black"/>
        <path d="M246.64 319.83V320.21H246.55C246.41 320.198 246.27 320.218 246.139 320.268C246.008 320.318 245.89 320.397 245.794 320.499C245.698 320.601 245.626 320.723 245.584 320.856C245.541 320.99 245.53 321.132 245.55 321.27V322.74H245.16V319.86H245.53V320.42C245.631 320.219 245.793 320.055 245.991 319.949C246.19 319.843 246.417 319.802 246.64 319.83Z" fill="black"/>
        <path d="M249.16 319.88C249.16 319.48 248.84 319.21 248.28 319.21C248.083 319.199 247.886 319.233 247.704 319.309C247.522 319.385 247.36 319.502 247.23 319.65L246.94 319.43C247.11 319.238 247.322 319.086 247.559 318.988C247.797 318.889 248.053 318.845 248.31 318.86C249.08 318.86 249.57 319.23 249.57 319.86C249.57 320.79 248.57 320.86 248.57 321.62H248.16C248.16 320.68 249.16 320.59 249.16 319.88ZM248.08 322.47C248.092 322.404 248.128 322.344 248.18 322.301C248.232 322.257 248.297 322.234 248.365 322.234C248.433 322.234 248.498 322.257 248.55 322.301C248.602 322.344 248.637 322.404 248.65 322.47C248.658 322.512 248.656 322.555 248.646 322.596C248.635 322.638 248.615 322.676 248.588 322.709C248.561 322.742 248.527 322.768 248.488 322.786C248.45 322.804 248.408 322.814 248.365 322.814C248.322 322.814 248.28 322.804 248.242 322.786C248.203 322.768 248.169 322.742 248.142 322.709C248.115 322.676 248.095 322.638 248.084 322.596C248.074 322.555 248.072 322.512 248.08 322.47Z" fill="black"/>
        <path d="M251.87 318.9H252.76V322H254.68V322.72H251.87V318.9Z" fill="black"/>
        <path d="M254.88 321.26C254.86 320.936 254.937 320.614 255.103 320.335C255.268 320.055 255.514 319.832 255.807 319.694C256.101 319.556 256.429 319.509 256.75 319.56C257.071 319.611 257.369 319.757 257.605 319.979C257.842 320.201 258.006 320.489 258.077 320.806C258.148 321.122 258.123 321.453 258.004 321.755C257.885 322.057 257.677 322.316 257.409 322.499C257.141 322.681 256.824 322.78 256.5 322.78C256.292 322.794 256.083 322.765 255.887 322.694C255.691 322.624 255.512 322.514 255.36 322.372C255.208 322.229 255.087 322.057 255.004 321.866C254.922 321.675 254.879 321.468 254.88 321.26ZM257.25 321.26C257.238 321.115 257.184 320.976 257.095 320.861C257.006 320.746 256.885 320.659 256.748 320.611C256.61 320.564 256.461 320.557 256.32 320.593C256.179 320.628 256.051 320.704 255.952 320.811C255.853 320.918 255.787 321.051 255.763 321.195C255.738 321.338 255.756 321.486 255.814 321.619C255.873 321.753 255.968 321.867 256.09 321.947C256.212 322.027 256.354 322.07 256.5 322.07C256.604 322.072 256.707 322.052 256.803 322.011C256.899 321.97 256.985 321.91 257.056 321.833C257.127 321.757 257.181 321.666 257.214 321.567C257.248 321.469 257.26 321.364 257.25 321.26Z" fill="black"/>
        <path d="M261.73 319.78V322.24C261.757 322.461 261.733 322.686 261.659 322.896C261.585 323.106 261.463 323.296 261.303 323.451C261.143 323.606 260.95 323.722 260.737 323.789C260.525 323.857 260.3 323.874 260.08 323.84C259.565 323.86 259.058 323.716 258.63 323.43L258.97 322.82C259.262 323.029 259.611 323.144 259.97 323.15C260.57 323.15 260.84 322.88 260.84 322.35V322.22C260.72 322.345 260.575 322.442 260.415 322.506C260.254 322.57 260.082 322.598 259.91 322.59C259.713 322.607 259.514 322.582 259.327 322.518C259.14 322.454 258.968 322.352 258.822 322.218C258.677 322.084 258.56 321.921 258.481 321.74C258.401 321.559 258.36 321.363 258.36 321.165C258.36 320.967 258.401 320.772 258.481 320.59C258.56 320.409 258.677 320.247 258.822 320.113C258.968 319.979 259.14 319.876 259.327 319.812C259.514 319.748 259.713 319.724 259.91 319.74C260.098 319.725 260.287 319.755 260.461 319.828C260.635 319.902 260.789 320.015 260.91 320.16V319.78H261.73ZM260.89 321.17C260.893 321.07 260.875 320.97 260.837 320.878C260.799 320.785 260.741 320.701 260.669 320.632C260.596 320.563 260.509 320.511 260.415 320.477C260.32 320.444 260.22 320.432 260.12 320.44C260.017 320.428 259.914 320.438 259.815 320.469C259.717 320.5 259.626 320.551 259.549 320.62C259.472 320.688 259.411 320.772 259.369 320.866C259.326 320.96 259.305 321.062 259.305 321.165C259.305 321.268 259.326 321.37 259.369 321.464C259.411 321.558 259.472 321.642 259.549 321.711C259.626 321.779 259.717 321.831 259.815 321.861C259.914 321.892 260.017 321.902 260.12 321.89C260.219 321.899 260.318 321.886 260.412 321.854C260.506 321.821 260.592 321.769 260.665 321.701C260.737 321.633 260.795 321.551 260.834 321.46C260.872 321.368 260.892 321.269 260.89 321.17Z" fill="black"/>
        <path d="M264 318.9C264.001 318.833 264.016 318.767 264.044 318.706C264.071 318.645 264.111 318.59 264.161 318.545C264.211 318.5 264.269 318.466 264.333 318.444C264.396 318.423 264.463 318.415 264.53 318.42C264.595 318.413 264.662 318.42 264.724 318.44C264.787 318.459 264.845 318.492 264.895 318.535C264.945 318.578 264.985 318.631 265.013 318.69C265.042 318.75 265.058 318.814 265.06 318.88C265.06 319.021 265.004 319.155 264.905 319.255C264.805 319.354 264.671 319.41 264.53 319.41C264.389 319.41 264.255 319.354 264.155 319.255C264.056 319.155 264 319.021 264 318.88V318.9ZM264.1 319.78H264.95V322.78H264.1V319.78Z" fill="black"/>
        <path d="M268.74 321V322.69H267.89V321.14C267.89 320.66 267.67 320.44 267.29 320.44C266.91 320.44 266.58 320.69 266.58 321.23V322.69H265.73V319.69H266.55V320.04C266.679 319.907 266.835 319.803 267.007 319.736C267.18 319.669 267.365 319.639 267.55 319.65C267.723 319.641 267.895 319.672 268.055 319.739C268.214 319.806 268.356 319.908 268.47 320.038C268.585 320.168 268.668 320.322 268.715 320.488C268.762 320.655 268.77 320.83 268.74 321Z" fill="black"/>
    </g>
    <path d="M297.92 330.63H167.08V353.03H297.92V330.63Z" fill="#3561EB"/>
    <path d="M215.6 345.31L214 343H213.52H211.62V345.33H210.52V337.66H213.52C215.52 337.66 216.71 338.66 216.71 340.34C216.735 340.872 216.584 341.398 216.281 341.835C215.977 342.273 215.537 342.598 215.03 342.76L216.85 345.33L215.6 345.31ZM215.6 340.31C215.6 339.21 214.87 338.59 213.46 338.59H211.6V342.04H213.46C214.84 342.05 215.57 341.41 215.57 340.32L215.6 340.31Z" fill="white"/>
    <path d="M223.52 342.76H218.81C218.884 343.255 219.141 343.704 219.53 344.018C219.918 344.333 220.411 344.491 220.91 344.46C221.224 344.471 221.537 344.415 221.827 344.294C222.117 344.173 222.377 343.991 222.59 343.76L223.17 344.44C222.742 344.874 222.198 345.176 221.603 345.309C221.008 345.442 220.387 345.4 219.815 345.189C219.243 344.978 218.744 344.606 218.377 344.119C218.011 343.631 217.793 343.048 217.75 342.44C217.729 342.047 217.79 341.655 217.928 341.287C218.067 340.918 218.28 340.583 218.554 340.301C218.828 340.019 219.158 339.797 219.522 339.649C219.886 339.501 220.277 339.43 220.67 339.44C221.061 339.429 221.45 339.5 221.812 339.649C222.174 339.798 222.5 340.021 222.771 340.303C223.041 340.586 223.249 340.922 223.382 341.29C223.514 341.658 223.568 342.05 223.54 342.44C223.54 342.53 223.53 342.66 223.52 342.76ZM218.81 342H222.53C222.482 341.54 222.266 341.114 221.922 340.804C221.579 340.495 221.133 340.323 220.67 340.323C220.208 340.323 219.761 340.495 219.418 340.804C219.074 341.114 218.858 341.54 218.81 342Z" fill="white"/>
    <path d="M230.56 339.51V344.51C230.56 346.56 229.51 347.51 227.56 347.51C226.565 347.553 225.586 347.249 224.79 346.65L225.29 345.84C225.93 346.337 226.72 346.602 227.53 346.59C228.9 346.59 229.53 345.96 229.53 344.64V344.18C229.271 344.477 228.949 344.712 228.587 344.868C228.226 345.024 227.833 345.096 227.44 345.08C226.695 345.08 225.98 344.784 225.453 344.257C224.926 343.73 224.63 343.015 224.63 342.27C224.63 341.525 224.926 340.81 225.453 340.283C225.98 339.756 226.695 339.46 227.44 339.46C227.851 339.448 228.26 339.532 228.633 339.705C229.007 339.879 229.334 340.137 229.59 340.46V339.56L230.56 339.51ZM229.56 342.26C229.582 341.861 229.484 341.464 229.278 341.121C229.072 340.778 228.768 340.504 228.405 340.336C228.042 340.167 227.636 340.112 227.242 340.176C226.847 340.24 226.48 340.422 226.189 340.696C225.898 340.971 225.697 341.327 225.61 341.718C225.524 342.108 225.556 342.516 225.704 342.888C225.852 343.26 226.107 343.579 226.438 343.804C226.769 344.029 227.16 344.149 227.56 344.15C227.816 344.165 228.072 344.127 228.313 344.039C228.553 343.95 228.773 343.813 228.958 343.636C229.143 343.458 229.289 343.244 229.388 343.008C229.486 342.771 229.534 342.516 229.53 342.26H229.56Z" fill="white"/>
    <path d="M232.38 337.71C232.381 337.618 232.401 337.527 232.437 337.443C232.473 337.358 232.526 337.282 232.592 337.218C232.658 337.154 232.736 337.103 232.821 337.069C232.907 337.035 232.998 337.019 233.09 337.02C233.187 337.008 233.285 337.017 233.378 337.046C233.471 337.075 233.557 337.124 233.63 337.189C233.703 337.253 233.762 337.333 233.802 337.422C233.842 337.511 233.863 337.607 233.863 337.705C233.863 337.803 233.842 337.899 233.802 337.988C233.762 338.077 233.703 338.157 233.63 338.221C233.557 338.286 233.471 338.335 233.378 338.364C233.285 338.393 233.187 338.402 233.09 338.39C232.998 338.393 232.907 338.377 232.822 338.344C232.737 338.311 232.659 338.262 232.593 338.199C232.526 338.135 232.474 338.06 232.437 337.976C232.401 337.892 232.381 337.801 232.38 337.71ZM232.57 339.51H233.62V345.31H232.57V339.51Z" fill="white"/>
    <path d="M234.89 344.7L235.33 343.87C235.926 344.257 236.62 344.465 237.33 344.47C238.33 344.47 238.71 344.17 238.71 343.68C238.71 342.38 235.04 343.51 235.04 341.19C235.04 340.19 235.97 339.45 237.46 339.45C238.198 339.438 238.925 339.621 239.57 339.98L239.12 340.81C238.621 340.496 238.04 340.336 237.45 340.35C236.53 340.35 236.08 340.69 236.08 341.15C236.08 342.52 239.76 341.4 239.76 343.66C239.76 344.66 238.76 345.38 237.25 345.38C236.413 345.392 235.592 345.156 234.89 344.7Z" fill="white"/>
    <path d="M244.38 345C244.016 345.278 243.568 345.423 243.11 345.41C242.863 345.438 242.613 345.411 242.379 345.33C242.144 345.248 241.93 345.116 241.754 344.941C241.577 344.766 241.442 344.554 241.358 344.32C241.275 344.087 241.244 343.837 241.27 343.59V340.4H240.27V339.54H241.27V338.27H242.27V339.54H244V340.4H242.33V343.55C242.306 343.679 242.313 343.811 242.349 343.937C242.385 344.063 242.449 344.179 242.537 344.275C242.625 344.372 242.735 344.447 242.857 344.495C242.978 344.543 243.11 344.561 243.24 344.55C243.536 344.553 243.824 344.458 244.06 344.28L244.38 345Z" fill="white"/>
    <path d="M250.68 342.76H246C246.074 343.257 246.332 343.707 246.723 344.022C247.114 344.337 247.609 344.493 248.11 344.46C248.423 344.472 248.734 344.415 249.022 344.294C249.311 344.174 249.569 343.991 249.78 343.76L250.36 344.44C249.933 344.876 249.39 345.178 248.795 345.312C248.2 345.445 247.579 345.404 247.007 345.192C246.435 344.981 245.937 344.609 245.572 344.12C245.207 343.632 244.991 343.048 244.95 342.44C244.929 342.047 244.99 341.655 245.128 341.287C245.267 340.918 245.479 340.583 245.754 340.301C246.028 340.019 246.358 339.797 246.722 339.649C247.086 339.501 247.477 339.43 247.87 339.44C248.261 339.431 248.649 339.503 249.01 339.652C249.371 339.802 249.697 340.024 249.967 340.307C250.237 340.589 250.445 340.925 250.578 341.292C250.712 341.659 250.767 342.05 250.74 342.44C250.73 342.548 250.71 342.655 250.68 342.76ZM246 342H249.73C249.672 341.546 249.451 341.129 249.108 340.826C248.764 340.524 248.323 340.357 247.865 340.357C247.407 340.357 246.966 340.524 246.622 340.826C246.279 341.129 246.058 341.546 246 342Z" fill="white"/>
    <path d="M255.29 339.45V340.45H255.05C254.79 340.432 254.529 340.472 254.287 340.569C254.045 340.666 253.828 340.816 253.652 341.008C253.476 341.2 253.345 341.43 253.271 341.68C253.196 341.929 253.179 342.193 253.22 342.45V345.34H252.17V339.54H253.17V340.54C253.381 340.174 253.694 339.876 254.07 339.683C254.445 339.49 254.869 339.409 255.29 339.45Z" fill="white"/>
    <g opacity="0.6">
        <path d="M209.59 177.61L210.04 176.67C210.816 177.321 211.797 177.675 212.81 177.67C214.26 177.67 214.88 177.11 214.88 176.38C214.88 174.38 209.8 175.62 209.8 172.51C209.8 171.21 210.8 170.11 213.01 170.11C213.962 170.095 214.899 170.351 215.71 170.85L215.31 171.85C214.623 171.41 213.825 171.175 213.01 171.17C211.58 171.17 211.01 171.77 211.01 172.5C211.01 174.5 216.1 173.26 216.1 176.35C216.1 177.63 215.1 178.73 212.85 178.73C211.665 178.755 210.509 178.358 209.59 177.61Z" fill="#263238"/>
        <path d="M217.44 170.24C217.441 170.139 217.463 170.04 217.503 169.948C217.543 169.855 217.601 169.772 217.673 169.702C217.746 169.632 217.831 169.578 217.925 169.541C218.019 169.505 218.119 169.487 218.22 169.49C218.319 169.486 218.418 169.502 218.512 169.537C218.605 169.571 218.69 169.624 218.763 169.692C218.835 169.76 218.894 169.842 218.934 169.932C218.975 170.023 218.997 170.121 219 170.22C219 170.427 218.918 170.625 218.771 170.772C218.625 170.918 218.427 171 218.22 171C218.013 171 217.815 170.918 217.668 170.772C217.522 170.625 217.44 170.427 217.44 170.22V170.24ZM217.64 172.24H218.8V178.6H217.64V172.24Z" fill="#263238"/>
        <path d="M227.07 172.21V177.7C227.07 179.95 225.93 180.97 223.78 180.97C222.701 181.004 221.642 180.669 220.78 180.02L221.33 179.13C222.026 179.681 222.892 179.974 223.78 179.96C225.28 179.96 225.96 179.26 225.96 177.82V177.32C225.677 177.647 225.324 177.906 224.928 178.079C224.532 178.252 224.102 178.335 223.67 178.32C223.251 178.344 222.832 178.282 222.438 178.138C222.044 177.995 221.684 177.772 221.379 177.484C221.075 177.196 220.832 176.849 220.666 176.464C220.5 176.079 220.414 175.664 220.414 175.245C220.414 174.826 220.5 174.411 220.666 174.026C220.832 173.641 221.075 173.294 221.379 173.006C221.684 172.718 222.044 172.495 222.438 172.352C222.832 172.208 223.251 172.146 223.67 172.17C224.112 172.147 224.553 172.225 224.96 172.398C225.368 172.572 225.73 172.836 226.02 173.17V172.17L227.07 172.21ZM225.95 175.21C225.972 174.773 225.862 174.339 225.635 173.965C225.408 173.591 225.075 173.293 224.677 173.11C224.279 172.927 223.836 172.868 223.404 172.94C222.972 173.011 222.572 173.211 222.254 173.512C221.937 173.814 221.717 174.203 221.623 174.631C221.53 175.058 221.566 175.504 221.728 175.911C221.89 176.317 222.17 176.666 222.532 176.912C222.895 177.158 223.322 177.289 223.76 177.29C224.046 177.315 224.334 177.28 224.606 177.187C224.878 177.094 225.127 176.946 225.338 176.751C225.549 176.556 225.717 176.319 225.831 176.055C225.945 175.792 226.002 175.507 226 175.22L225.95 175.21Z" fill="#263238"/>
        <path d="M235.31 174.91V178.57H234.15V175C234.15 173.75 233.53 173.14 232.44 173.14C232.163 173.122 231.885 173.165 231.627 173.266C231.369 173.368 231.136 173.524 230.945 173.726C230.754 173.927 230.61 174.168 230.522 174.432C230.435 174.695 230.407 174.975 230.44 175.25V178.53H229.29V172.17H230.4V173.17C230.673 172.831 231.023 172.563 231.422 172.389C231.821 172.215 232.256 172.14 232.69 172.17C233.051 172.146 233.412 172.201 233.749 172.332C234.086 172.463 234.391 172.666 234.64 172.927C234.89 173.189 235.08 173.502 235.195 173.844C235.311 174.187 235.35 174.551 235.31 174.91Z" fill="#263238"/>
        <path d="M246.6 172.21V178.57H245.51V177.57C245.256 177.897 244.927 178.159 244.552 178.333C244.176 178.507 243.764 178.588 243.35 178.57C242.978 178.608 242.602 178.563 242.25 178.437C241.898 178.311 241.579 178.107 241.316 177.841C241.053 177.576 240.854 177.254 240.731 176.901C240.609 176.548 240.567 176.172 240.61 175.8V172.14H241.76V175.67C241.76 176.91 242.39 177.54 243.48 177.54C243.757 177.56 244.036 177.518 244.295 177.418C244.554 177.317 244.788 177.16 244.979 176.958C245.17 176.756 245.314 176.515 245.401 176.25C245.488 175.986 245.515 175.706 245.48 175.43V172.14L246.6 172.21Z" fill="#263238"/>
        <path d="M255.38 175.39C255.402 175.819 255.335 176.249 255.182 176.651C255.03 177.053 254.795 177.418 254.493 177.724C254.19 178.03 253.828 178.269 253.428 178.427C253.028 178.585 252.599 178.657 252.17 178.64C251.748 178.657 251.327 178.575 250.942 178.401C250.557 178.228 250.217 177.967 249.95 177.64V180.92H248.8V172.24H249.9V173.24C250.164 172.892 250.508 172.613 250.903 172.427C251.299 172.24 251.733 172.152 252.17 172.17C252.597 172.152 253.024 172.222 253.422 172.378C253.821 172.533 254.182 172.77 254.484 173.073C254.786 173.376 255.022 173.738 255.176 174.137C255.33 174.536 255.4 174.963 255.38 175.39ZM254.22 175.39C254.2 174.972 254.059 174.569 253.812 174.231C253.566 173.892 253.226 173.634 252.834 173.487C252.442 173.34 252.016 173.311 251.608 173.403C251.2 173.496 250.828 173.706 250.538 174.008C250.248 174.31 250.054 174.69 249.978 175.102C249.902 175.513 249.948 175.938 250.111 176.324C250.274 176.709 250.547 177.038 250.895 177.27C251.243 177.503 251.651 177.628 252.07 177.63C252.362 177.636 252.651 177.582 252.921 177.47C253.191 177.359 253.434 177.192 253.636 176.982C253.838 176.771 253.994 176.521 254.095 176.247C254.195 175.973 254.238 175.681 254.22 175.39Z" fill="#263238"/>
    </g>
    <path d="M297.92 225.54H167.08V247.94H297.92V225.54Z" fill="white"/>
    <g opacity="0.4">
        <path d="M174.24 233.09H174.92V238.92H178.51V239.51H174.24V233.09Z" fill="#263238"/>
        <path d="M183.16 236.52V239.52H182.54V238.77C182.358 239.038 182.109 239.252 181.817 239.393C181.526 239.533 181.202 239.594 180.88 239.57C179.79 239.57 179.12 239 179.12 238.16C179.12 237.32 179.59 236.8 180.98 236.8H182.51V236.51C182.51 235.68 182.04 235.23 181.14 235.23C180.555 235.222 179.988 235.425 179.54 235.8L179.24 235.31C179.811 234.868 180.518 234.638 181.24 234.66C181.494 234.629 181.752 234.656 181.995 234.737C182.238 234.819 182.459 234.954 182.643 235.132C182.827 235.31 182.969 235.528 183.059 235.768C183.148 236.008 183.183 236.265 183.16 236.52ZM182.51 238.06V237.27H181C180.06 237.27 179.76 237.64 179.76 238.14C179.76 238.64 180.21 239.04 180.98 239.04C181.306 239.06 181.63 238.976 181.905 238.8C182.18 238.624 182.392 238.365 182.51 238.06Z" fill="#263238"/>
        <path d="M184.26 239L184.55 238.49C185.054 238.842 185.655 239.031 186.27 239.03C187.19 239.03 187.56 238.72 187.56 238.24C187.56 236.98 184.44 237.97 184.44 236.07C184.44 235.28 185.11 234.69 186.34 234.69C186.94 234.682 187.531 234.838 188.05 235.14L187.76 235.66C187.339 235.382 186.844 235.239 186.34 235.25C185.47 235.25 185.09 235.59 185.09 236.05C185.09 237.35 188.21 236.37 188.21 238.22C188.21 239.06 187.48 239.6 186.21 239.6C185.512 239.615 184.828 239.405 184.26 239Z" fill="#263238"/>
        <path d="M192 239.22C191.716 239.446 191.363 239.566 191 239.56C190.81 239.581 190.617 239.558 190.437 239.495C190.257 239.431 190.093 239.328 189.957 239.193C189.822 239.057 189.719 238.893 189.655 238.713C189.592 238.533 189.569 238.34 189.59 238.15V235.24H188.72V234.69H189.59V233.63H190.24V234.69H191.7V235.24H190.24V238.12C190.223 238.235 190.232 238.353 190.267 238.464C190.302 238.575 190.362 238.677 190.441 238.761C190.521 238.846 190.619 238.912 190.728 238.953C190.837 238.994 190.954 239.01 191.07 239C191.333 239.008 191.589 238.919 191.79 238.75L192 239.22Z" fill="#263238"/>
        <path d="M201 233.09V239.51H200.44L196.32 234.3V239.51H195.64V233.09H196.2L200.33 238.3V233.09H201Z" fill="#263238"/>
        <path d="M206.64 236.52V239.52H206V238.77C205.82 239.039 205.571 239.255 205.279 239.396C204.987 239.536 204.663 239.597 204.34 239.57C203.25 239.57 202.58 239 202.58 238.16C202.58 237.32 203.06 236.8 204.45 236.8H206V236.51C206 235.68 205.53 235.23 204.63 235.23C204.046 235.222 203.478 235.425 203.03 235.8L202.73 235.31C203.3 234.865 204.008 234.635 204.73 234.66C204.984 234.631 205.241 234.659 205.482 234.741C205.724 234.823 205.944 234.958 206.127 235.137C206.31 235.315 206.451 235.531 206.539 235.77C206.628 236.01 206.663 236.266 206.64 236.52ZM205.99 238.06V237.27H204.47C203.54 237.27 203.24 237.64 203.24 238.14C203.24 238.64 203.69 239.04 204.46 239.04C204.788 239.062 205.114 238.979 205.391 238.803C205.668 238.627 205.881 238.366 206 238.06H205.99Z" fill="#263238"/>
        <path d="M216.37 236.71V239.51H215.72V236.78C215.72 235.78 215.2 235.24 214.33 235.24C214.104 235.23 213.879 235.269 213.67 235.354C213.461 235.44 213.274 235.57 213.12 235.736C212.967 235.901 212.852 236.099 212.783 236.314C212.713 236.529 212.692 236.756 212.72 236.98V239.51H212.07V236.78C212.07 235.78 211.55 235.24 210.67 235.24C210.444 235.23 210.219 235.269 210.01 235.354C209.801 235.44 209.614 235.57 209.46 235.736C209.307 235.901 209.192 236.099 209.123 236.314C209.053 236.529 209.032 236.756 209.06 236.98V239.51H208.41V234.69H209V235.57C209.189 235.275 209.451 235.035 209.762 234.874C210.073 234.712 210.42 234.635 210.77 234.65C211.124 234.621 211.479 234.701 211.787 234.88C212.094 235.059 212.34 235.328 212.49 235.65C212.687 235.328 212.968 235.065 213.302 234.889C213.637 234.713 214.013 234.63 214.39 234.65C214.664 234.623 214.94 234.659 215.198 234.754C215.456 234.85 215.689 235.002 215.879 235.2C216.07 235.399 216.213 235.637 216.298 235.899C216.383 236.16 216.407 236.438 216.37 236.71Z" fill="#263238"/>
        <path d="M222.36 237.3H218.36C218.374 237.535 218.434 237.765 218.537 237.977C218.641 238.189 218.784 238.379 218.961 238.535C219.138 238.691 219.343 238.81 219.566 238.887C219.789 238.963 220.025 238.995 220.26 238.98C220.538 238.989 220.814 238.937 221.069 238.829C221.325 238.72 221.554 238.556 221.74 238.35L222.1 238.77C221.753 239.132 221.308 239.384 220.819 239.494C220.33 239.604 219.82 239.568 219.352 239.39C218.883 239.212 218.478 238.899 218.186 238.492C217.894 238.085 217.728 237.601 217.71 237.1C217.693 236.782 217.743 236.463 217.854 236.164C217.966 235.866 218.137 235.593 218.359 235.363C218.58 235.134 218.846 234.952 219.14 234.829C219.435 234.707 219.751 234.646 220.07 234.65C220.388 234.644 220.705 234.704 220.999 234.826C221.293 234.949 221.558 235.131 221.778 235.361C221.998 235.591 222.168 235.865 222.277 236.164C222.385 236.464 222.431 236.782 222.41 237.1C222.37 237.16 222.36 237.23 222.36 237.3ZM218.36 236.82H221.78C221.78 236.367 221.6 235.932 221.279 235.611C220.958 235.29 220.523 235.11 220.07 235.11C219.616 235.11 219.181 235.29 218.861 235.611C218.54 235.932 218.36 236.367 218.36 236.82Z" fill="#263238"/>
    </g>
    <path d="M297.92 194.94H167.08V217.34H297.92V194.94Z" fill="white"/>
    <g opacity="0.4">
        <path d="M174.92 203.08V205.6H178.24V206.19H174.92V208.91H174.24V202.49H178.64V203.08H174.92Z" fill="#263238"/>
        <path d="M179.67 202.56C179.668 202.464 179.695 202.37 179.747 202.29C179.799 202.209 179.874 202.146 179.962 202.109C180.05 202.071 180.147 202.061 180.241 202.079C180.335 202.097 180.422 202.143 180.489 202.211C180.557 202.279 180.603 202.365 180.621 202.459C180.639 202.553 180.629 202.65 180.591 202.738C180.554 202.827 180.491 202.901 180.41 202.953C180.33 203.005 180.236 203.032 180.14 203.03C180.015 203.03 179.896 202.981 179.808 202.892C179.72 202.804 179.67 202.685 179.67 202.56ZM179.81 204.09H180.46V208.91H179.81V204.09Z" fill="#263238"/>
        <path d="M184.71 204.05V204.68H184.55C184.32 204.669 184.091 204.709 183.878 204.797C183.666 204.884 183.475 205.018 183.32 205.188C183.166 205.358 183.05 205.561 182.983 205.78C182.915 206 182.897 206.232 182.93 206.46V208.92H182.28V204.1H182.9V205C183.073 204.68 183.338 204.418 183.66 204.249C183.982 204.08 184.348 204.01 184.71 204.05Z" fill="#263238"/>
        <path d="M185.25 208.36L185.54 207.84C186.04 208.202 186.643 208.395 187.26 208.39C188.18 208.39 188.55 208.07 188.55 207.6C188.55 206.34 185.43 207.33 185.43 205.42C185.43 204.64 186.1 204.05 187.33 204.05C187.931 204.037 188.523 204.193 189.04 204.5L188.75 205.02C188.329 204.742 187.834 204.599 187.33 204.61C186.46 204.61 186.08 204.95 186.08 205.41C186.08 206.71 189.2 205.73 189.2 207.58C189.2 208.41 188.47 208.95 187.2 208.95C186.503 208.968 185.82 208.761 185.25 208.36Z" fill="#263238"/>
        <path d="M193 208.62C192.713 208.838 192.361 208.955 192 208.95C191.81 208.972 191.618 208.951 191.438 208.889C191.257 208.827 191.093 208.724 190.958 208.59C190.822 208.455 190.719 208.292 190.655 208.112C190.591 207.932 190.569 207.74 190.59 207.55V204.64H189.72V204.09H190.59V203H191.24V204.06H192.7V204.61H191.24V207.48C191.223 207.596 191.233 207.714 191.267 207.825C191.302 207.937 191.362 208.039 191.441 208.124C191.521 208.21 191.619 208.276 191.728 208.319C191.837 208.361 191.953 208.379 192.07 208.37C192.332 208.374 192.587 208.285 192.79 208.12L193 208.62Z" fill="#263238"/>
        <path d="M202 202.49V208.91H201.44L197.32 203.7V208.91H196.64V202.49H197.2L201.33 207.7V202.49H202Z" fill="#263238"/>
        <path d="M207.63 205.92V208.92H207V208.17C206.821 208.437 206.573 208.651 206.283 208.79C205.993 208.929 205.671 208.988 205.35 208.96C204.25 208.96 203.58 208.4 203.58 207.56C203.58 206.72 204.06 206.2 205.45 206.2H207V205.9C207 205.08 206.53 204.63 205.63 204.63C205.046 204.622 204.478 204.825 204.03 205.2L203.73 204.71C204.3 204.266 205.008 204.036 205.73 204.06C205.983 204.031 206.24 204.058 206.481 204.141C206.722 204.223 206.942 204.358 207.124 204.537C207.306 204.715 207.446 204.932 207.534 205.171C207.621 205.41 207.654 205.666 207.63 205.92ZM206.98 207.46V206.67H205.46C204.53 206.67 204.23 207.04 204.23 207.53C204.23 208.02 204.68 208.44 205.45 208.44C205.779 208.463 206.107 208.38 206.386 208.204C206.664 208.028 206.88 207.767 207 207.46H206.98Z" fill="#263238"/>
        <path d="M217.36 206.11V208.91H216.71V206.18C216.71 205.18 216.19 204.64 215.32 204.64C215.094 204.63 214.869 204.669 214.66 204.754C214.451 204.84 214.264 204.97 214.11 205.136C213.957 205.301 213.842 205.499 213.773 205.714C213.703 205.929 213.682 206.156 213.71 206.38V208.91H213.06V206.18C213.06 205.18 212.54 204.64 211.66 204.64C211.434 204.63 211.209 204.669 211 204.754C210.791 204.84 210.604 204.97 210.45 205.136C210.297 205.301 210.182 205.499 210.113 205.714C210.043 205.929 210.022 206.156 210.05 206.38V208.91H209.4V204.09H210V205C210.189 204.705 210.451 204.465 210.762 204.304C211.073 204.142 211.42 204.065 211.77 204.08C212.124 204.051 212.479 204.131 212.787 204.31C213.094 204.489 213.34 204.758 213.49 205.08C213.686 204.756 213.966 204.492 214.301 204.316C214.636 204.14 215.012 204.058 215.39 204.08C215.66 204.056 215.932 204.092 216.186 204.186C216.44 204.281 216.67 204.431 216.859 204.625C217.048 204.82 217.191 205.054 217.277 205.311C217.364 205.568 217.392 205.841 217.36 206.11Z" fill="#263238"/>
        <path d="M223.35 206.7H219.35C219.364 206.935 219.424 207.165 219.527 207.377C219.631 207.589 219.774 207.779 219.951 207.935C220.128 208.091 220.333 208.21 220.556 208.287C220.779 208.363 221.015 208.395 221.25 208.38C221.529 208.389 221.806 208.337 222.062 208.226C222.317 208.115 222.546 207.949 222.73 207.74L223.09 208.17C222.743 208.532 222.298 208.784 221.809 208.894C221.32 209.004 220.81 208.968 220.341 208.79C219.873 208.612 219.468 208.299 219.176 207.892C218.884 207.485 218.718 207.001 218.7 206.5C218.683 206.182 218.733 205.863 218.844 205.564C218.956 205.266 219.127 204.993 219.349 204.763C219.57 204.534 219.836 204.352 220.13 204.229C220.425 204.107 220.741 204.046 221.06 204.05C221.378 204.044 221.695 204.104 221.989 204.226C222.283 204.349 222.548 204.531 222.768 204.761C222.988 204.991 223.158 205.265 223.267 205.564C223.375 205.864 223.421 206.182 223.4 206.5C223.36 206.55 223.35 206.62 223.35 206.7ZM219.35 206.21H222.77C222.77 205.757 222.59 205.322 222.269 205.001C221.948 204.68 221.513 204.5 221.06 204.5C220.606 204.5 220.171 204.68 219.851 205.001C219.53 205.322 219.35 205.757 219.35 206.21Z" fill="#263238"/>
    </g>
    <path d="M117.85 385.28H116.9C116.9 383.87 118.07 350.83 123.82 345.28C129.73 339.53 136.68 345.2 136.74 345.28L136.14 346C135.88 345.79 129.77 340.83 124.47 346C119 351.21 117.86 384.94 117.85 385.28Z" fill="#FFC300"/>
    <path d="M117.37 391.91L116.43 391.82C116.43 391.42 120.15 351.7 105.76 335.18L106.47 334.56C121.13 351.39 117.41 391.51 117.37 391.91Z" fill="#FFC300"/>
    <path d="M117.83 387.67C117.71 385.79 114.94 341.67 126 331.47L126.64 332.17C115.91 342.03 118.74 387.17 118.77 387.6L117.83 387.67Z" fill="#FFC300"/>
    <path d="M116.43 387.64C116.43 387.34 116.09 357.64 108.22 353.17C107.551 352.729 106.786 352.455 105.988 352.371C105.191 352.288 104.386 352.397 103.64 352.69C99.0299 354.6 96.5799 363.4 96.5499 363.49L95.6399 363.24C95.7399 362.86 98.2399 353.91 103.28 351.82C104.158 351.467 105.108 351.331 106.05 351.424C106.991 351.516 107.897 351.834 108.69 352.35C117.02 357.12 117.37 386.35 117.38 387.63L116.43 387.64Z" fill="#FFC300"/>
    <path d="M119.67 387.66C119.61 386.66 118.4 364.22 124.77 355.89C126.47 353.68 128.35 352.63 130.39 352.78C134.92 353.09 138.39 359.23 138.58 359.49L137.76 359.96C137.76 359.9 134.34 353.96 130.32 353.72C128.63 353.59 127.01 354.52 125.52 356.47C119.36 364.47 120.6 387.38 120.61 387.61L119.67 387.66Z" fill="#FFC300"/>
    <path d="M118.4 390.77L117.46 390.7C117.46 390.16 121.46 336.58 114.86 327.64L115.62 327.08C122.44 336.3 118.57 388.55 118.4 390.77Z" fill="#FFC300"/>
    <path d="M101.45 357.15C101.45 357.15 105.53 358.66 104.32 362.21C103.11 365.76 90.19 371.61 90.19 371.61C90.19 371.61 84.78 366.66 89.75 358.61C94.72 350.56 101.34 354.61 101.45 357.15Z" fill="#FFC300"/>
    <path opacity="0.2" d="M101.45 357.15C101.45 357.15 105.53 358.66 104.32 362.21C103.11 365.76 90.19 371.61 90.19 371.61C90.19 371.61 84.78 366.66 89.75 358.61C94.72 350.56 101.34 354.61 101.45 357.15Z" fill="black"/>
    <path d="M119.2 350.39C119.2 350.39 114.85 350.21 114.6 353.95C114.35 357.69 124 368.07 124 368.07C124 368.07 130.9 365.57 129.42 356.22C127.94 346.87 120.28 348.08 119.2 350.39Z" fill="#FFC300"/>
    <path opacity="0.2" d="M119.2 350.39C119.2 350.39 114.85 350.21 114.6 353.95C114.35 357.69 124 368.07 124 368.07C124 368.07 130.9 365.57 129.42 356.22C127.94 346.87 120.28 348.08 119.2 350.39Z" fill="black"/>
    <path d="M122.88 332.45C122.88 332.45 119.98 332.14 120.21 330.38C120.44 328.62 131.48 324.07 137.99 331.38C137.99 331.38 133.82 338.54 127.8 338.64C121.78 338.74 122.88 332.45 122.88 332.45Z" fill="#FFC300"/>
    <path opacity="0.2" d="M122.88 332.45C122.88 332.45 119.98 332.14 120.21 330.38C120.44 328.62 131.48 324.07 137.99 331.38C137.99 331.38 133.82 338.54 127.8 338.64C121.78 338.74 122.88 332.45 122.88 332.45Z" fill="black"/>
    <path d="M117.48 328.16C117.48 328.16 120.1 329.43 120.84 327.81C121.58 326.19 114.61 316.5 105.2 319.29C105.2 319.29 104.95 327.57 110.01 330.84C115.07 334.11 117.48 328.16 117.48 328.16Z" fill="#FFC300"/>
    <path opacity="0.2" d="M117.48 328.16C117.48 328.16 120.1 329.43 120.84 327.81C121.58 326.19 114.61 316.5 105.2 319.29C105.2 319.29 104.95 327.57 110.01 330.84C115.07 334.11 117.48 328.16 117.48 328.16Z" fill="black"/>
    <path d="M131.2 355.73C131.2 355.73 129.2 354.11 131.36 353.32C133.52 352.53 144.11 352.76 144.22 363.25C144.22 363.25 131.88 365.3 130.36 361.3C128.84 357.3 131.2 355.73 131.2 355.73Z" fill="#FFC300"/>
    <path opacity="0.2" d="M131.2 355.73C131.2 355.73 129.2 354.11 131.36 353.32C133.52 352.53 144.11 352.76 144.22 363.25C144.22 363.25 131.88 365.3 130.36 361.3C128.84 357.3 131.2 355.73 131.2 355.73Z" fill="black"/>
    <path d="M106 332.19C106 332.19 108 330.57 105.84 329.79C103.68 329.01 93.09 329.22 92.98 339.71C92.98 339.71 105.32 341.77 106.84 337.77C108.36 333.77 106 332.19 106 332.19Z" fill="#FFC300"/>
    <path opacity="0.2" d="M106 332.19C106 332.19 108 330.57 105.84 329.79C103.68 329.01 93.09 329.22 92.98 339.71C92.98 339.71 105.32 341.77 106.84 337.77C108.36 333.77 106 332.19 106 332.19Z" fill="black"/>
    <path d="M112.56 340.64C112.56 340.64 112.74 338.64 111.15 339.45C109.56 340.26 104.05 346.18 109.77 351.83C109.77 351.83 117.48 346.12 116.09 343.15C114.7 340.18 112.56 340.64 112.56 340.64Z" fill="#FFC300"/>
    <path opacity="0.2" d="M112.56 340.64C112.56 340.64 112.74 338.64 111.15 339.45C109.56 340.26 104.05 346.18 109.77 351.83C109.77 351.83 117.48 346.12 116.09 343.15C114.7 340.18 112.56 340.64 112.56 340.64Z" fill="black"/>
    <path d="M133 343.44C133 343.44 131.8 341.87 133.56 341.68C135.32 341.49 143.16 343.58 141.33 351.42C141.33 351.42 131.77 350.7 131.33 347.42C130.89 344.14 133 343.44 133 343.44Z" fill="#FFC300"/>
    <path opacity="0.2" d="M133 343.44C133 343.44 131.8 341.87 133.56 341.68C135.32 341.49 143.16 343.58 141.33 351.42C141.33 351.42 131.77 350.7 131.33 347.42C130.89 344.14 133 343.44 133 343.44Z" fill="black"/>
    <path d="M102.16 416.72H133.07L137.18 386.66H98.05L102.16 416.72Z" fill="#263238"/>
    <path opacity="0.2" d="M102.16 416.72H133.07L137.18 386.66H98.05L102.16 416.72Z" fill="white"/>
    <path d="M141.06 384.22V387.08C141.06 387.998 140.695 388.878 140.047 389.527C139.398 390.175 138.518 390.54 137.6 390.54H97.25C96.3324 390.54 95.4523 390.175 94.8035 389.527C94.1546 388.878 93.79 387.998 93.79 387.08V384.22H141.06Z" fill="#263238"/>
    <path d="M398.62 99.31H369.89C367.546 99.31 365.297 100.241 363.639 101.899C361.981 103.557 361.05 105.806 361.05 108.15V133.15C361.049 134.312 361.276 135.462 361.72 136.536C362.164 137.61 362.815 138.585 363.636 139.407C364.457 140.229 365.432 140.881 366.505 141.326C367.578 141.771 368.728 142 369.89 142H378.28L376.28 149.89L384.28 142H398.67C401.017 142 403.268 141.068 404.928 139.408C406.588 137.748 407.52 135.497 407.52 133.15V108.15C407.52 106.984 407.289 105.83 406.841 104.753C406.393 103.677 405.737 102.7 404.91 101.878C404.082 101.056 403.101 100.406 402.021 99.9656C400.942 99.5249 399.786 99.3021 398.62 99.31Z" fill="#3561EB"/>
    <path opacity="0.7" d="M398.62 99.31H369.89C367.546 99.31 365.297 100.241 363.639 101.899C361.981 103.557 361.05 105.806 361.05 108.15V133.15C361.049 134.312 361.276 135.462 361.72 136.536C362.164 137.61 362.815 138.585 363.636 139.407C364.457 140.229 365.432 140.881 366.505 141.326C367.578 141.771 368.728 142 369.89 142H378.28L376.28 149.89L384.28 142H398.67C401.017 142 403.268 141.068 404.928 139.408C406.588 137.748 407.52 135.497 407.52 133.15V108.15C407.52 106.984 407.289 105.83 406.841 104.753C406.393 103.677 405.737 102.7 404.91 101.878C404.082 101.056 403.101 100.406 402.021 99.9656C400.942 99.5249 399.786 99.3021 398.62 99.31Z" fill="white"/>
    <path d="M384.26 131.7C390.418 131.7 395.41 126.708 395.41 120.55C395.41 114.392 390.418 109.4 384.26 109.4C378.102 109.4 373.11 114.392 373.11 120.55C373.11 126.708 378.102 131.7 384.26 131.7Z" fill="white"/>
    <path d="M384.26 106.29C381.44 106.29 378.683 107.126 376.338 108.693C373.993 110.26 372.165 112.487 371.085 115.093C370.006 117.699 369.724 120.566 370.274 123.332C370.824 126.098 372.182 128.639 374.177 130.633C376.171 132.628 378.712 133.986 381.478 134.536C384.244 135.086 387.111 134.804 389.717 133.725C392.323 132.645 394.55 130.818 396.117 128.472C397.684 126.127 398.52 123.37 398.52 120.55C398.521 118.677 398.153 116.822 397.437 115.091C396.721 113.361 395.671 111.788 394.346 110.464C393.022 109.139 391.449 108.089 389.719 107.373C387.988 106.657 386.133 106.289 384.26 106.29ZM392.35 116.29L383.76 126.41C383.638 126.556 383.485 126.673 383.312 126.753C383.139 126.833 382.95 126.873 382.76 126.87C382.57 126.871 382.382 126.831 382.209 126.751C382.036 126.672 381.883 126.555 381.76 126.41L376.17 119.82C376.052 119.69 375.961 119.537 375.903 119.371C375.846 119.205 375.822 119.029 375.834 118.853C375.845 118.678 375.892 118.506 375.971 118.35C376.051 118.193 376.161 118.053 376.295 117.94C376.429 117.826 376.585 117.741 376.753 117.689C376.921 117.637 377.098 117.619 377.273 117.637C377.448 117.655 377.618 117.708 377.772 117.792C377.926 117.877 378.061 117.992 378.17 118.13L382.76 123.54L390.35 114.6C390.578 114.348 390.895 114.195 391.234 114.173C391.572 114.15 391.907 114.26 392.166 114.479C392.425 114.698 392.59 115.01 392.624 115.347C392.658 115.685 392.56 116.023 392.35 116.29Z" fill="#3561EB"/>
    <path d="M393.64 253.56C393.64 253.56 376.23 251.36 349.85 258.56C349.85 258.56 345.61 211.42 346.11 204.94C346.61 198.46 386.84 200.36 386.84 200.36C386.84 200.36 387.84 219.23 390.46 230.61C393.08 241.99 395 251.37 393.64 253.56Z" fill="#FFC300"/>
    <path opacity="0.2" d="M393.64 253.56C393.64 253.56 376.23 251.36 349.85 258.56C349.85 258.56 345.61 211.42 346.11 204.94C346.61 198.46 386.84 200.36 386.84 200.36C386.84 200.36 387.84 219.23 390.46 230.61C393.08 241.99 395 251.37 393.64 253.56Z" fill="black"/>
    <path d="M337.13 409.62L344.23 411.63L345.92 400.58L346.83 394.67L339.73 392.66L338.52 400.58L337.13 409.62Z" fill="#E4897B"/>
    <path d="M377.95 410.2L385.27 411.17L385.34 400.58L385.39 394L378.06 393.04L378.01 400.58L377.95 410.2Z" fill="#E4897B"/>
    <path opacity="0.2" d="M378.06 393.04L378.01 400.58H385.34L385.39 394L378.06 393.04Z" fill="black"/>
    <path opacity="0.2" d="M338.52 400.58H345.92L346.83 394.67L339.73 392.66L338.52 400.58Z" fill="black"/>
    <path d="M305.61 208.81L298.56 206.73L299.85 214.78C299.85 214.78 306.25 216.25 306.85 212.92L305.61 208.81Z" fill="#E4897B"/>
    <path d="M291.52 208.6L294.98 215.14L299.85 214.78L298.56 206.73L291.52 208.6Z" fill="#E4897B"/>
    <path d="M315.34 210.87L303.76 208.28L302.71 213.9L313.22 216.46L315.34 210.87Z" fill="#E4897B"/>
    <path d="M350.37 205.79L349.69 206.6C348.23 208.31 344.69 212.44 341 216C338 218.9 335 221.43 333 221.94C327.33 223.4 306.72 217.33 306.72 217.33L308.85 208.97C308.85 208.97 328.05 211.52 329.54 211.52C330.67 211.52 342.35 194.6 345.18 193.21L350.37 205.79Z" fill="#FFC300"/>
    <path opacity="0.2" d="M349.69 206.6C348.23 208.31 344.69 212.44 341 216C341.74 210.14 343.89 204.76 346.72 201.36C346.984 201.032 347.286 200.736 347.62 200.48L349.69 206.6Z" fill="black"/>
    <path d="M337.22 408.51L345.28 408.3C345.425 408.295 345.568 408.34 345.684 408.428C345.801 408.515 345.884 408.639 345.92 408.78L347.62 415.27C347.661 415.425 347.666 415.588 347.635 415.746C347.604 415.903 347.538 416.052 347.442 416.181C347.346 416.309 347.222 416.415 347.08 416.489C346.938 416.563 346.781 416.605 346.62 416.61C343.71 416.61 339.5 416.61 335.85 416.68C331.57 416.8 328.85 416.59 323.85 416.68C320.85 416.76 319.85 413.74 321.13 413.43C326.86 412.01 330.61 412.29 335.49 409.09C336.005 408.747 336.602 408.547 337.22 408.51Z" fill="#263238"/>
    <path d="M336.52 409.55C335.34 409.81 333.24 410.16 332.4 409.47C332.278 409.369 332.181 409.24 332.118 409.094C332.056 408.948 332.029 408.789 332.04 408.63C332.04 408.535 332.064 408.441 332.112 408.359C332.159 408.276 332.228 408.208 332.31 408.16C333.2 407.63 336.21 409.06 336.56 409.22C336.591 409.237 336.616 409.261 336.634 409.291C336.651 409.321 336.661 409.355 336.66 409.39C336.658 409.429 336.644 409.466 336.618 409.495C336.593 409.524 336.558 409.543 336.52 409.55ZM332.52 408.44H332.46C332.427 408.459 332.399 408.487 332.38 408.52C332.36 408.554 332.35 408.592 332.35 408.63C332.342 408.733 332.358 408.837 332.398 408.933C332.438 409.029 332.501 409.113 332.58 409.18C333.05 409.57 334.27 409.61 335.89 409.29C334.72 408.8 333.09 408.23 332.54 408.44H332.52Z" fill="#FFC300"/>
    <path d="M336.52 409.55H336.4C335.49 409.17 333.67 407.63 333.77 406.8C333.77 406.6 333.93 406.35 334.41 406.29C334.586 406.267 334.765 406.279 334.937 406.325C335.109 406.372 335.269 406.451 335.41 406.56C336.41 407.31 336.64 409.28 336.66 409.36C336.663 409.39 336.658 409.421 336.646 409.449C336.634 409.477 336.614 409.502 336.59 409.52L336.52 409.55ZM334.28 406.68C334.13 406.73 334.12 406.81 334.12 406.84C334.06 407.34 335.3 408.56 336.23 409.08C336.123 408.24 335.752 407.456 335.17 406.84C335.071 406.757 334.956 406.696 334.832 406.662C334.708 406.627 334.577 406.62 334.45 406.64C334.392 406.645 334.335 406.659 334.28 406.68Z" fill="#FFC300"/>
    <path d="M378.24 408.51L386.3 408.3C386.447 408.295 386.591 408.34 386.709 408.427C386.827 408.514 386.912 408.638 386.95 408.78L388.64 415.27C388.683 415.425 388.689 415.589 388.659 415.747C388.629 415.905 388.564 416.055 388.467 416.184C388.371 416.313 388.246 416.419 388.103 416.493C387.96 416.566 387.801 416.607 387.64 416.61C384.73 416.61 380.52 416.61 376.86 416.68C372.59 416.8 369.86 416.59 364.86 416.68C361.86 416.76 360.86 413.74 362.14 413.43C367.87 412.01 371.61 412.29 376.49 409.09C377.011 408.743 377.615 408.543 378.24 408.51Z" fill="#263238"/>
    <path d="M377.55 409.55C376.37 409.81 374.26 410.16 373.43 409.47C373.308 409.369 373.211 409.24 373.148 409.094C373.086 408.948 373.059 408.789 373.07 408.63C373.07 408.535 373.094 408.441 373.142 408.359C373.189 408.276 373.258 408.208 373.34 408.16C374.22 407.63 377.24 409.06 377.58 409.22C377.613 409.233 377.641 409.257 377.659 409.288C377.677 409.319 377.685 409.355 377.68 409.39C377.677 409.427 377.663 409.462 377.64 409.491C377.617 409.519 377.585 409.54 377.55 409.55ZM373.55 408.44H373.49C373.457 408.459 373.43 408.487 373.412 408.521C373.395 408.554 373.387 408.592 373.39 408.63C373.38 408.734 373.396 408.838 373.436 408.934C373.476 409.03 373.539 409.114 373.62 409.18C374.09 409.57 375.3 409.61 376.93 409.29C375.74 408.8 374.11 408.23 373.56 408.44H373.55Z" fill="#FFC300"/>
    <path d="M377.55 409.55H377.42C376.52 409.17 374.69 407.63 374.8 406.8C374.8 406.6 374.95 406.35 375.43 406.29C375.606 406.266 375.786 406.277 375.958 406.324C376.129 406.37 376.29 406.45 376.43 406.56C377.13 407.339 377.567 408.319 377.68 409.36C377.685 409.391 377.681 409.422 377.669 409.45C377.657 409.479 377.636 409.503 377.61 409.52L377.55 409.55ZM375.3 406.68C375.16 406.73 375.15 406.81 375.15 406.84C375.08 407.34 376.33 408.56 377.26 409.08C377.146 408.242 376.776 407.46 376.2 406.84C376.101 406.758 375.986 406.697 375.862 406.663C375.738 406.628 375.608 406.621 375.48 406.64L375.3 406.68Z" fill="#FFC300"/>
    <path d="M393.05 249.26C396.93 266.07 390.27 398.32 390.27 398.32H377.41L371.91 288.11L351.66 398.32L337.91 397.32C346.91 311.94 354.84 260.97 354.84 260.97V254.53L393.05 249.26Z" fill="#263238"/>
    <path opacity="0.4" d="M337.91 397.32L351.66 398.32L367.6 311.56L371.91 288.11L377.41 398.32H390.27C390.27 398.32 396.93 266.07 393.05 249.26L354.82 254.53V260.97C354.82 260.97 346.9 311.94 337.91 397.32Z" fill="white"/>
    <path d="M386.12 187C385.726 195.037 385.93 203.093 386.73 211.1C387.27 216.7 388.01 221.99 388.8 226.76C390.65 237.95 392.75 246.34 393.05 249.27L354.82 254.54C340.88 215.54 346.13 192.88 346.13 192.88C348.989 191.7 351.918 190.698 354.9 189.88C355.53 189.71 356.17 189.55 356.83 189.4C362.2 188.343 367.625 187.596 373.08 187.16C374.08 187.07 375.17 187 376.19 186.95C381.41 186.69 386.12 187 386.12 187Z" fill="#263238"/>
    <path d="M365.66 169.45C365.94 174.8 366.51 184.84 370.96 187.39C370.96 187.39 368.19 192.66 362.2 193.2C357.67 193.6 357.97 189.13 357.97 189.13C360.59 187.18 359.97 183.87 357.97 180.13L365.66 169.45Z" fill="#E4897B"/>
    <path opacity="0.2" d="M362.52 173.81L358 180.13C358.476 180.994 358.877 181.898 359.2 182.83C361.3 181.99 363.71 178.83 363.36 176.54C363.25 175.586 362.966 174.661 362.52 173.81Z" fill="black"/>
    <path d="M346.16 158.68C345.29 161.46 345.77 167.16 349.64 165.31C353.51 163.46 347.66 153.91 346.16 158.68Z" fill="#263238"/>
    <path d="M366.16 162.44C366.59 169.57 367.16 173.72 364.05 177.76C359.32 183.83 350.16 181.57 347.6 174.69C345.3 168.49 344.99 157.87 351.6 154.27C353.065 153.473 354.709 153.06 356.377 153.071C358.045 153.082 359.683 153.516 361.137 154.332C362.592 155.149 363.816 156.321 364.694 157.739C365.573 159.156 366.077 160.774 366.16 162.44Z" fill="#E4897B"/>
    <path d="M361.16 158.56V150.56C361.16 150.56 369.64 149.93 369.26 154.27C373.96 156.6 371.74 163.91 365.43 167.49C361.97 164.72 362.37 158.06 362.37 158.06C362 158.25 361.58 158.41 361.16 158.56Z" fill="#263238"/>
    <path d="M369.61 168C369.446 168.872 369.11 169.703 368.621 170.443C368.131 171.183 367.499 171.818 366.76 172.31C364.76 173.62 363.03 172.01 362.96 169.76C362.9 167.76 363.85 164.6 366.15 164.2C366.653 164.122 367.168 164.169 367.648 164.338C368.128 164.508 368.559 164.793 368.902 165.17C369.245 165.546 369.489 166.002 369.612 166.496C369.736 166.99 369.735 167.507 369.61 168Z" fill="#E4897B"/>
    <path d="M355.63 165.62C355.7 166.2 355.45 166.7 355.07 166.74C354.69 166.78 354.33 166.35 354.26 165.74C354.19 165.13 354.44 164.66 354.81 164.62C355.18 164.58 355.56 165 355.63 165.62Z" fill="#263238"/>
    <path d="M349.09 166.35C349.16 166.93 348.91 167.43 348.53 167.47C348.15 167.51 347.79 167.08 347.72 166.47C347.65 165.86 347.9 165.39 348.28 165.35C348.66 165.31 349 165.77 349.09 166.35Z" fill="#263238"/>
    <path d="M351.2 166.4C350.695 168.188 349.944 169.898 348.97 171.48C349.401 171.702 349.875 171.83 350.359 171.855C350.843 171.881 351.327 171.805 351.78 171.63L351.2 166.4Z" fill="#DE5753"/>
    <path d="M355.15 173.49C354.903 173.553 354.653 173.6 354.4 173.63C354.355 173.63 354.312 173.612 354.28 173.58C354.248 173.548 354.23 173.505 354.23 173.46C354.23 173.415 354.248 173.372 354.28 173.34C354.312 173.308 354.355 173.29 354.4 173.29C355.118 173.225 355.811 172.992 356.422 172.61C357.034 172.227 357.547 171.707 357.92 171.09C357.929 171.07 357.941 171.052 357.957 171.036C357.973 171.021 357.992 171.01 358.013 171.002C358.033 170.995 358.055 170.992 358.077 170.993C358.099 170.994 358.12 171 358.14 171.01C358.161 171.02 358.179 171.033 358.194 171.05C358.209 171.067 358.221 171.087 358.228 171.108C358.236 171.13 358.239 171.152 358.238 171.175C358.236 171.198 358.23 171.22 358.22 171.24C357.893 171.808 357.451 172.302 356.922 172.689C356.394 173.076 355.79 173.349 355.15 173.49Z" fill="#263238"/>
    <path d="M357.39 163.29C357.329 163.304 357.266 163.302 357.207 163.285C357.147 163.267 357.093 163.235 357.05 163.19C356.76 162.873 356.401 162.627 356 162.473C355.599 162.318 355.168 162.259 354.74 162.3C354.696 162.31 354.65 162.311 354.606 162.303C354.561 162.295 354.519 162.277 354.481 162.252C354.444 162.227 354.412 162.194 354.388 162.156C354.363 162.118 354.347 162.075 354.34 162.03C354.331 161.986 354.331 161.941 354.34 161.897C354.349 161.853 354.367 161.811 354.392 161.774C354.417 161.737 354.449 161.705 354.486 161.68C354.524 161.655 354.566 161.638 354.61 161.63C355.15 161.566 355.697 161.631 356.207 161.821C356.716 162.01 357.173 162.319 357.54 162.72C357.573 162.751 357.599 162.788 357.616 162.829C357.634 162.871 357.643 162.915 357.643 162.96C357.643 163.005 357.634 163.049 357.616 163.091C357.599 163.132 357.573 163.169 357.54 163.2C357.497 163.241 357.446 163.271 357.39 163.29Z" fill="#263238"/>
    <path d="M346 164.42C345.936 164.445 345.864 164.445 345.8 164.42C345.715 164.391 345.646 164.329 345.607 164.248C345.567 164.168 345.561 164.075 345.59 163.99C345.755 163.475 346.042 163.008 346.427 162.629C346.812 162.249 347.283 161.968 347.8 161.81C347.887 161.788 347.98 161.801 348.058 161.847C348.136 161.893 348.192 161.968 348.215 162.055C348.238 162.143 348.224 162.236 348.178 162.313C348.132 162.391 348.057 162.448 347.97 162.47C347.561 162.596 347.189 162.821 346.888 163.124C346.586 163.428 346.364 163.8 346.24 164.21C346.221 164.263 346.189 164.309 346.147 164.346C346.105 164.383 346.054 164.408 346 164.42Z" fill="#263238"/>
    <path d="M364.92 161.52C364.92 161.52 359.92 159.69 357.64 156.79C357.64 156.79 353.1 157.98 352.17 159.79C351.746 159.427 351.471 158.919 351.399 158.365C351.327 157.811 351.463 157.25 351.78 156.79C351.78 156.79 348.38 157.51 347.71 159.79C347.158 159.527 346.704 159.094 346.416 158.554C346.128 158.014 346.021 157.395 346.11 156.79C346.11 156.79 344.6 157.36 344.11 159.79C344.11 159.79 340.36 151.97 352.75 149.73C351.813 149.412 350.83 149.246 349.84 149.24C349.84 149.24 358.49 145.75 365.34 148.94C372.19 152.13 371 158.31 364.92 161.52Z" fill="#263238"/>
    <path d="M396 256L384 257.6C384 257.6 379.05 223.01 376.87 211.84V188L383.14 186.35L388 188C389.333 192.796 390.358 197.673 391.07 202.6C391.66 206.34 392.19 210.34 392.66 214.39C393.31 219.91 393.85 225.53 394.31 230.79C395.03 239.28 395.51 246.79 395.77 251.38C395.92 254.26 396 256 396 256Z" fill="#FFC300"/>
    <path d="M376.88 211.82C376.88 211.82 377.88 194.99 383.15 186.31C383.15 186.31 383.02 183.83 381.97 183.43C380.92 183.03 376.88 185.43 376.88 185.43C376.88 185.43 374.37 183.71 373.82 184.51C373.27 185.31 371.93 190.63 376.88 211.82Z" fill="#FFC300"/>
    <path opacity="0.7" d="M376.88 211.82C376.88 211.82 377.88 194.99 383.15 186.31C383.15 186.31 383.02 183.83 381.97 183.43C380.92 183.03 376.88 185.43 376.88 185.43C376.88 185.43 374.37 183.71 373.82 184.51C373.27 185.31 371.93 190.63 376.88 211.82Z" fill="white"/>
    <path d="M349.6 260.61L350.97 261.61C350.97 261.61 348.97 250.46 349.79 222.26C349.79 220.9 349.88 219.59 349.93 218.34C350.93 194.48 354.65 190.14 354.93 189.88L351.47 191.06L345.2 193.22C343.31 213.57 349.6 260.61 349.6 260.61Z" fill="#FFC300"/>
    <path d="M350.14 214.23C350.14 214.23 346.68 197.87 347.71 192.23C348.74 186.59 352.43 189.1 352.43 189.1C352.43 189.1 355.82 186.36 356.83 189.38C356.83 189.38 352.17 192.66 350.14 214.23Z" fill="#FFC300"/>
    <path opacity="0.7" d="M350.14 214.23C350.14 214.23 346.68 197.87 347.71 192.23C348.74 186.59 352.43 189.1 352.43 189.1C352.43 189.1 355.82 186.36 356.83 189.38C356.83 189.38 352.17 192.66 350.14 214.23Z" fill="white"/>
    <path opacity="0.2" d="M392.64 214.35C387.52 211.48 386.84 203.99 386.84 203.99C387.15 203.87 389.05 203.22 391.05 202.56C391.64 206.3 392.17 210.3 392.64 214.35Z" fill="black"/>
    <path opacity="0.2" d="M367.6 311.56L371.91 288.11L371.08 275.7C371.08 275.7 365.17 297.22 367.6 311.56Z" fill="black"/>
    <path opacity="0.2" d="M395.75 251.34C392.53 251.12 389.75 250.91 389.75 250.91L389.14 237.82C390.144 237.192 391.349 236.97 392.51 237.2C393.301 235.109 393.901 232.95 394.3 230.75C395 239.24 395.49 246.76 395.75 251.34Z" fill="black"/>
    <path d="M396.85 230.74L390.58 240.81L395.54 243.66L401.43 234.59L396.85 230.74Z" fill="#E4897B"/>
    <path d="M387.73 187.84C391.95 188.3 409.89 212.92 410.68 220.34C411.47 227.76 400.14 240.57 400.14 240.57L392.58 236.12C392.58 236.12 400.26 224.31 400.66 221.12C401.06 217.93 386.61 205.04 386.61 205.04C385.517 202.071 384.916 198.943 384.83 195.78C384.63 190.36 387.73 187.84 387.73 187.84Z" fill="#FFC300"/>
    <path d="M389.13 237.83C389.13 237.83 395.58 239.21 398.18 243.27C398.18 243.27 395.48 251.72 393.55 252.64C391.62 253.56 386.84 253.56 386.84 253.56C386.84 253.56 386.53 244.16 389.13 237.83Z" fill="#FFC300"/>
</svg>
