<svg width="1920" height="1080" viewBox="0 0 1920 1080" fill="none" xmlns="http://www.w3.org/2000/svg">
    <g clip-path="url(#clip0_374_6)">
        <rect width="1920" height="1080" fill="white"/>
        <path d="M1423.65 -73.8737C1517.32 38.7956 1497.53 207.624 1584.41 325.603C1698.42 480.421 2005.61 516.528 1999.92 708.686C1994.42 894.831 1713.3 928.557 1563.31 1039.01C1457.01 1117.29 1360.45 1196.3 1246.73 1263.34C1102.92 1348.11 975.414 1482.72 808.472 1483.98C629.283 1485.33 417.319 1425.05 327.118 1270.27C234.992 1112.18 399.761 915.149 371.624 734.374C344.955 563.034 110.81 428.617 170.79 265.912C230.148 104.896 492.751 155.822 625.163 46.6113C775.187 -77.126 787.641 -372.459 979.96 -401.478C1165.53 -429.478 1303.7 -218.154 1423.65 -73.8737Z" fill="#FBFBFB" fill-opacity="0.8"/>
        <path d="M1886.5 220C1793.04 220 1717 143.964 1717 50.5C1717 -42.9643 1793.04 -119 1886.5 -119C1979.96 -119 2056 -42.9643 2056 50.5C2055.98 143.964 1979.95 220 1886.5 220ZM1886.5 -113.304C1796.18 -113.304 1722.7 -39.8214 1722.7 50.5C1722.7 140.821 1796.18 214.304 1886.5 214.304C1976.82 214.304 2050.3 140.821 2050.3 50.5C2050.3 -39.8214 1976.82 -113.304 1886.5 -113.304Z" fill="#3561EB" fill-opacity="0.2"/>
        <path d="M1886.5 201.482C1803.25 201.482 1735.52 133.75 1735.52 50.5C1735.52 -32.75 1803.25 -100.482 1886.5 -100.482C1969.75 -100.482 2037.48 -32.75 2037.48 50.5C2037.47 133.75 1969.73 201.482 1886.5 201.482ZM1886.5 -94.7858C1806.39 -94.7858 1741.22 -29.6072 1741.22 50.5C1741.22 130.607 1806.39 195.786 1886.5 195.786C1966.61 195.786 2031.79 130.607 2031.79 50.5C2031.79 -29.6072 1966.61 -94.7858 1886.5 -94.7858Z" fill="#3561EB" fill-opacity="0.2"/>
        <path d="M1886.5 182.964C1813.46 182.964 1754.04 123.536 1754.04 50.5C1754.04 -22.5357 1813.46 -81.9642 1886.5 -81.9642C1959.54 -81.9642 2018.96 -22.5357 2018.96 50.5C2018.95 123.536 1959.54 182.964 1886.5 182.964ZM1886.5 -76.2678C1816.59 -76.2678 1759.73 -19.3928 1759.73 50.5C1759.73 120.411 1816.61 177.268 1886.5 177.268C1956.39 177.268 2013.27 120.393 2013.27 50.5C2013.27 -19.3928 1956.39 -76.2678 1886.5 -76.2678Z" fill="#3561EB" fill-opacity="0.2"/>
        <path d="M1886.5 164.447C1823.68 164.447 1772.55 113.339 1772.55 50.5001C1772.55 -12.3213 1823.66 -63.4463 1886.5 -63.4463C1949.32 -63.4463 2000.45 -12.3392 2000.45 50.5001C2000.43 113.339 1949.32 164.447 1886.5 164.447ZM1886.5 -57.7499C1826.8 -57.7499 1778.25 -9.17844 1778.25 50.5001C1778.25 110.197 1826.82 158.75 1886.5 158.75C1946.18 158.75 1994.75 110.179 1994.75 50.5001C1994.75 -9.17844 1946.18 -57.7499 1886.5 -57.7499Z" fill="#3561EB" fill-opacity="0.2"/>
        <path d="M1886.5 145.928C1833.88 145.928 1791.07 103.125 1791.07 50.4996C1791.07 -2.12538 1833.88 -44.929 1886.5 -44.929C1939.13 -44.929 1981.93 -2.12538 1981.93 50.4996C1981.91 103.125 1939.11 145.928 1886.5 145.928ZM1886.5 -39.2325C1837.02 -39.2325 1796.77 1.01748 1796.77 50.4996C1796.77 99.9818 1837.02 140.25 1886.5 140.25C1935.98 140.25 1976.23 99.9996 1976.23 50.4996C1976.23 1.01748 1935.98 -39.2325 1886.5 -39.2325Z" fill="#3561EB" fill-opacity="0.2"/>
        <path d="M1886.5 127.41C1844.09 127.41 1809.59 92.9104 1809.59 50.4997C1809.59 8.08899 1844.09 -26.411 1886.5 -26.411C1928.91 -26.411 1963.41 8.08899 1963.41 50.4997C1963.41 92.9104 1928.89 127.41 1886.5 127.41ZM1886.5 -20.7146C1847.23 -20.7146 1815.27 11.2318 1815.27 50.5176C1815.27 89.7854 1847.22 121.75 1886.5 121.75C1925.79 121.75 1957.73 89.8033 1957.73 50.5176C1957.72 11.2318 1925.77 -20.7146 1886.5 -20.7146Z" fill="#3561EB" fill-opacity="0.2"/>
        <path d="M164.779 887.604C164.454 891.21 164.101 894.967 163.788 898.476C163.62 900.529 163.471 902.415 163.369 903.868C163.188 904.624 163.11 905.681 162.993 906.468C163.084 906.033 163.154 906.196 163.119 906.532C162.864 908.949 163.188 906.695 163.007 909.162C162.935 910.508 162.621 913.657 162.283 916.843C161.793 921.353 161.306 925.906 161.065 928.069C161.481 927.969 161.741 927.912 161.958 927.857C163.226 927.432 164.516 927.086 165.816 926.756C166.466 926.591 167.106 926.41 167.739 926.255C167.99 926.18 168.241 926.106 168.474 926.042C168.647 925.989 168.793 925.929 168.966 925.876L168.847 925.944C170.203 925.515 178.059 923.64 179.641 923.173L179.415 923.211C180.796 922.746 180.632 922.974 181.761 922.741C181.56 922.584 182.741 922.164 183.191 922.045L183.193 922.089C183.885 921.878 185.392 921.318 186.534 920.988L186.514 921.112C187.434 920.749 189.23 920.342 189.905 920.141C191.475 919.771 193.927 919.33 195.972 918.647L197.4 918.583L197.58 918.503L202.003 916.769C203.009 916.358 198.643 913.692 198.716 913.583C198.99 913.789 199.256 914.021 199.322 914.097C199.29 914.002 198.767 913.554 198.45 913.351L198.313 913.428C197.623 912.963 198.207 913.241 197.568 912.746C197.614 912.63 198.215 913.056 198.753 913.45C198.295 913.078 197.87 912.643 197.595 912.596C197.181 912.222 197.732 912.519 197.226 912.062C196.826 911.792 196.258 911.506 195.852 911.105L195.869 911.095C194.874 910.172 194.119 909.991 193.233 909.141L193.366 909.178C193.069 908.851 192.327 908.414 191.756 907.882C191.913 908.041 192.019 908.228 191.636 907.949C190.973 907.334 190.439 907.027 189.968 906.551L189.4 906.264C186.932 904.327 177.013 896.898 174.503 895.007L174.603 895.064C172.112 893.207 168.587 890.517 164.779 887.604Z" fill="#FFC300" fill-opacity="0.5"/>
        <path d="M192.114 862.199C195.396 863.743 198.821 865.342 201.987 866.839C203.848 867.701 205.573 868.482 206.919 869.072C207.564 869.495 208.534 869.937 209.238 870.305C208.857 870.07 209.032 870.061 209.347 870.221C211.543 871.276 209.522 870.212 211.786 871.229C213.033 871.762 215.893 873.117 218.782 874.524C222.86 876.519 226.973 878.539 228.926 879.484C228.974 879.051 228.988 878.796 229.02 878.575C229.058 877.248 229.156 875.909 229.299 874.567C229.353 873.906 229.424 873.236 229.461 872.584C229.474 872.329 229.505 872.064 229.518 871.809C229.526 871.624 229.527 871.466 229.535 871.281L229.569 871.42C229.636 869.986 230.536 861.98 230.636 860.325L230.586 860.555C230.617 859.097 230.786 859.317 230.94 858.194C230.745 858.327 230.743 857.09 230.763 856.606L230.799 856.63C230.824 855.918 230.812 854.304 230.893 853.132L230.992 853.189C230.977 852.206 231.183 850.379 231.235 849.674C231.434 848.076 231.844 845.615 231.91 843.461L232.342 842.114L232.34 841.912L232.204 837.171C232.158 836.094 228.178 839.289 228.093 839.18C228.391 838.989 228.681 838.825 228.783 838.767C228.669 838.764 228.072 839.102 227.794 839.327L227.82 839.492C227.134 839.992 227.61 839.52 226.923 839.976C226.814 839.903 227.45 839.476 228.001 839.096C227.499 839.403 226.941 839.651 226.804 839.886C226.3 840.149 226.778 839.72 226.171 840.041C225.791 840.324 225.322 840.769 224.808 841.015L224.798 840.997C223.592 841.612 223.168 842.256 222.065 842.813L222.165 842.711C221.77 842.889 221.087 843.433 220.385 843.785C220.599 843.686 220.809 843.658 220.418 843.924C219.624 844.35 219.143 844.735 218.534 845.011L218.065 845.457C215.403 847.119 205.042 853.922 202.408 855.636L202.501 855.561C199.873 857.205 196.142 859.606 192.114 862.199Z" fill="#FFC300" fill-opacity="0.5"/>
        <path d="M81.6906 920.886C82.6056 924.376 83.5733 928.04 84.4572 931.435C84.9974 933.426 85.502 935.235 85.9161 936.644C85.9903 937.413 86.2797 938.442 86.4511 939.224C86.3851 938.788 86.5135 938.896 86.5921 939.234C87.1865 941.6 86.7131 939.368 87.378 941.739C87.7683 943.027 88.5564 946.094 89.3296 949.214C90.396 953.61 91.501 958.073 92.0212 960.188C92.3773 959.942 92.5992 959.817 92.7772 959.694C93.8239 958.877 94.9166 958.101 96.036 957.333C96.5871 956.954 97.1383 956.575 97.6725 956.206C97.8846 956.063 98.0871 955.904 98.2993 955.761C98.4432 955.657 98.5604 955.546 98.7043 955.442L98.6139 955.561C99.7459 954.696 106.488 950.254 107.815 949.256L107.628 949.362C108.758 948.453 108.71 948.728 109.671 948.117C109.43 948.05 110.399 947.255 110.78 946.972L110.782 947.016C111.348 946.583 112.576 945.529 113.542 944.848L113.565 944.97C114.305 944.326 115.851 943.317 116.427 942.902C117.777 942.026 119.925 940.766 121.621 939.425L122.936 938.884L123.087 938.753L126.649 935.614C127.455 934.889 122.444 933.871 122.481 933.738C122.811 933.844 123.141 933.95 123.241 934.006C123.166 933.914 122.54 933.682 122.175 933.595L122.068 933.724C121.249 933.511 121.92 933.582 121.126 933.333C121.12 933.201 121.841 933.402 122.491 933.597C121.928 933.397 121.38 933.144 121.11 933.184C120.598 932.956 121.217 933.056 120.582 932.808C120.111 932.691 119.484 932.618 118.972 932.389L118.989 932.38C117.742 931.846 116.973 931.921 115.843 931.434L115.983 931.444C115.595 931.236 114.745 931.086 114.027 930.772C114.233 930.858 114.391 931.016 113.944 930.864C113.119 930.519 112.49 930.402 111.896 930.108L111.259 930.017C108.278 929.046 96.4215 925.437 93.4161 924.502L93.54 924.522C90.5027 923.649 86.2569 922.312 81.6906 920.886Z" fill="#FFC300" fill-opacity="0.5"/>
        <path d="M190.608 950.498C189.466 953.935 188.253 957.525 187.132 960.838C186.503 962.793 185.919 964.586 185.499 965.995C185.148 966.688 184.822 967.705 184.535 968.431C184.733 968.026 184.759 968.191 184.636 968.531C183.84 970.827 184.672 968.714 183.905 971.061C183.515 972.362 182.499 975.345 181.443 978.374C179.94 982.646 178.405 986.981 177.693 989.027C178.124 989.032 178.386 989.018 178.598 989.034C179.925 988.913 181.258 988.881 182.607 988.838C183.274 988.822 183.94 988.806 184.606 988.789C184.869 988.776 185.114 988.772 185.377 988.759C185.552 988.75 185.717 988.724 185.892 988.715L185.763 988.765C187.188 988.658 195.262 988.641 196.916 988.54L196.695 988.507C198.144 988.363 197.944 988.566 199.086 988.596C198.937 988.41 200.158 988.26 200.639 988.236L200.615 988.272C201.332 988.227 202.928 988.023 204.109 987.963L204.063 988.079C205.038 987.933 206.891 987.944 207.591 987.908C209.198 987.923 211.697 988.041 213.837 987.845L215.229 988.116L215.428 988.071L220.116 987.402C221.186 987.225 217.554 983.627 217.647 983.552C217.872 983.83 218.07 984.101 218.128 984.203C218.113 984.099 217.708 983.54 217.449 983.281L217.293 983.324C216.717 982.704 217.238 983.108 216.706 982.485C216.779 982.376 217.273 982.93 217.703 983.453C217.345 982.979 217.029 982.46 216.77 982.359C216.456 981.884 216.926 982.316 216.537 981.748C216.203 981.396 215.716 980.973 215.429 980.505L215.446 980.496C214.695 979.367 214.002 979.016 213.326 977.979L213.435 978.053C213.223 977.677 212.603 977.06 212.166 976.406C212.299 976.601 212.344 976.801 212.037 976.456C211.525 975.71 211.082 975.285 210.737 974.715L210.25 974.292C208.3 971.837 200.338 962.334 198.336 959.908L198.428 959.991C196.465 957.634 193.639 954.188 190.608 950.498Z" fill="#FFC300" fill-opacity="0.5"/>
        <path d="M223.553 911.836C224.607 915.293 225.73 918.914 226.753 922.276C227.371 924.245 227.953 926.032 228.402 927.423C228.52 928.189 228.843 929.199 229.032 929.971C228.956 929.518 229.077 929.653 229.173 929.981C229.862 932.316 229.294 930.116 230.053 932.455C230.488 933.741 231.405 936.757 232.3 939.854C233.566 944.204 234.826 948.625 235.442 950.708C235.798 950.462 236 950.303 236.178 950.179C237.196 949.311 238.243 948.495 239.326 947.702C239.858 947.289 240.399 946.893 240.924 946.506C241.126 946.347 241.329 946.187 241.531 946.028C241.665 945.907 241.792 945.812 241.927 945.691L241.836 945.81C242.939 944.894 249.493 940.198 250.765 939.142L250.56 939.257C251.644 938.307 251.613 938.572 252.564 937.944C252.324 937.877 253.247 937.04 253.627 936.758L253.63 936.802C254.186 936.352 255.358 935.239 256.295 934.507L256.319 934.628C257.039 933.951 258.529 932.883 259.095 932.451C260.417 931.523 262.517 930.179 264.147 928.762L265.433 928.17L265.575 928.022L268.989 924.741C269.758 923.991 264.705 923.178 264.742 923.044C265.09 923.141 265.41 923.23 265.509 923.286C265.434 923.193 264.784 922.998 264.429 922.929L264.322 923.057C263.506 922.888 264.157 922.925 263.365 922.719C263.359 922.588 264.087 922.762 264.728 922.94C264.158 922.767 263.609 922.514 263.332 922.581C262.796 922.389 263.44 922.452 262.796 922.231C262.318 922.141 261.684 922.094 261.172 921.866L261.189 921.856C259.927 921.376 259.16 921.494 258.005 921.044L258.137 921.037C257.741 920.856 256.874 920.715 256.158 920.445C256.364 920.531 256.529 920.663 256.068 920.563C255.218 920.256 254.608 920.173 253.997 919.888L253.363 919.841C250.335 918.986 238.354 915.875 235.302 915.056L235.426 915.076C232.469 914.226 228.171 913.076 223.553 911.836Z" fill="#FFC300" fill-opacity="0.5"/>
        <path d="M99.7366 865.227C101.221 868.53 102.766 871.98 104.21 875.171C105.06 877.033 105.859 878.765 106.504 880.066C106.7 880.811 107.153 881.771 107.463 882.519C107.336 882.095 107.464 882.203 107.594 882.512C108.569 884.753 107.732 882.636 108.784 884.856C109.382 886.072 110.652 888.956 111.934 891.901C113.726 896.067 115.547 900.283 116.403 902.276C116.713 901.988 116.906 901.811 117.065 901.654C117.954 900.679 118.907 899.735 119.886 898.798C120.362 898.327 120.839 897.855 121.307 897.41C121.491 897.216 121.666 897.049 121.85 896.855C121.957 896.727 122.091 896.606 122.199 896.478L122.135 896.604C123.117 895.553 129.026 890.074 130.177 888.883L130.008 889.024C130.971 887.939 130.967 888.211 131.824 887.457C131.576 887.417 132.397 886.48 132.722 886.138L132.742 886.173C133.233 885.647 134.267 884.41 135.102 883.577L135.143 883.689C135.771 882.929 137.129 881.666 137.622 881.184C138.813 880.106 140.724 878.508 142.178 876.898L143.395 876.142L143.527 875.978L146.507 872.289C147.175 871.439 142.075 871.26 142.095 871.136C142.44 871.188 142.785 871.241 142.875 871.28C142.793 871.214 142.127 871.073 141.758 871.056L141.677 871.192C140.831 871.13 141.495 871.07 140.674 870.971C140.65 870.849 141.391 870.926 142.045 871.007C141.452 870.914 140.882 870.741 140.614 870.825C140.072 870.703 140.695 870.689 140.046 870.538C139.563 870.519 138.923 870.542 138.379 870.377L138.387 870.35C137.08 870.031 136.318 870.236 135.119 869.946L135.258 869.913C134.847 869.784 133.977 869.759 133.212 869.561C133.426 869.62 133.608 869.742 133.148 869.687C132.269 869.486 131.654 869.473 131.004 869.278L130.364 869.302C127.259 868.828 114.97 867.242 111.868 866.812L111.982 866.815C108.876 866.499 104.484 865.898 99.7366 865.227Z" fill="#FFC300" fill-opacity="0.5"/>
        <path d="M40.1716 857C43.7845 856.939 47.5724 856.868 51.0807 856.821C53.1231 856.77 55.0245 856.708 56.4786 856.652C57.239 856.762 58.299 856.726 59.0988 856.747C58.6492 856.708 58.8028 856.621 59.1626 856.62C61.6107 856.61 59.3162 856.534 61.7962 856.46C63.1531 856.391 66.3112 856.362 69.5227 856.347C74.0518 856.354 78.6417 856.348 80.8176 856.334C80.6737 855.92 80.5825 855.679 80.5105 855.472C79.957 854.254 79.4642 853.024 78.996 851.758C78.7534 851.129 78.5107 850.501 78.2874 849.907C78.1961 849.666 78.0878 849.434 77.9965 849.193C77.9267 849.03 77.857 848.867 77.7798 848.73L77.8644 848.84C77.2968 847.517 74.5847 839.932 73.9451 838.402L74 838.619C73.3886 837.298 73.6408 837.426 73.2787 836.347C73.1489 836.556 72.6095 835.442 72.4291 835.004L72.4729 835.001C72.1939 834.349 71.4616 832.894 71.012 831.82L71.1262 831.823C70.678 830.95 70.054 829.209 69.7921 828.547C69.2667 827.02 68.5484 824.634 67.6677 822.678L67.4554 821.267L67.3493 821.079L65.1345 816.883C64.6211 815.935 62.4433 820.566 62.3342 820.492C62.5204 820.184 62.6992 819.903 62.7748 819.838C62.6799 819.869 62.2882 820.451 62.1384 820.783L62.2326 820.91C61.8403 821.65 62.0546 821.033 61.6429 821.739C61.519 821.718 61.8892 821.059 62.22 820.489C61.8943 820.989 61.5057 821.456 61.502 821.728C61.1741 822.184 61.4077 821.601 61.0138 822.139C60.7906 822.581 60.5666 823.18 60.2194 823.602L60.2098 823.584C59.4049 824.67 59.2944 825.43 58.546 826.416L58.5831 826.283C58.3019 826.622 57.9288 827.396 57.4518 828.025C57.5913 827.834 57.7619 827.738 57.5364 828.135C57.0031 828.864 56.7427 829.439 56.3296 829.943L56.1056 830.543C54.4596 833.207 48.1478 843.867 46.5211 846.565L46.5679 846.449C44.9656 849.111 42.658 852.915 40.1716 857Z" fill="#FFC300" fill-opacity="0.5"/>
        <path d="M137.708 843.422C139.415 840.228 141.193 836.882 142.844 833.787C143.795 831.966 144.666 830.28 145.319 828.966C145.779 828.346 146.257 827.4 146.679 826.711C146.417 827.084 146.425 826.899 146.594 826.601C147.766 824.453 146.602 826.417 147.728 824.227C148.325 823.011 149.815 820.232 151.375 817.414C153.569 813.45 155.778 809.432 156.839 807.526C156.414 807.451 156.166 807.411 155.945 807.378C154.606 807.279 153.289 807.101 151.963 806.905C151.3 806.807 150.646 806.726 149.983 806.629C149.718 806.598 149.47 806.558 149.232 806.535C149.064 806.517 148.88 806.509 148.712 806.491L148.86 806.475C147.431 806.337 139.466 805.031 137.833 804.851L138.047 804.911C136.593 804.809 136.823 804.657 135.705 804.433C135.821 804.638 134.589 804.569 134.113 804.523L134.137 804.486C133.423 804.417 131.814 804.359 130.647 804.208L130.704 804.108C129.719 804.08 127.905 803.777 127.198 803.681C125.604 803.411 123.18 802.868 121.022 802.714L119.68 802.212L119.478 802.214L114.733 802.104C113.644 802.09 116.647 806.246 116.545 806.304C116.371 805.997 116.197 805.69 116.166 805.595C116.154 805.692 116.457 806.308 116.674 806.613L116.84 806.587C117.306 807.292 116.851 806.806 117.273 807.513C117.19 807.605 116.79 806.976 116.462 806.396C116.751 806.908 116.965 807.485 117.2 807.622C117.445 808.136 117.034 807.648 117.328 808.248C117.594 808.638 118.015 809.143 118.216 809.659L118.19 809.652C118.753 810.887 119.373 811.347 119.878 812.48L119.777 812.38C119.921 812.794 120.43 813.496 120.765 814.207C120.676 814.01 120.665 813.791 120.913 814.191C121.289 815.015 121.656 815.505 121.916 816.124L122.327 816.612C123.853 819.351 130.12 830.038 131.707 832.766L131.632 832.673C133.114 835.415 135.321 839.278 137.708 843.422Z" fill="#FFC300" fill-opacity="0.5"/>
        <path d="M162.927 4.25915C163.991 4.25915 164.854 3.39637 164.854 2.33209C164.854 1.2678 163.991 0.405029 162.927 0.405029C161.863 0.405029 161 1.2678 161 2.33209C161 3.39637 161.863 4.25915 162.927 4.25915Z" fill="#4BB3EE"/>
        <path d="M180.259 4.25915C181.323 4.25915 182.186 3.39637 182.186 2.33209C182.186 1.2678 181.323 0.405029 180.259 0.405029C179.195 0.405029 178.332 1.2678 178.332 2.33209C178.332 3.39637 179.195 4.25915 180.259 4.25915Z" fill="#4BB3EE"/>
        <path d="M197.591 4.25915C198.655 4.25915 199.518 3.39637 199.518 2.33209C199.518 1.2678 198.655 0.405029 197.591 0.405029C196.527 0.405029 195.664 1.2678 195.664 2.33209C195.664 3.39637 196.527 4.25915 197.591 4.25915Z" fill="#4BB3EE"/>
        <path d="M216.851 2.33209C216.851 3.39254 215.984 4.25915 214.924 4.25915C213.863 4.25915 212.997 3.39254 212.997 2.33209C212.997 1.27164 213.863 0.405029 214.924 0.405029C215.984 0.405029 216.851 1.27164 216.851 2.33209Z" fill="#4BB3EE"/>
        <path d="M234.183 2.33209C234.183 3.39254 233.316 4.25915 232.256 4.25915C231.195 4.25915 230.329 3.39254 230.329 2.33209C230.329 1.27164 231.195 0.405029 232.256 0.405029C233.316 0.405029 234.183 1.27164 234.183 2.33209Z" fill="#4BB3EE"/>
        <path d="M249.588 4.25915C250.652 4.25915 251.515 3.39637 251.515 2.33209C251.515 1.2678 250.652 0.405029 249.588 0.405029C248.523 0.405029 247.661 1.2678 247.661 2.33209C247.661 3.39637 248.523 4.25915 249.588 4.25915Z" fill="#4BB3EE"/>
        <path d="M266.92 4.25915C267.984 4.25915 268.847 3.39637 268.847 2.33209C268.847 1.2678 267.984 0.405029 266.92 0.405029C265.855 0.405029 264.993 1.2678 264.993 2.33209C264.993 3.39637 265.855 4.25915 266.92 4.25915Z" fill="#4BB3EE"/>
        <path d="M284.252 4.25915C285.316 4.25915 286.179 3.39637 286.179 2.33209C286.179 1.2678 285.316 0.405029 284.252 0.405029C283.187 0.405029 282.325 1.2678 282.325 2.33209C282.325 3.39637 283.187 4.25915 284.252 4.25915Z" fill="#4BB3EE"/>
        <path d="M301.584 4.25915C302.648 4.25915 303.511 3.39637 303.511 2.33209C303.511 1.2678 302.648 0.405029 301.584 0.405029C300.52 0.405029 299.657 1.2678 299.657 2.33209C299.657 3.39637 300.52 4.25915 301.584 4.25915Z" fill="#4BB3EE"/>
        <path d="M318.916 4.25915C319.98 4.25915 320.843 3.39637 320.843 2.33209C320.843 1.2678 319.98 0.405029 318.916 0.405029C317.852 0.405029 316.989 1.2678 316.989 2.33209C316.989 3.39637 317.852 4.25915 318.916 4.25915Z" fill="#4BB3EE"/>
        <path d="M336.248 4.25915C337.312 4.25915 338.175 3.39637 338.175 2.33209C338.175 1.2678 337.312 0.405029 336.248 0.405029C335.184 0.405029 334.321 1.2678 334.321 2.33209C334.321 3.39637 335.184 4.25915 336.248 4.25915Z" fill="#4BB3EE"/>
        <path d="M162.927 19.6642C163.991 19.6642 164.854 18.8014 164.854 17.7371C164.854 16.6728 163.991 15.8101 162.927 15.8101C161.863 15.8101 161 16.6728 161 17.7371C161 18.8014 161.863 19.6642 162.927 19.6642Z" fill="#4BB3EE"/>
        <path d="M180.259 19.6642C181.323 19.6642 182.186 18.8014 182.186 17.7371C182.186 16.6728 181.323 15.8101 180.259 15.8101C179.195 15.8101 178.332 16.6728 178.332 17.7371C178.332 18.8014 179.195 19.6642 180.259 19.6642Z" fill="#4BB3EE"/>
        <path d="M197.591 19.6642C198.655 19.6642 199.518 18.8014 199.518 17.7371C199.518 16.6728 198.655 15.8101 197.591 15.8101C196.527 15.8101 195.664 16.6728 195.664 17.7371C195.664 18.8014 196.527 19.6642 197.591 19.6642Z" fill="#4BB3EE"/>
        <path d="M216.851 17.7371C216.851 18.7976 215.984 19.6642 214.924 19.6642C213.863 19.6642 212.997 18.7976 212.997 17.7371C212.997 16.6767 213.863 15.8101 214.924 15.8101C215.984 15.8101 216.851 16.6767 216.851 17.7371Z" fill="#4BB3EE"/>
        <path d="M234.183 17.7371C234.183 18.7976 233.316 19.6642 232.256 19.6642C231.195 19.6642 230.329 18.7976 230.329 17.7371C230.329 16.6767 231.195 15.8101 232.256 15.8101C233.316 15.8101 234.183 16.6767 234.183 17.7371Z" fill="#4BB3EE"/>
        <path d="M249.588 19.6642C250.652 19.6642 251.515 18.8014 251.515 17.7371C251.515 16.6728 250.652 15.8101 249.588 15.8101C248.523 15.8101 247.661 16.6728 247.661 17.7371C247.661 18.8014 248.523 19.6642 249.588 19.6642Z" fill="#4BB3EE"/>
        <path d="M266.92 19.6642C267.984 19.6642 268.847 18.8014 268.847 17.7371C268.847 16.6728 267.984 15.8101 266.92 15.8101C265.855 15.8101 264.993 16.6728 264.993 17.7371C264.993 18.8014 265.855 19.6642 266.92 19.6642Z" fill="#4BB3EE"/>
        <path d="M284.252 19.6642C285.316 19.6642 286.179 18.8014 286.179 17.7371C286.179 16.6728 285.316 15.8101 284.252 15.8101C283.187 15.8101 282.325 16.6728 282.325 17.7371C282.325 18.8014 283.187 19.6642 284.252 19.6642Z" fill="#4BB3EE"/>
        <path d="M301.584 19.6642C302.648 19.6642 303.511 18.8014 303.511 17.7371C303.511 16.6728 302.648 15.8101 301.584 15.8101C300.52 15.8101 299.657 16.6728 299.657 17.7371C299.657 18.8014 300.52 19.6642 301.584 19.6642Z" fill="#4BB3EE"/>
        <path d="M318.916 19.6642C319.98 19.6642 320.843 18.8014 320.843 17.7371C320.843 16.6728 319.98 15.8101 318.916 15.8101C317.852 15.8101 316.989 16.6728 316.989 17.7371C316.989 18.8014 317.852 19.6642 318.916 19.6642Z" fill="#4BB3EE"/>
        <path d="M336.248 19.6642C337.312 19.6642 338.175 18.8014 338.175 17.7371C338.175 16.6728 337.312 15.8101 336.248 15.8101C335.184 15.8101 334.321 16.6728 334.321 17.7371C334.321 18.8014 335.184 19.6642 336.248 19.6642Z" fill="#4BB3EE"/>
        <path d="M164.854 33.1423C164.854 34.2027 163.988 35.0693 162.927 35.0693C161.867 35.0693 161 34.2027 161 33.1423C161 32.0818 161.867 31.2152 162.927 31.2152C163.988 31.2152 164.854 32.0818 164.854 33.1423Z" fill="#4BB3EE"/>
        <path d="M182.186 33.1423C182.186 34.2027 181.32 35.0693 180.259 35.0693C179.199 35.0693 178.332 34.2027 178.332 33.1423C178.332 32.0818 179.199 31.2152 180.259 31.2152C181.32 31.2152 182.186 32.0818 182.186 33.1423Z" fill="#4BB3EE"/>
        <path d="M199.518 33.1423C199.518 34.2027 198.652 35.0693 197.591 35.0693C196.531 35.0693 195.664 34.2027 195.664 33.1423C195.664 32.0818 196.531 31.2152 197.591 31.2152C198.652 31.2152 199.518 32.0818 199.518 33.1423Z" fill="#4BB3EE"/>
        <path d="M216.851 33.1423C216.851 34.2027 215.984 35.0693 214.924 35.0693C213.863 35.0693 212.997 34.2027 212.997 33.1423C212.997 32.0818 213.863 31.2152 214.924 31.2152C215.984 31.2152 216.851 32.0818 216.851 33.1423Z" fill="#4BB3EE"/>
        <path d="M234.183 33.1423C234.183 34.2027 233.316 35.0693 232.256 35.0693C231.195 35.0693 230.329 34.2027 230.329 33.1423C230.329 32.0818 231.195 31.2152 232.256 31.2152C233.316 31.2152 234.183 32.0818 234.183 33.1423Z" fill="#4BB3EE"/>
        <path d="M251.515 33.1423C251.515 34.2027 250.648 35.0693 249.588 35.0693C248.527 35.0693 247.661 34.2027 247.661 33.1423C247.661 32.0818 248.527 31.2152 249.588 31.2152C250.648 31.2152 251.515 32.0818 251.515 33.1423Z" fill="#4BB3EE"/>
        <path d="M268.847 33.1423C268.847 34.2027 267.98 35.0693 266.92 35.0693C265.859 35.0693 264.993 34.2027 264.993 33.1423C264.993 32.0818 265.859 31.2152 266.92 31.2152C267.98 31.2152 268.847 32.0818 268.847 33.1423Z" fill="#4BB3EE"/>
        <path d="M286.179 33.1423C286.179 34.2027 285.312 35.0693 284.252 35.0693C283.191 35.0693 282.325 34.2027 282.325 33.1423C282.325 32.0818 283.191 31.2152 284.252 31.2152C285.312 31.2152 286.179 32.0818 286.179 33.1423Z" fill="#4BB3EE"/>
        <path d="M303.511 33.1423C303.511 34.2027 302.644 35.0693 301.584 35.0693C300.523 35.0693 299.657 34.2027 299.657 33.1423C299.657 32.0818 300.523 31.2152 301.584 31.2152C302.644 31.2152 303.511 32.0818 303.511 33.1423Z" fill="#4BB3EE"/>
        <path d="M320.843 33.1423C320.843 34.2027 319.976 35.0693 318.916 35.0693C317.855 35.0693 316.989 34.2027 316.989 33.1423C316.989 32.0818 317.855 31.2152 318.916 31.2152C319.976 31.2152 320.843 32.0818 320.843 33.1423Z" fill="#4BB3EE"/>
        <path d="M338.175 33.1423C338.175 34.2027 337.308 35.0693 336.248 35.0693C335.187 35.0693 334.321 34.2027 334.321 33.1423C334.321 32.0818 335.187 31.2152 336.248 31.2152C337.308 31.2152 338.175 32.0818 338.175 33.1423Z" fill="#4BB3EE"/>
        <path d="M164.854 48.5473C164.854 49.6078 163.988 50.4744 162.927 50.4744C161.867 50.4744 161 49.6078 161 48.5473C161 47.4868 161.867 46.6202 162.927 46.6202C163.988 46.6202 164.854 47.4868 164.854 48.5473Z" fill="#4BB3EE"/>
        <path d="M182.186 48.5473C182.186 49.6078 181.32 50.4744 180.259 50.4744C179.199 50.4744 178.332 49.6078 178.332 48.5473C178.332 47.4868 179.199 46.6202 180.259 46.6202C181.32 46.6202 182.186 47.4868 182.186 48.5473Z" fill="#4BB3EE"/>
        <path d="M199.518 48.5473C199.518 49.6078 198.652 50.4744 197.591 50.4744C196.531 50.4744 195.664 49.6078 195.664 48.5473C195.664 47.4868 196.531 46.6202 197.591 46.6202C198.652 46.6202 199.518 47.4868 199.518 48.5473Z" fill="#4BB3EE"/>
        <path d="M216.851 48.5473C216.851 49.6078 215.984 50.4744 214.924 50.4744C213.863 50.4744 212.997 49.6078 212.997 48.5473C212.997 47.4868 213.863 46.6202 214.924 46.6202C215.984 46.6202 216.851 47.4868 216.851 48.5473Z" fill="#4BB3EE"/>
        <path d="M234.183 48.5473C234.183 49.6078 233.316 50.4744 232.256 50.4744C231.195 50.4744 230.329 49.6078 230.329 48.5473C230.329 47.4868 231.195 46.6202 232.256 46.6202C233.316 46.6202 234.183 47.4868 234.183 48.5473Z" fill="#4BB3EE"/>
        <path d="M251.515 48.5473C251.515 49.6078 250.648 50.4744 249.588 50.4744C248.527 50.4744 247.661 49.6078 247.661 48.5473C247.661 47.4868 248.527 46.6202 249.588 46.6202C250.648 46.6202 251.515 47.4868 251.515 48.5473Z" fill="#4BB3EE"/>
        <path d="M268.847 48.5473C268.847 49.6078 267.98 50.4744 266.92 50.4744C265.859 50.4744 264.993 49.6078 264.993 48.5473C264.993 47.4868 265.859 46.6202 266.92 46.6202C267.98 46.6202 268.847 47.4868 268.847 48.5473Z" fill="#4BB3EE"/>
        <path d="M286.179 48.5473C286.179 49.6078 285.312 50.4744 284.252 50.4744C283.191 50.4744 282.325 49.6078 282.325 48.5473C282.325 47.4868 283.191 46.6202 284.252 46.6202C285.312 46.6202 286.179 47.4868 286.179 48.5473Z" fill="#4BB3EE"/>
        <path d="M303.511 48.5473C303.511 49.6078 302.644 50.4744 301.584 50.4744C300.523 50.4744 299.657 49.6078 299.657 48.5473C299.657 47.4868 300.523 46.6202 301.584 46.6202C302.644 46.6202 303.511 47.4868 303.511 48.5473Z" fill="#4BB3EE"/>
        <path d="M320.843 48.5473C320.843 49.6078 319.976 50.4744 318.916 50.4744C317.855 50.4744 316.989 49.6078 316.989 48.5473C316.989 47.4868 317.855 46.6202 318.916 46.6202C319.976 46.6202 320.843 47.4868 320.843 48.5473Z" fill="#4BB3EE"/>
        <path d="M338.175 48.5473C338.175 49.6078 337.308 50.4744 336.248 50.4744C335.187 50.4744 334.321 49.6078 334.321 48.5473C334.321 47.4868 335.187 46.6202 336.248 46.6202C337.308 46.6202 338.175 47.4868 338.175 48.5473Z" fill="#4BB3EE"/>
        <path d="M164.854 63.9523C164.854 65.0128 163.988 65.8794 162.927 65.8794C161.867 65.8794 161 65.0128 161 63.9523C161 62.8919 161.867 62.0253 162.927 62.0253C163.988 62.0253 164.854 62.8919 164.854 63.9523Z" fill="#4BB3EE"/>
        <path d="M182.186 63.9523C182.186 65.0128 181.32 65.8794 180.259 65.8794C179.199 65.8794 178.332 65.0128 178.332 63.9523C178.332 62.8919 179.199 62.0253 180.259 62.0253C181.32 62.0253 182.186 62.8919 182.186 63.9523Z" fill="#4BB3EE"/>
        <path d="M199.518 63.9523C199.518 65.0128 198.652 65.8794 197.591 65.8794C196.531 65.8794 195.664 65.0128 195.664 63.9523C195.664 62.8919 196.531 62.0253 197.591 62.0253C198.652 62.0253 199.518 62.8919 199.518 63.9523Z" fill="#4BB3EE"/>
        <path d="M216.851 63.9523C216.851 65.0128 215.984 65.8794 214.924 65.8794C213.863 65.8794 212.997 65.0128 212.997 63.9523C212.997 62.8919 213.863 62.0253 214.924 62.0253C215.984 62.0253 216.851 62.8919 216.851 63.9523Z" fill="#4BB3EE"/>
        <path d="M234.183 63.9523C234.183 65.0128 233.316 65.8794 232.256 65.8794C231.195 65.8794 230.329 65.0128 230.329 63.9523C230.329 62.8919 231.195 62.0253 232.256 62.0253C233.316 62.0253 234.183 62.8919 234.183 63.9523Z" fill="#4BB3EE"/>
        <path d="M251.515 63.9523C251.515 65.0128 250.648 65.8794 249.588 65.8794C248.527 65.8794 247.661 65.0128 247.661 63.9523C247.661 62.8919 248.527 62.0253 249.588 62.0253C250.648 62.0253 251.515 62.8919 251.515 63.9523Z" fill="#4BB3EE"/>
        <path d="M268.847 63.9523C268.847 65.0128 267.98 65.8794 266.92 65.8794C265.859 65.8794 264.993 65.0128 264.993 63.9523C264.993 62.8919 265.859 62.0253 266.92 62.0253C267.98 62.0253 268.847 62.8919 268.847 63.9523Z" fill="#4BB3EE"/>
        <path d="M286.179 63.9523C286.179 65.0128 285.312 65.8794 284.252 65.8794C283.191 65.8794 282.325 65.0128 282.325 63.9523C282.325 62.8919 283.191 62.0253 284.252 62.0253C285.312 62.0253 286.179 62.8919 286.179 63.9523Z" fill="#4BB3EE"/>
        <path d="M303.511 63.9523C303.511 65.0128 302.644 65.8794 301.584 65.8794C300.523 65.8794 299.657 65.0128 299.657 63.9523C299.657 62.8919 300.523 62.0253 301.584 62.0253C302.644 62.0253 303.511 62.8919 303.511 63.9523Z" fill="#4BB3EE"/>
        <path d="M320.843 63.9523C320.843 65.0128 319.976 65.8794 318.916 65.8794C317.855 65.8794 316.989 65.0128 316.989 63.9523C316.989 62.8919 317.855 62.0253 318.916 62.0253C319.976 62.0253 320.843 62.8919 320.843 63.9523Z" fill="#4BB3EE"/>
        <path d="M338.175 63.9523C338.175 65.0128 337.308 65.8794 336.248 65.8794C335.187 65.8794 334.321 65.0128 334.321 63.9523C334.321 62.8919 335.187 62.0253 336.248 62.0253C337.308 62.0253 338.175 62.8919 338.175 63.9523Z" fill="#4BB3EE"/>
        <path d="M162.927 81.2845C163.991 81.2845 164.854 80.4218 164.854 79.3575C164.854 78.2932 163.991 77.4304 162.927 77.4304C161.863 77.4304 161 78.2932 161 79.3575C161 80.4218 161.863 81.2845 162.927 81.2845Z" fill="#4BB3EE"/>
        <path d="M180.259 81.2845C181.323 81.2845 182.186 80.4218 182.186 79.3575C182.186 78.2932 181.323 77.4304 180.259 77.4304C179.195 77.4304 178.332 78.2932 178.332 79.3575C178.332 80.4218 179.195 81.2845 180.259 81.2845Z" fill="#4BB3EE"/>
        <path d="M197.591 81.2845C198.655 81.2845 199.518 80.4218 199.518 79.3575C199.518 78.2932 198.655 77.4304 197.591 77.4304C196.527 77.4304 195.664 78.2932 195.664 79.3575C195.664 80.4218 196.527 81.2845 197.591 81.2845Z" fill="#4BB3EE"/>
        <path d="M216.851 79.3575C216.851 80.4179 215.984 81.2845 214.924 81.2845C213.863 81.2845 212.997 80.4179 212.997 79.3575C212.997 78.297 213.863 77.4304 214.924 77.4304C215.984 77.4418 216.851 78.297 216.851 79.3575Z" fill="#4BB3EE"/>
        <path d="M234.183 79.3575C234.183 80.4179 233.316 81.2845 232.256 81.2845C231.195 81.2845 230.329 80.4179 230.329 79.3575C230.329 78.297 231.195 77.4304 232.256 77.4304C233.316 77.4418 234.183 78.297 234.183 79.3575Z" fill="#4BB3EE"/>
        <path d="M249.588 81.2845C250.652 81.2845 251.515 80.4218 251.515 79.3575C251.515 78.2932 250.652 77.4304 249.588 77.4304C248.523 77.4304 247.661 78.2932 247.661 79.3575C247.661 80.4218 248.523 81.2845 249.588 81.2845Z" fill="#4BB3EE"/>
        <path d="M266.92 81.2845C267.984 81.2845 268.847 80.4218 268.847 79.3575C268.847 78.2932 267.984 77.4304 266.92 77.4304C265.855 77.4304 264.993 78.2932 264.993 79.3575C264.993 80.4218 265.855 81.2845 266.92 81.2845Z" fill="#4BB3EE"/>
        <path d="M284.252 81.2845C285.316 81.2845 286.179 80.4218 286.179 79.3575C286.179 78.2932 285.316 77.4304 284.252 77.4304C283.187 77.4304 282.325 78.2932 282.325 79.3575C282.325 80.4218 283.187 81.2845 284.252 81.2845Z" fill="#4BB3EE"/>
        <path d="M301.584 81.2845C302.648 81.2845 303.511 80.4218 303.511 79.3575C303.511 78.2932 302.648 77.4304 301.584 77.4304C300.52 77.4304 299.657 78.2932 299.657 79.3575C299.657 80.4218 300.52 81.2845 301.584 81.2845Z" fill="#4BB3EE"/>
        <path d="M318.916 81.2845C319.98 81.2845 320.843 80.4218 320.843 79.3575C320.843 78.2932 319.98 77.4304 318.916 77.4304C317.852 77.4304 316.989 78.2932 316.989 79.3575C316.989 80.4218 317.852 81.2845 318.916 81.2845Z" fill="#4BB3EE"/>
        <path d="M336.248 81.2845C337.312 81.2845 338.175 80.4218 338.175 79.3575C338.175 78.2932 337.312 77.4304 336.248 77.4304C335.184 77.4304 334.321 78.2932 334.321 79.3575C334.321 80.4218 335.184 81.2845 336.248 81.2845Z" fill="#4BB3EE"/>
        <path d="M164.854 94.774C164.854 95.8344 163.988 96.701 162.927 96.701C161.867 96.701 161 95.8344 161 94.774C161 93.7135 161.867 92.8469 162.927 92.8469C163.988 92.8469 164.854 93.7021 164.854 94.774Z" fill="#4BB3EE"/>
        <path d="M182.186 94.7739C182.186 95.8343 181.32 96.7009 180.259 96.7009C179.199 96.7009 178.332 95.8343 178.332 94.7739C178.332 93.7134 179.199 92.8468 180.259 92.8468C181.32 92.8468 182.186 93.702 182.186 94.7739Z" fill="#4BB3EE"/>
        <path d="M199.518 94.7739C199.518 95.8343 198.652 96.7009 197.591 96.7009C196.531 96.7009 195.664 95.8343 195.664 94.7739C195.664 93.7134 196.531 92.8468 197.591 92.8468C198.652 92.8468 199.518 93.702 199.518 94.7739Z" fill="#4BB3EE"/>
        <path d="M216.851 94.7739C216.851 95.8343 215.984 96.7009 214.924 96.7009C213.863 96.7009 212.997 95.8343 212.997 94.7739C212.997 93.7134 213.863 92.8468 214.924 92.8468C215.984 92.8468 216.851 93.702 216.851 94.7739Z" fill="#4BB3EE"/>
        <path d="M234.183 94.7739C234.183 95.8343 233.316 96.7009 232.256 96.7009C231.195 96.7009 230.329 95.8343 230.329 94.7739C230.329 93.7134 231.195 92.8468 232.256 92.8468C233.316 92.8468 234.183 93.702 234.183 94.7739Z" fill="#4BB3EE"/>
        <path d="M251.515 94.7739C251.515 95.8343 250.648 96.7009 249.588 96.7009C248.527 96.7009 247.661 95.8343 247.661 94.7739C247.661 93.7134 248.527 92.8468 249.588 92.8468C250.648 92.8468 251.515 93.702 251.515 94.7739Z" fill="#4BB3EE"/>
        <path d="M268.847 94.7739C268.847 95.8343 267.98 96.7009 266.92 96.7009C265.859 96.7009 264.993 95.8343 264.993 94.7739C264.993 93.7134 265.859 92.8468 266.92 92.8468C267.98 92.8468 268.847 93.702 268.847 94.7739Z" fill="#4BB3EE"/>
        <path d="M286.179 94.7739C286.179 95.8343 285.312 96.7009 284.252 96.7009C283.191 96.7009 282.325 95.8343 282.325 94.7739C282.325 93.7134 283.191 92.8468 284.252 92.8468C285.312 92.8468 286.179 93.702 286.179 94.7739Z" fill="#4BB3EE"/>
        <path d="M303.511 94.7739C303.511 95.8343 302.644 96.7009 301.584 96.7009C300.523 96.7009 299.657 95.8343 299.657 94.7739C299.657 93.7134 300.523 92.8468 301.584 92.8468C302.644 92.8468 303.511 93.702 303.511 94.7739Z" fill="#4BB3EE"/>
        <path d="M320.843 94.7739C320.843 95.8343 319.976 96.7009 318.916 96.7009C317.855 96.7009 316.989 95.8343 316.989 94.7739C316.989 93.7134 317.855 92.8468 318.916 92.8468C319.976 92.8468 320.843 93.702 320.843 94.7739Z" fill="#4BB3EE"/>
        <path d="M338.175 94.7739C338.175 95.8343 337.308 96.7009 336.248 96.7009C335.187 96.7009 334.321 95.8343 334.321 94.7739C334.321 93.7134 335.187 92.8468 336.248 92.8468C337.308 92.8468 338.175 93.702 338.175 94.7739Z" fill="#4BB3EE"/>
        <path d="M164.854 110.179C164.854 111.239 163.988 112.106 162.927 112.106C161.867 112.106 161 111.239 161 110.179C161 109.118 161.867 108.252 162.927 108.252C163.988 108.252 164.854 109.107 164.854 110.179Z" fill="#4BB3EE"/>
        <path d="M182.186 110.179C182.186 111.239 181.32 112.106 180.259 112.106C179.199 112.106 178.332 111.239 178.332 110.179C178.332 109.118 179.199 108.252 180.259 108.252C181.32 108.252 182.186 109.107 182.186 110.179Z" fill="#4BB3EE"/>
        <path d="M199.518 110.179C199.518 111.239 198.652 112.106 197.591 112.106C196.531 112.106 195.664 111.239 195.664 110.179C195.664 109.118 196.531 108.252 197.591 108.252C198.652 108.252 199.518 109.107 199.518 110.179Z" fill="#4BB3EE"/>
        <path d="M216.851 110.179C216.851 111.239 215.984 112.106 214.924 112.106C213.863 112.106 212.997 111.239 212.997 110.179C212.997 109.118 213.863 108.252 214.924 108.252C215.984 108.252 216.851 109.107 216.851 110.179Z" fill="#4BB3EE"/>
        <path d="M234.183 110.179C234.183 111.239 233.316 112.106 232.256 112.106C231.195 112.106 230.329 111.239 230.329 110.179C230.329 109.118 231.195 108.252 232.256 108.252C233.316 108.252 234.183 109.107 234.183 110.179Z" fill="#4BB3EE"/>
        <path d="M251.515 110.179C251.515 111.239 250.648 112.106 249.588 112.106C248.527 112.106 247.661 111.239 247.661 110.179C247.661 109.118 248.527 108.252 249.588 108.252C250.648 108.252 251.515 109.107 251.515 110.179Z" fill="#4BB3EE"/>
        <path d="M268.847 110.179C268.847 111.239 267.98 112.106 266.92 112.106C265.859 112.106 264.993 111.239 264.993 110.179C264.993 109.118 265.859 108.252 266.92 108.252C267.98 108.252 268.847 109.107 268.847 110.179Z" fill="#4BB3EE"/>
        <path d="M286.179 110.179C286.179 111.239 285.312 112.106 284.252 112.106C283.191 112.106 282.325 111.239 282.325 110.179C282.325 109.118 283.191 108.252 284.252 108.252C285.312 108.252 286.179 109.107 286.179 110.179Z" fill="#4BB3EE"/>
        <path d="M303.511 110.179C303.511 111.239 302.644 112.106 301.584 112.106C300.523 112.106 299.657 111.239 299.657 110.179C299.657 109.118 300.523 108.252 301.584 108.252C302.644 108.252 303.511 109.107 303.511 110.179Z" fill="#4BB3EE"/>
        <path d="M320.843 110.179C320.843 111.239 319.976 112.106 318.916 112.106C317.855 112.106 316.989 111.239 316.989 110.179C316.989 109.118 317.855 108.252 318.916 108.252C319.976 108.252 320.843 109.107 320.843 110.179Z" fill="#4BB3EE"/>
        <path d="M338.175 110.179C338.175 111.239 337.308 112.106 336.248 112.106C335.187 112.106 334.321 111.239 334.321 110.179C334.321 109.118 335.187 108.252 336.248 108.252C337.308 108.252 338.175 109.107 338.175 110.179Z" fill="#4BB3EE"/>
        <path d="M164.854 125.584C164.854 126.644 163.988 127.511 162.927 127.511C161.867 127.511 161 126.644 161 125.584C161 124.523 161.867 123.657 162.927 123.657C163.988 123.657 164.854 124.523 164.854 125.584Z" fill="#4BB3EE"/>
        <path d="M182.186 125.584C182.186 126.644 181.32 127.511 180.259 127.511C179.199 127.511 178.332 126.644 178.332 125.584C178.332 124.523 179.199 123.657 180.259 123.657C181.32 123.657 182.186 124.523 182.186 125.584Z" fill="#4BB3EE"/>
        <path d="M199.518 125.584C199.518 126.644 198.652 127.511 197.591 127.511C196.531 127.511 195.664 126.644 195.664 125.584C195.664 124.523 196.531 123.657 197.591 123.657C198.652 123.657 199.518 124.523 199.518 125.584Z" fill="#4BB3EE"/>
        <path d="M216.851 125.584C216.851 126.644 215.984 127.511 214.924 127.511C213.863 127.511 212.997 126.644 212.997 125.584C212.997 124.523 213.863 123.657 214.924 123.657C215.984 123.657 216.851 124.523 216.851 125.584Z" fill="#4BB3EE"/>
        <path d="M234.183 125.584C234.183 126.644 233.316 127.511 232.256 127.511C231.195 127.511 230.329 126.644 230.329 125.584C230.329 124.523 231.195 123.657 232.256 123.657C233.316 123.657 234.183 124.523 234.183 125.584Z" fill="#4BB3EE"/>
        <path d="M251.515 125.584C251.515 126.644 250.648 127.511 249.588 127.511C248.527 127.511 247.661 126.644 247.661 125.584C247.661 124.523 248.527 123.657 249.588 123.657C250.648 123.657 251.515 124.523 251.515 125.584Z" fill="#4BB3EE"/>
        <path d="M268.847 125.584C268.847 126.644 267.98 127.511 266.92 127.511C265.859 127.511 264.993 126.644 264.993 125.584C264.993 124.523 265.859 123.657 266.92 123.657C267.98 123.657 268.847 124.523 268.847 125.584Z" fill="#4BB3EE"/>
        <path d="M286.179 125.584C286.179 126.644 285.312 127.511 284.252 127.511C283.191 127.511 282.325 126.644 282.325 125.584C282.325 124.523 283.191 123.657 284.252 123.657C285.312 123.657 286.179 124.523 286.179 125.584Z" fill="#4BB3EE"/>
        <path d="M303.511 125.584C303.511 126.644 302.644 127.511 301.584 127.511C300.523 127.511 299.657 126.644 299.657 125.584C299.657 124.523 300.523 123.657 301.584 123.657C302.644 123.657 303.511 124.523 303.511 125.584Z" fill="#4BB3EE"/>
        <path d="M320.843 125.584C320.843 126.644 319.976 127.511 318.916 127.511C317.855 127.511 316.989 126.644 316.989 125.584C316.989 124.523 317.855 123.657 318.916 123.657C319.976 123.657 320.843 124.523 320.843 125.584Z" fill="#4BB3EE"/>
        <path d="M338.175 125.584C338.175 126.644 337.308 127.511 336.248 127.511C335.187 127.511 334.321 126.644 334.321 125.584C334.321 124.523 335.187 123.657 336.248 123.657C337.308 123.657 338.175 124.523 338.175 125.584Z" fill="#4BB3EE"/>
        <path d="M162.927 142.916C163.991 142.916 164.854 142.053 164.854 140.989C164.854 139.925 163.991 139.062 162.927 139.062C161.863 139.062 161 139.925 161 140.989C161 142.053 161.863 142.916 162.927 142.916Z" fill="#4BB3EE"/>
        <path d="M180.259 142.916C181.323 142.916 182.186 142.053 182.186 140.989C182.186 139.925 181.323 139.062 180.259 139.062C179.195 139.062 178.332 139.925 178.332 140.989C178.332 142.053 179.195 142.916 180.259 142.916Z" fill="#4BB3EE"/>
        <path d="M197.591 142.916C198.655 142.916 199.518 142.053 199.518 140.989C199.518 139.925 198.655 139.062 197.591 139.062C196.527 139.062 195.664 139.925 195.664 140.989C195.664 142.053 196.527 142.916 197.591 142.916Z" fill="#4BB3EE"/>
        <path d="M216.851 140.989C216.851 142.049 215.984 142.916 214.924 142.916C213.863 142.916 212.997 142.049 212.997 140.989C212.997 139.928 213.863 139.062 214.924 139.062C215.984 139.062 216.851 139.928 216.851 140.989Z" fill="#4BB3EE"/>
        <path d="M234.183 140.989C234.183 142.049 233.316 142.916 232.256 142.916C231.195 142.916 230.329 142.049 230.329 140.989C230.329 139.928 231.195 139.062 232.256 139.062C233.316 139.062 234.183 139.928 234.183 140.989Z" fill="#4BB3EE"/>
        <path d="M249.588 142.916C250.652 142.916 251.515 142.053 251.515 140.989C251.515 139.925 250.652 139.062 249.588 139.062C248.523 139.062 247.661 139.925 247.661 140.989C247.661 142.053 248.523 142.916 249.588 142.916Z" fill="#4BB3EE"/>
        <path d="M266.92 142.916C267.984 142.916 268.847 142.053 268.847 140.989C268.847 139.925 267.984 139.062 266.92 139.062C265.855 139.062 264.993 139.925 264.993 140.989C264.993 142.053 265.855 142.916 266.92 142.916Z" fill="#4BB3EE"/>
        <path d="M284.252 142.916C285.316 142.916 286.179 142.053 286.179 140.989C286.179 139.925 285.316 139.062 284.252 139.062C283.187 139.062 282.325 139.925 282.325 140.989C282.325 142.053 283.187 142.916 284.252 142.916Z" fill="#4BB3EE"/>
        <path d="M301.584 142.916C302.648 142.916 303.511 142.053 303.511 140.989C303.511 139.925 302.648 139.062 301.584 139.062C300.52 139.062 299.657 139.925 299.657 140.989C299.657 142.053 300.52 142.916 301.584 142.916Z" fill="#4BB3EE"/>
        <path d="M318.916 142.916C319.98 142.916 320.843 142.053 320.843 140.989C320.843 139.925 319.98 139.062 318.916 139.062C317.852 139.062 316.989 139.925 316.989 140.989C316.989 142.053 317.852 142.916 318.916 142.916Z" fill="#4BB3EE"/>
        <path d="M336.248 142.916C337.312 142.916 338.175 142.053 338.175 140.989C338.175 139.925 337.312 139.062 336.248 139.062C335.184 139.062 334.321 139.925 334.321 140.989C334.321 142.053 335.184 142.916 336.248 142.916Z" fill="#4BB3EE"/>
        <path d="M164.854 156.394C164.854 157.455 163.988 158.321 162.927 158.321C161.867 158.321 161 157.455 161 156.394C161 155.334 161.867 154.467 162.927 154.467C163.988 154.467 164.854 155.334 164.854 156.394Z" fill="#4BB3EE"/>
        <path d="M182.186 156.394C182.186 157.455 181.32 158.321 180.259 158.321C179.199 158.321 178.332 157.455 178.332 156.394C178.332 155.334 179.199 154.467 180.259 154.467C181.32 154.467 182.186 155.334 182.186 156.394Z" fill="#4BB3EE"/>
        <path d="M199.518 156.394C199.518 157.455 198.652 158.321 197.591 158.321C196.531 158.321 195.664 157.455 195.664 156.394C195.664 155.334 196.531 154.467 197.591 154.467C198.652 154.467 199.518 155.334 199.518 156.394Z" fill="#4BB3EE"/>
        <path d="M216.851 156.394C216.851 157.455 215.984 158.321 214.924 158.321C213.863 158.321 212.997 157.455 212.997 156.394C212.997 155.334 213.863 154.467 214.924 154.467C215.984 154.467 216.851 155.334 216.851 156.394Z" fill="#4BB3EE"/>
        <path d="M234.183 156.394C234.183 157.455 233.316 158.321 232.256 158.321C231.195 158.321 230.329 157.455 230.329 156.394C230.329 155.334 231.195 154.467 232.256 154.467C233.316 154.467 234.183 155.334 234.183 156.394Z" fill="#4BB3EE"/>
        <path d="M251.515 156.394C251.515 157.455 250.648 158.321 249.588 158.321C248.527 158.321 247.661 157.455 247.661 156.394C247.661 155.334 248.527 154.467 249.588 154.467C250.648 154.467 251.515 155.334 251.515 156.394Z" fill="#4BB3EE"/>
        <path d="M268.847 156.394C268.847 157.455 267.98 158.321 266.92 158.321C265.859 158.321 264.993 157.455 264.993 156.394C264.993 155.334 265.859 154.467 266.92 154.467C267.98 154.467 268.847 155.334 268.847 156.394Z" fill="#4BB3EE"/>
        <path d="M286.179 156.394C286.179 157.455 285.312 158.321 284.252 158.321C283.191 158.321 282.325 157.455 282.325 156.394C282.325 155.334 283.191 154.467 284.252 154.467C285.312 154.467 286.179 155.334 286.179 156.394Z" fill="#4BB3EE"/>
        <path d="M303.511 156.394C303.511 157.455 302.644 158.321 301.584 158.321C300.523 158.321 299.657 157.455 299.657 156.394C299.657 155.334 300.523 154.467 301.584 154.467C302.644 154.467 303.511 155.334 303.511 156.394Z" fill="#4BB3EE"/>
        <path d="M320.843 156.394C320.843 157.455 319.976 158.321 318.916 158.321C317.855 158.321 316.989 157.455 316.989 156.394C316.989 155.334 317.855 154.467 318.916 154.467C319.976 154.467 320.843 155.334 320.843 156.394Z" fill="#4BB3EE"/>
        <path d="M338.175 156.394C338.175 157.455 337.308 158.321 336.248 158.321C335.187 158.321 334.321 157.455 334.321 156.394C334.321 155.334 335.187 154.467 336.248 154.467C337.308 154.467 338.175 155.334 338.175 156.394Z" fill="#4BB3EE"/>
        <path d="M1847.86 848.069C1847.86 850.317 1849.68 852.139 1851.93 852.139C1854.18 852.139 1856 850.317 1856 848.069C1856 845.822 1854.18 844 1851.93 844C1849.68 844 1847.86 845.822 1847.86 848.069Z" fill="#FFC300"/>
        <path d="M1847.86 884.669C1847.86 886.917 1849.68 888.739 1851.93 888.739C1854.18 888.739 1856 886.917 1856 884.669C1856 882.422 1854.18 880.6 1851.93 880.6C1849.68 880.6 1847.86 882.422 1847.86 884.669Z" fill="#FFC300"/>
        <path d="M1847.86 921.269C1847.86 923.517 1849.68 925.339 1851.93 925.339C1854.18 925.339 1856 923.517 1856 921.269C1856 919.022 1854.18 917.2 1851.93 917.2C1849.68 917.2 1847.86 919.022 1847.86 921.269Z" fill="#FFC300"/>
        <path d="M1851.93 961.939C1849.69 961.939 1847.86 960.109 1847.86 957.87C1847.86 955.631 1849.69 953.801 1851.93 953.801C1854.17 953.801 1856 955.631 1856 957.87C1856 960.109 1854.17 961.939 1851.93 961.939Z" fill="#FFC300"/>
        <path d="M1851.93 998.539C1849.69 998.539 1847.86 996.709 1847.86 994.469C1847.86 992.23 1849.69 990.4 1851.93 990.4C1854.17 990.4 1856 992.23 1856 994.469C1856 996.709 1854.17 998.539 1851.93 998.539Z" fill="#FFC300"/>
        <path d="M1847.86 1031.07C1847.86 1033.32 1849.68 1035.14 1851.93 1035.14C1854.18 1035.14 1856 1033.32 1856 1031.07C1856 1028.82 1854.18 1027 1851.93 1027C1849.68 1027 1847.86 1028.82 1847.86 1031.07Z" fill="#FFC300"/>
        <path d="M1847.86 1067.67C1847.86 1069.92 1849.68 1071.74 1851.93 1071.74C1854.18 1071.74 1856 1069.92 1856 1067.67C1856 1065.42 1854.18 1063.6 1851.93 1063.6C1849.68 1063.6 1847.86 1065.42 1847.86 1067.67Z" fill="#FFC300"/>
        <path d="M1815.33 848.069C1815.33 850.317 1817.15 852.139 1819.4 852.139C1821.65 852.139 1823.47 850.317 1823.47 848.069C1823.47 845.822 1821.65 844 1819.4 844C1817.15 844 1815.33 845.822 1815.33 848.069Z" fill="#FFC300"/>
        <path d="M1815.33 884.669C1815.33 886.917 1817.15 888.739 1819.4 888.739C1821.65 888.739 1823.47 886.917 1823.47 884.669C1823.47 882.422 1821.65 880.6 1819.4 880.6C1817.15 880.6 1815.33 882.422 1815.33 884.669Z" fill="#FFC300"/>
        <path d="M1815.33 921.269C1815.33 923.517 1817.15 925.339 1819.4 925.339C1821.65 925.339 1823.47 923.517 1823.47 921.269C1823.47 919.022 1821.65 917.2 1819.4 917.2C1817.15 917.2 1815.33 919.022 1815.33 921.269Z" fill="#FFC300"/>
        <path d="M1819.4 961.939C1817.16 961.939 1815.33 960.109 1815.33 957.87C1815.33 955.631 1817.16 953.801 1819.4 953.801C1821.64 953.801 1823.47 955.631 1823.47 957.87C1823.47 960.109 1821.64 961.939 1819.4 961.939Z" fill="#FFC300"/>
        <path d="M1819.4 998.539C1817.16 998.539 1815.33 996.709 1815.33 994.469C1815.33 992.23 1817.16 990.4 1819.4 990.4C1821.64 990.4 1823.47 992.23 1823.47 994.469C1823.47 996.709 1821.64 998.539 1819.4 998.539Z" fill="#FFC300"/>
        <path d="M1815.33 1031.07C1815.33 1033.32 1817.15 1035.14 1819.4 1035.14C1821.65 1035.14 1823.47 1033.32 1823.47 1031.07C1823.47 1028.82 1821.65 1027 1819.4 1027C1817.15 1027 1815.33 1028.82 1815.33 1031.07Z" fill="#FFC300"/>
        <path d="M1815.33 1067.67C1815.33 1069.92 1817.15 1071.74 1819.4 1071.74C1821.65 1071.74 1823.47 1069.92 1823.47 1067.67C1823.47 1065.42 1821.65 1063.6 1819.4 1063.6C1817.15 1063.6 1815.33 1065.42 1815.33 1067.67Z" fill="#FFC300"/>
        <path d="M1782.8 848.069C1782.8 850.317 1784.62 852.139 1786.87 852.139C1789.12 852.139 1790.94 850.317 1790.94 848.069C1790.94 845.822 1789.12 844 1786.87 844C1784.62 844 1782.8 845.822 1782.8 848.069Z" fill="#FFC300"/>
        <path d="M1782.8 884.669C1782.8 886.917 1784.62 888.739 1786.87 888.739C1789.12 888.739 1790.94 886.917 1790.94 884.669C1790.94 882.422 1789.12 880.6 1786.87 880.6C1784.62 880.6 1782.8 882.422 1782.8 884.669Z" fill="#FFC300"/>
        <path d="M1782.8 921.269C1782.8 923.517 1784.62 925.339 1786.87 925.339C1789.12 925.339 1790.94 923.517 1790.94 921.269C1790.94 919.022 1789.12 917.2 1786.87 917.2C1784.62 917.2 1782.8 919.022 1782.8 921.269Z" fill="#FFC300"/>
        <path d="M1786.87 961.939C1784.63 961.939 1782.8 960.109 1782.8 957.87C1782.8 955.631 1784.63 953.801 1786.87 953.801C1789.11 953.801 1790.94 955.631 1790.94 957.87C1790.94 960.109 1789.11 961.939 1786.87 961.939Z" fill="#FFC300"/>
        <path d="M1786.87 998.539C1784.63 998.539 1782.8 996.709 1782.8 994.469C1782.8 992.23 1784.63 990.4 1786.87 990.4C1789.11 990.4 1790.94 992.23 1790.94 994.469C1790.94 996.709 1789.11 998.539 1786.87 998.539Z" fill="#FFC300"/>
        <path d="M1782.8 1031.07C1782.8 1033.32 1784.62 1035.14 1786.87 1035.14C1789.12 1035.14 1790.94 1033.32 1790.94 1031.07C1790.94 1028.82 1789.12 1027 1786.87 1027C1784.62 1027 1782.8 1028.82 1782.8 1031.07Z" fill="#FFC300"/>
        <path d="M1782.8 1067.67C1782.8 1069.92 1784.62 1071.74 1786.87 1071.74C1789.12 1071.74 1790.94 1069.92 1790.94 1067.67C1790.94 1065.42 1789.12 1063.6 1786.87 1063.6C1784.62 1063.6 1782.8 1065.42 1782.8 1067.67Z" fill="#FFC300"/>
        <path d="M1754.34 852.139C1752.1 852.139 1750.27 850.309 1750.27 848.069C1750.27 845.83 1752.1 844 1754.34 844C1756.58 844 1758.41 845.83 1758.41 848.069C1758.41 850.309 1756.58 852.139 1754.34 852.139Z" fill="#FFC300"/>
        <path d="M1754.34 888.739C1752.1 888.739 1750.27 886.909 1750.27 884.669C1750.27 882.43 1752.1 880.6 1754.34 880.6C1756.58 880.6 1758.41 882.43 1758.41 884.669C1758.41 886.909 1756.58 888.739 1754.34 888.739Z" fill="#FFC300"/>
        <path d="M1754.34 925.339C1752.1 925.339 1750.27 923.509 1750.27 921.269C1750.27 919.03 1752.1 917.2 1754.34 917.2C1756.58 917.2 1758.41 919.03 1758.41 921.269C1758.41 923.509 1756.58 925.339 1754.34 925.339Z" fill="#FFC300"/>
        <path d="M1754.34 961.939C1752.1 961.939 1750.27 960.109 1750.27 957.87C1750.27 955.631 1752.1 953.801 1754.34 953.801C1756.58 953.801 1758.41 955.631 1758.41 957.87C1758.41 960.109 1756.58 961.939 1754.34 961.939Z" fill="#FFC300"/>
        <path d="M1754.34 998.539C1752.1 998.539 1750.27 996.709 1750.27 994.469C1750.27 992.23 1752.1 990.4 1754.34 990.4C1756.58 990.4 1758.41 992.23 1758.41 994.469C1758.41 996.709 1756.58 998.539 1754.34 998.539Z" fill="#FFC300"/>
        <path d="M1754.34 1035.14C1752.1 1035.14 1750.27 1033.31 1750.27 1031.07C1750.27 1028.83 1752.1 1027 1754.34 1027C1756.58 1027 1758.41 1028.83 1758.41 1031.07C1758.41 1033.31 1756.58 1035.14 1754.34 1035.14Z" fill="#FFC300"/>
        <path d="M1754.34 1071.74C1752.1 1071.74 1750.27 1069.91 1750.27 1067.67C1750.27 1065.43 1752.1 1063.6 1754.34 1063.6C1756.58 1063.6 1758.41 1065.43 1758.41 1067.67C1758.41 1069.91 1756.58 1071.74 1754.34 1071.74Z" fill="#FFC300"/>
        <path d="M1721.81 852.139C1719.57 852.139 1717.74 850.309 1717.74 848.069C1717.74 845.83 1719.57 844 1721.81 844C1724.05 844 1725.88 845.83 1725.88 848.069C1725.88 850.309 1724.05 852.139 1721.81 852.139Z" fill="#FFC300"/>
        <path d="M1721.81 888.739C1719.57 888.739 1717.74 886.909 1717.74 884.669C1717.74 882.43 1719.57 880.6 1721.81 880.6C1724.05 880.6 1725.88 882.43 1725.88 884.669C1725.88 886.909 1724.05 888.739 1721.81 888.739Z" fill="#FFC300"/>
        <path d="M1721.81 925.339C1719.57 925.339 1717.74 923.509 1717.74 921.269C1717.74 919.03 1719.57 917.2 1721.81 917.2C1724.05 917.2 1725.88 919.03 1725.88 921.269C1725.88 923.509 1724.05 925.339 1721.81 925.339Z" fill="#FFC300"/>
        <path d="M1721.81 961.939C1719.57 961.939 1717.74 960.109 1717.74 957.87C1717.74 955.631 1719.57 953.801 1721.81 953.801C1724.05 953.801 1725.88 955.631 1725.88 957.87C1725.88 960.109 1724.05 961.939 1721.81 961.939Z" fill="#FFC300"/>
        <path d="M1721.81 998.539C1719.57 998.539 1717.74 996.709 1717.74 994.469C1717.74 992.23 1719.57 990.4 1721.81 990.4C1724.05 990.4 1725.88 992.23 1725.88 994.469C1725.88 996.709 1724.05 998.539 1721.81 998.539Z" fill="#FFC300"/>
        <path d="M1721.81 1035.14C1719.57 1035.14 1717.74 1033.31 1717.74 1031.07C1717.74 1028.83 1719.57 1027 1721.81 1027C1724.05 1027 1725.88 1028.83 1725.88 1031.07C1725.88 1033.31 1724.05 1035.14 1721.81 1035.14Z" fill="#FFC300"/>
        <path d="M1721.81 1071.74C1719.57 1071.74 1717.74 1069.91 1717.74 1067.67C1717.74 1065.43 1719.57 1063.6 1721.81 1063.6C1724.05 1063.6 1725.88 1065.43 1725.88 1067.67C1725.88 1069.91 1724.05 1071.74 1721.81 1071.74Z" fill="#FFC300"/>
        <path d="M1689.28 852.139C1687.04 852.139 1685.21 850.309 1685.21 848.069C1685.21 845.83 1687.04 844 1689.28 844C1691.52 844 1693.35 845.83 1693.35 848.069C1693.35 850.309 1691.52 852.139 1689.28 852.139Z" fill="#FFC300"/>
        <path d="M1689.28 888.739C1687.04 888.739 1685.21 886.909 1685.21 884.669C1685.21 882.43 1687.04 880.6 1689.28 880.6C1691.52 880.6 1693.35 882.43 1693.35 884.669C1693.35 886.909 1691.52 888.739 1689.28 888.739Z" fill="#FFC300"/>
        <path d="M1689.28 925.339C1687.04 925.339 1685.21 923.509 1685.21 921.269C1685.21 919.03 1687.04 917.2 1689.28 917.2C1691.52 917.2 1693.35 919.03 1693.35 921.269C1693.35 923.509 1691.52 925.339 1689.28 925.339Z" fill="#FFC300"/>
        <path d="M1689.28 961.939C1687.04 961.939 1685.21 960.109 1685.21 957.87C1685.21 955.631 1687.04 953.801 1689.28 953.801C1691.52 953.801 1693.35 955.631 1693.35 957.87C1693.35 960.109 1691.52 961.939 1689.28 961.939Z" fill="#FFC300"/>
        <path d="M1689.28 998.539C1687.04 998.539 1685.21 996.709 1685.21 994.469C1685.21 992.23 1687.04 990.4 1689.28 990.4C1691.52 990.4 1693.35 992.23 1693.35 994.469C1693.35 996.709 1691.52 998.539 1689.28 998.539Z" fill="#FFC300"/>
        <path d="M1689.28 1035.14C1687.04 1035.14 1685.21 1033.31 1685.21 1031.07C1685.21 1028.83 1687.04 1027 1689.28 1027C1691.52 1027 1693.35 1028.83 1693.35 1031.07C1693.35 1033.31 1691.52 1035.14 1689.28 1035.14Z" fill="#FFC300"/>
        <path d="M1689.28 1071.74C1687.04 1071.74 1685.21 1069.91 1685.21 1067.67C1685.21 1065.43 1687.04 1063.6 1689.28 1063.6C1691.52 1063.6 1693.35 1065.43 1693.35 1067.67C1693.35 1069.91 1691.52 1071.74 1689.28 1071.74Z" fill="#FFC300"/>
        <path d="M1652.68 848.069C1652.68 850.317 1654.5 852.139 1656.75 852.139C1658.99 852.139 1660.82 850.317 1660.82 848.069C1660.82 845.822 1658.99 844 1656.75 844C1654.5 844 1652.68 845.822 1652.68 848.069Z" fill="#FFC300"/>
        <path d="M1652.68 884.669C1652.68 886.917 1654.5 888.739 1656.75 888.739C1658.99 888.739 1660.82 886.917 1660.82 884.669C1660.82 882.422 1658.99 880.6 1656.75 880.6C1654.5 880.6 1652.68 882.422 1652.68 884.669Z" fill="#FFC300"/>
        <path d="M1652.68 921.269C1652.68 923.517 1654.5 925.339 1656.75 925.339C1658.99 925.339 1660.82 923.517 1660.82 921.269C1660.82 919.022 1658.99 917.2 1656.75 917.2C1654.5 917.2 1652.68 919.022 1652.68 921.269Z" fill="#FFC300"/>
        <path d="M1656.75 961.939C1654.51 961.939 1652.68 960.109 1652.68 957.87C1652.68 955.631 1654.51 953.801 1656.75 953.801C1658.99 953.801 1660.82 955.631 1660.82 957.87C1660.79 960.109 1658.99 961.939 1656.75 961.939Z" fill="#FFC300"/>
        <path d="M1656.75 998.539C1654.51 998.539 1652.68 996.709 1652.68 994.469C1652.68 992.23 1654.51 990.4 1656.75 990.4C1658.99 990.4 1660.82 992.23 1660.82 994.469C1660.79 996.709 1658.99 998.539 1656.75 998.539Z" fill="#FFC300"/>
        <path d="M1652.68 1031.07C1652.68 1033.32 1654.5 1035.14 1656.75 1035.14C1658.99 1035.14 1660.82 1033.32 1660.82 1031.07C1660.82 1028.82 1658.99 1027 1656.75 1027C1654.5 1027 1652.68 1028.82 1652.68 1031.07Z" fill="#FFC300"/>
        <path d="M1652.68 1067.67C1652.68 1069.92 1654.5 1071.74 1656.75 1071.74C1658.99 1071.74 1660.82 1069.92 1660.82 1067.67C1660.82 1065.42 1658.99 1063.6 1656.75 1063.6C1654.5 1063.6 1652.68 1065.42 1652.68 1067.67Z" fill="#FFC300"/>
        <path d="M1624.19 852.139C1621.95 852.139 1620.12 850.309 1620.12 848.069C1620.12 845.83 1621.95 844 1624.19 844C1626.43 844 1628.26 845.83 1628.26 848.069C1628.26 850.309 1626.46 852.139 1624.19 852.139Z" fill="#FFC300"/>
        <path d="M1624.19 888.739C1621.95 888.739 1620.12 886.909 1620.12 884.669C1620.12 882.43 1621.95 880.6 1624.19 880.6C1626.43 880.6 1628.26 882.43 1628.26 884.669C1628.26 886.909 1626.46 888.739 1624.19 888.739Z" fill="#FFC300"/>
        <path d="M1624.19 925.339C1621.95 925.339 1620.12 923.509 1620.12 921.269C1620.12 919.03 1621.95 917.2 1624.19 917.2C1626.43 917.2 1628.26 919.03 1628.26 921.269C1628.26 923.509 1626.46 925.339 1624.19 925.339Z" fill="#FFC300"/>
        <path d="M1624.19 961.939C1621.95 961.939 1620.12 960.109 1620.12 957.87C1620.12 955.631 1621.95 953.801 1624.19 953.801C1626.43 953.801 1628.26 955.631 1628.26 957.87C1628.26 960.109 1626.46 961.939 1624.19 961.939Z" fill="#FFC300"/>
        <path d="M1624.19 998.539C1621.95 998.539 1620.12 996.709 1620.12 994.469C1620.12 992.23 1621.95 990.4 1624.19 990.4C1626.43 990.4 1628.26 992.23 1628.26 994.469C1628.26 996.709 1626.46 998.539 1624.19 998.539Z" fill="#FFC300"/>
        <path d="M1624.19 1035.14C1621.95 1035.14 1620.12 1033.31 1620.12 1031.07C1620.12 1028.83 1621.95 1027 1624.19 1027C1626.43 1027 1628.26 1028.83 1628.26 1031.07C1628.26 1033.31 1626.46 1035.14 1624.19 1035.14Z" fill="#FFC300"/>
        <path d="M1624.19 1071.74C1621.95 1071.74 1620.12 1069.91 1620.12 1067.67C1620.12 1065.43 1621.95 1063.6 1624.19 1063.6C1626.43 1063.6 1628.26 1065.43 1628.26 1067.67C1628.26 1069.91 1626.46 1071.74 1624.19 1071.74Z" fill="#FFC300"/>
        <path d="M1591.66 852.139C1589.42 852.139 1587.59 850.309 1587.59 848.069C1587.59 845.83 1589.42 844 1591.66 844C1593.9 844 1595.73 845.83 1595.73 848.069C1595.73 850.309 1593.92 852.139 1591.66 852.139Z" fill="#FFC300"/>
        <path d="M1591.66 888.739C1589.42 888.739 1587.59 886.909 1587.59 884.669C1587.59 882.43 1589.42 880.6 1591.66 880.6C1593.9 880.6 1595.73 882.43 1595.73 884.669C1595.73 886.909 1593.92 888.739 1591.66 888.739Z" fill="#FFC300"/>
        <path d="M1591.66 925.339C1589.42 925.339 1587.59 923.509 1587.59 921.269C1587.59 919.03 1589.42 917.2 1591.66 917.2C1593.9 917.2 1595.73 919.03 1595.73 921.269C1595.73 923.509 1593.92 925.339 1591.66 925.339Z" fill="#FFC300"/>
        <path d="M1591.66 961.939C1589.42 961.939 1587.59 960.109 1587.59 957.87C1587.59 955.631 1589.42 953.801 1591.66 953.801C1593.9 953.801 1595.73 955.631 1595.73 957.87C1595.73 960.109 1593.92 961.939 1591.66 961.939Z" fill="#FFC300"/>
        <path d="M1591.66 998.539C1589.42 998.539 1587.59 996.709 1587.59 994.469C1587.59 992.23 1589.42 990.4 1591.66 990.4C1593.9 990.4 1595.73 992.23 1595.73 994.469C1595.73 996.709 1593.92 998.539 1591.66 998.539Z" fill="#FFC300"/>
        <path d="M1591.66 1035.14C1589.42 1035.14 1587.59 1033.31 1587.59 1031.07C1587.59 1028.83 1589.42 1027 1591.66 1027C1593.9 1027 1595.73 1028.83 1595.73 1031.07C1595.73 1033.31 1593.92 1035.14 1591.66 1035.14Z" fill="#FFC300"/>
        <path d="M1591.66 1071.74C1589.42 1071.74 1587.59 1069.91 1587.59 1067.67C1587.59 1065.43 1589.42 1063.6 1591.66 1063.6C1593.9 1063.6 1595.73 1065.43 1595.73 1067.67C1595.73 1069.91 1593.92 1071.74 1591.66 1071.74Z" fill="#FFC300"/>
        <path d="M1559.13 852.139C1556.89 852.139 1555.06 850.309 1555.06 848.069C1555.06 845.83 1556.89 844 1559.13 844C1561.37 844 1563.2 845.83 1563.2 848.069C1563.2 850.309 1561.37 852.139 1559.13 852.139Z" fill="#FFC300"/>
        <path d="M1559.13 888.739C1556.89 888.739 1555.06 886.909 1555.06 884.669C1555.06 882.43 1556.89 880.6 1559.13 880.6C1561.37 880.6 1563.2 882.43 1563.2 884.669C1563.2 886.909 1561.37 888.739 1559.13 888.739Z" fill="#FFC300"/>
        <path d="M1559.13 925.339C1556.89 925.339 1555.06 923.509 1555.06 921.269C1555.06 919.03 1556.89 917.2 1559.13 917.2C1561.37 917.2 1563.2 919.03 1563.2 921.269C1563.2 923.509 1561.37 925.339 1559.13 925.339Z" fill="#FFC300"/>
        <path d="M1559.13 961.939C1556.89 961.939 1555.06 960.109 1555.06 957.87C1555.06 955.631 1556.89 953.801 1559.13 953.801C1561.37 953.801 1563.2 955.631 1563.2 957.87C1563.2 960.109 1561.37 961.939 1559.13 961.939Z" fill="#FFC300"/>
        <path d="M1559.13 998.539C1556.89 998.539 1555.06 996.709 1555.06 994.469C1555.06 992.23 1556.89 990.4 1559.13 990.4C1561.37 990.4 1563.2 992.23 1563.2 994.469C1563.2 996.709 1561.37 998.539 1559.13 998.539Z" fill="#FFC300"/>
        <path d="M1559.13 1035.14C1556.89 1035.14 1555.06 1033.31 1555.06 1031.07C1555.06 1028.83 1556.89 1027 1559.13 1027C1561.37 1027 1563.2 1028.83 1563.2 1031.07C1563.2 1033.31 1561.37 1035.14 1559.13 1035.14Z" fill="#FFC300"/>
        <path d="M1559.13 1071.74C1556.89 1071.74 1555.06 1069.91 1555.06 1067.67C1555.06 1065.43 1556.89 1063.6 1559.13 1063.6C1561.37 1063.6 1563.2 1065.43 1563.2 1067.67C1563.2 1069.91 1561.37 1071.74 1559.13 1071.74Z" fill="#FFC300"/>
        <path d="M1522.53 848.069C1522.53 850.317 1524.35 852.139 1526.6 852.139C1528.85 852.139 1530.67 850.317 1530.67 848.069C1530.67 845.822 1528.85 844 1526.6 844C1524.35 844 1522.53 845.822 1522.53 848.069Z" fill="#FFC300"/>
        <path d="M1522.53 884.669C1522.53 886.917 1524.35 888.739 1526.6 888.739C1528.85 888.739 1530.67 886.917 1530.67 884.669C1530.67 882.422 1528.85 880.6 1526.6 880.6C1524.35 880.6 1522.53 882.422 1522.53 884.669Z" fill="#FFC300"/>
        <path d="M1522.53 921.269C1522.53 923.517 1524.35 925.339 1526.6 925.339C1528.85 925.339 1530.67 923.517 1530.67 921.269C1530.67 919.022 1528.85 917.2 1526.6 917.2C1524.35 917.2 1522.53 919.022 1522.53 921.269Z" fill="#FFC300"/>
        <path d="M1526.6 961.939C1524.36 961.939 1522.53 960.109 1522.53 957.87C1522.53 955.631 1524.36 953.801 1526.6 953.801C1528.84 953.801 1530.67 955.631 1530.67 957.87C1530.67 960.109 1528.84 961.939 1526.6 961.939Z" fill="#FFC300"/>
        <path d="M1526.6 998.539C1524.36 998.539 1522.53 996.709 1522.53 994.469C1522.53 992.23 1524.36 990.4 1526.6 990.4C1528.84 990.4 1530.67 992.23 1530.67 994.469C1530.67 996.709 1528.84 998.539 1526.6 998.539Z" fill="#FFC300"/>
        <path d="M1522.53 1031.07C1522.53 1033.32 1524.35 1035.14 1526.6 1035.14C1528.85 1035.14 1530.67 1033.32 1530.67 1031.07C1530.67 1028.82 1528.85 1027 1526.6 1027C1524.35 1027 1522.53 1028.82 1522.53 1031.07Z" fill="#FFC300"/>
        <path d="M1522.53 1067.67C1522.53 1069.92 1524.35 1071.74 1526.6 1071.74C1528.85 1071.74 1530.67 1069.92 1530.67 1067.67C1530.67 1065.42 1528.85 1063.6 1526.6 1063.6C1524.35 1063.6 1522.53 1065.42 1522.53 1067.67Z" fill="#FFC300"/>
        <path d="M1494.07 852.139C1491.83 852.139 1490 850.309 1490 848.069C1490 845.83 1491.83 844 1494.07 844C1496.31 844 1498.14 845.83 1498.14 848.069C1498.14 850.309 1496.31 852.139 1494.07 852.139Z" fill="#FFC300"/>
        <path d="M1494.07 888.739C1491.83 888.739 1490 886.909 1490 884.669C1490 882.43 1491.83 880.6 1494.07 880.6C1496.31 880.6 1498.14 882.43 1498.14 884.669C1498.14 886.909 1496.31 888.739 1494.07 888.739Z" fill="#FFC300"/>
        <path d="M1494.07 925.339C1491.83 925.339 1490 923.509 1490 921.269C1490 919.03 1491.83 917.2 1494.07 917.2C1496.31 917.2 1498.14 919.03 1498.14 921.269C1498.14 923.509 1496.31 925.339 1494.07 925.339Z" fill="#FFC300"/>
        <path d="M1494.07 961.939C1491.83 961.939 1490 960.109 1490 957.87C1490 955.631 1491.83 953.801 1494.07 953.801C1496.31 953.801 1498.14 955.631 1498.14 957.87C1498.14 960.109 1496.31 961.939 1494.07 961.939Z" fill="#FFC300"/>
        <path d="M1494.07 998.539C1491.83 998.539 1490 996.709 1490 994.469C1490 992.23 1491.83 990.4 1494.07 990.4C1496.31 990.4 1498.14 992.23 1498.14 994.469C1498.14 996.709 1496.31 998.539 1494.07 998.539Z" fill="#FFC300"/>
        <path d="M1494.07 1035.14C1491.83 1035.14 1490 1033.31 1490 1031.07C1490 1028.83 1491.83 1027 1494.07 1027C1496.31 1027 1498.14 1028.83 1498.14 1031.07C1498.14 1033.31 1496.31 1035.14 1494.07 1035.14Z" fill="#FFC300"/>
        <path d="M1494.07 1071.74C1491.83 1071.74 1490 1069.91 1490 1067.67C1490 1065.43 1491.83 1063.6 1494.07 1063.6C1496.31 1063.6 1498.14 1065.43 1498.14 1067.67C1498.14 1069.91 1496.31 1071.74 1494.07 1071.74Z" fill="#FFC300"/>
    </g>
    <defs>
        <clipPath id="clip0_374_6">
            <rect width="1920" height="1080" fill="white"/>
        </clipPath>
    </defs>
</svg>
